<svg width="32" height="33" viewBox="0 0 32 33" fill="none" xmlns="http://www.w3.org/2000/svg">
<circle cx="16" cy="16.7279" r="16" fill="#D9E0C0"/>
<path d="M23.7127 13.5078L24.7599 14.5816L25.8338 13.5344L24.7865 12.4605L23.7127 13.5078ZM22.9967 14.2059L21.9495 13.1321L21.9495 13.1321L22.9967 14.2059ZM22.3163 12.0759L23.3902 11.0286L22.3429 9.95477L21.269 11.0021L22.3163 12.0759ZM21.6004 12.7741L22.6477 13.848L22.6477 13.848L21.6004 12.7741ZM13.85 20.3326L12.8449 21.4461L13.8897 22.3891L14.8972 21.4064L13.85 20.3326ZM9.72532 16.6096L10.7304 15.4961L10.7304 15.4961L9.72532 16.6096ZM8.98299 15.9396L9.98804 14.8261L8.87455 13.8211L7.8695 14.9345L8.98299 15.9396ZM7.64293 17.4243L6.52943 16.4192L5.52438 17.5327L6.63787 18.5378L7.64293 17.4243ZM8.38526 18.0943L7.3802 19.2078L7.3802 19.2078L8.38526 18.0943ZM13.09 22.3408L14.095 21.2273L14.095 21.2273L13.09 22.3408ZM13.8323 23.0109L12.8273 24.1243L13.9408 25.1294L14.9458 24.0159L13.8323 23.0109ZM14.2144 22.5876L15.2883 21.5403L14.1721 20.3957L13.1009 21.5825L14.2144 22.5876ZM14.306 22.6815L13.2321 23.7288L14.2794 24.8026L15.3533 23.7554L14.306 22.6815ZM15.0219 21.9833L16.0692 23.0572L15.0219 21.9833ZM22.6654 12.4339L21.9495 13.1321L24.044 15.2798L24.7599 14.5816L22.6654 12.4339ZM21.2424 13.1232L22.6388 14.555L24.7865 12.4605L23.3902 11.0286L21.2424 13.1232ZM22.6477 13.848L23.3636 13.1498L21.269 11.0021L20.5531 11.7002L22.6477 13.848ZM14.8972 21.4064L22.6477 13.848L20.5531 11.7002L12.8027 19.2587L14.8972 21.4064ZM8.72027 17.7231L12.8449 21.4461L14.855 19.2191L10.7304 15.4961L8.72027 17.7231ZM7.97794 17.0531L8.72027 17.7231L10.7304 15.4961L9.98804 14.8261L7.97794 17.0531ZM8.75642 18.4293L10.0965 16.9446L7.8695 14.9345L6.52943 16.4192L8.75642 18.4293ZM9.39031 16.9808L8.64798 16.3108L6.63787 18.5378L7.3802 19.2078L9.39031 16.9808ZM14.095 21.2273L9.39031 16.9808L7.3802 19.2078L12.0849 23.4543L14.095 21.2273ZM14.8374 21.8974L14.095 21.2273L12.0849 23.4543L12.8273 24.1243L14.8374 21.8974ZM13.1009 21.5825L12.7188 22.0058L14.9458 24.0159L15.3279 23.5926L13.1009 21.5825ZM15.3799 21.6342L15.2883 21.5403L13.1405 23.6348L13.2321 23.7288L15.3799 21.6342ZM13.9746 20.9094L13.2587 21.6076L15.3533 23.7554L16.0692 23.0572L13.9746 20.9094ZM21.9495 13.1321L13.9746 20.9094L16.0692 23.0572L24.044 15.2798L21.9495 13.1321Z" fill="#FFFEFB"/>
</svg>
