<svg width="32" height="33" viewBox="0 0 32 33" fill="none" xmlns="http://www.w3.org/2000/svg">
<circle cx="16" cy="16.728" r="16" fill="#114635"/>
<path d="M23.7133 13.5078L24.7606 14.5816L25.8345 13.5343L24.7872 12.4605L23.7133 13.5078ZM22.9974 14.2059L24.0447 15.2798L24.0447 15.2798L22.9974 14.2059ZM22.317 12.0759L23.3908 11.0286L22.3436 9.95477L21.2697 11.002L22.317 12.0759ZM21.601 12.7741L20.5538 11.7002L20.5538 11.7002L21.601 12.7741ZM13.8503 20.3329L12.8453 21.4464L13.89 22.3894L14.8976 21.4067L13.8503 20.3329ZM9.72531 16.6096L10.7304 15.4961L10.7304 15.4961L9.72531 16.6096ZM8.98298 15.9396L9.98803 14.8261L8.87453 13.821L7.86948 14.9345L8.98298 15.9396ZM7.64291 17.4242L6.52942 16.4192L5.52436 17.5327L6.63786 18.5377L7.64291 17.4242ZM8.38524 18.0943L9.39029 16.9808L9.39029 16.9808L8.38524 18.0943ZM13.09 22.3408L14.095 21.2273L14.095 21.2273L13.09 22.3408ZM13.8323 23.0108L12.8272 24.1243L13.9407 25.1294L14.9458 24.0159L13.8323 23.0108ZM14.2147 22.5872L15.2886 21.5399L14.1724 20.3954L13.1012 21.5821L14.2147 22.5872ZM14.3066 22.6815L13.2328 23.7288L14.28 24.8026L15.3539 23.7554L14.3066 22.6815ZM15.0226 21.9833L16.0698 23.0572L15.0226 21.9833ZM22.6661 12.4339L21.9501 13.1321L24.0447 15.2798L24.7606 14.5816L22.6661 12.4339ZM21.2431 13.1232L22.6395 14.555L24.7872 12.4605L23.3908 11.0286L21.2431 13.1232ZM22.6483 13.848L23.3642 13.1498L21.2697 11.002L20.5538 11.7002L22.6483 13.848ZM14.8976 21.4067L22.6483 13.848L20.5538 11.7002L12.8031 19.259L14.8976 21.4067ZM8.72026 17.7231L12.8453 21.4464L14.8554 19.2194L10.7304 15.4961L8.72026 17.7231ZM7.97793 17.0531L8.72026 17.7231L10.7304 15.4961L9.98803 14.8261L7.97793 17.0531ZM8.75641 18.4293L10.0965 16.9446L7.86948 14.9345L6.52942 16.4192L8.75641 18.4293ZM9.39029 16.9808L8.64796 16.3107L6.63786 18.5377L7.38019 19.2077L9.39029 16.9808ZM14.095 21.2273L9.39029 16.9808L7.38019 19.2077L12.0849 23.4543L14.095 21.2273ZM14.8374 21.8973L14.095 21.2273L12.0849 23.4543L12.8272 24.1243L14.8374 21.8973ZM13.1012 21.5821L12.7188 22.0058L14.9458 24.0159L15.3282 23.5922L13.1012 21.5821ZM15.3805 21.6342L15.2886 21.5399L13.1408 23.6345L13.2328 23.7288L15.3805 21.6342ZM13.9753 20.9094L13.2594 21.6076L15.3539 23.7554L16.0698 23.0572L13.9753 20.9094ZM21.9501 13.1321L13.9753 20.9094L16.0698 23.0572L24.0447 15.2798L21.9501 13.1321Z" fill="#FFFEFB"/>
</svg>
