<svg width="194" height="227" viewBox="0 0 194 227" fill="none" xmlns="http://www.w3.org/2000/svg">
<path d="M-75.1049 -27.8764C-79.8342 -21.6912 -84.0546 -15.1331 -87.7249 -8.26645C-94.7826 5.63695 -100.308 20.2662 -104.205 35.3636C-106.115 43.2536 -107.455 51.2535 -108.645 59.2735C-111.085 75.7035 -112.075 92.2036 -109.425 108.674C-108.234 116.849 -106.618 124.956 -104.585 132.964C-102.433 140.636 -99.7359 148.145 -96.515 155.434C-94.975 159.034 -93.4549 162.684 -91.6049 166.144C-89.7549 169.604 -87.3649 172.074 -84.9449 175.004C-82.5249 177.934 -80.2649 181.004 -77.5649 183.774C-74.8649 186.544 -72.1249 189.134 -69.4249 191.844C-64.2949 196.994 -58.8749 202.124 -52.5349 205.764C-49.3949 207.574 -45.9649 208.854 -42.6849 210.394C-39.4049 211.934 -36.0049 213.604 -32.6849 215.204C-26.182 218.505 -19.4193 221.267 -12.4649 223.464C-4.99491 225.654 2.5351 226.104 10.2951 226.274C18.7151 226.474 26.8451 225.454 35.1651 224.274C39.1651 223.694 43.2751 223.374 47.2651 222.534C50.9019 221.722 54.4774 220.656 57.9651 219.344C65.0351 216.754 72.0951 213.954 78.9051 210.754C85.6646 207.575 92.0142 203.589 97.8151 198.884C104.065 193.814 111.005 189.684 116.935 184.214C122.605 179.004 128.655 174.214 134.315 169.014C139.975 163.814 144.415 158.014 148.825 151.914C153.385 145.654 156.195 138.494 159.055 131.344C162.097 123.944 164.519 116.304 166.295 108.504C167.922 100.383 168.699 92.1151 168.615 83.8335C168.615 79.8335 168.805 75.7036 168.075 71.7336C167.597 69.6963 167.263 67.6278 167.075 65.5435C166.985 63.5435 167.075 61.4435 167.135 59.4035C167.355 51.1635 166.435 42.7135 168.205 34.5935C169.935 26.7135 173.815 19.6735 177.205 12.4135C178.875 8.83354 180.945 5.46355 182.685 1.92355C184.258 -1.32417 185.633 -4.66354 186.805 -8.07645C189.436 -15.2781 191.323 -22.7303 192.435 -30.3164C193.435 -37.8164 193.975 -46.1464 191.605 -53.4464C190.411 -56.7544 188.685 -59.8451 186.495 -62.5965C184.425 -65.3565 182.295 -68.1364 180.035 -70.7364C175.34 -76.0162 169.743 -80.4182 163.505 -83.7364C156.894 -87.1448 149.934 -89.8271 142.745 -91.7364C138.912 -92.777 135.009 -93.5357 131.065 -94.0064C127.235 -94.5264 123.415 -95.1564 119.565 -95.4864C115.638 -95.7693 111.731 -96.2836 107.865 -97.0265C103.865 -97.8365 99.865 -97.5964 95.865 -97.5764C95.585 -97.55 95.3249 -97.4201 95.1355 -97.212C94.9462 -97.0039 94.8412 -96.7328 94.8412 -96.4514C94.8412 -96.1701 94.9462 -95.8989 95.1355 -95.6909C95.3249 -95.4828 95.585 -95.3529 95.865 -95.3264C100.025 -95.3264 104.125 -95.5564 108.215 -94.6465C111.979 -93.9173 115.787 -93.4461 119.615 -93.2364C123.465 -92.9064 127.285 -92.2364 131.105 -91.7564C134.853 -91.2929 138.562 -90.561 142.205 -89.5664C155.945 -85.6164 169.585 -79.8164 178.995 -68.5664C183.435 -63.2864 188.505 -57.5664 190.075 -50.6764C191.785 -43.2064 191.075 -34.9864 189.785 -27.5064C188.444 -20.1429 186.404 -12.9237 183.695 -5.94644C181.035 1.05356 177.055 7.49357 173.915 14.3136C170.775 21.1336 167.315 27.6436 165.855 35.1436C164.355 42.8036 165.105 50.7235 164.955 58.4735C164.706 62.3237 164.874 66.1895 165.455 70.0036C166.15 73.9442 166.461 77.9429 166.385 81.9436C166.56 90.2467 165.89 98.5461 164.385 106.714C162.796 114.157 160.581 121.453 157.765 128.524C155.005 135.654 152.275 143.074 147.885 149.384C143.811 155.46 139.145 161.118 133.955 166.274C128.555 171.434 122.575 175.934 117.105 181.014C114.268 183.694 111.262 186.189 108.105 188.484C104.975 190.714 101.825 192.914 98.7751 195.254C95.7251 197.594 92.9251 200.014 89.7751 202.114C86.723 204.132 83.5467 205.955 80.2651 207.574C73.7051 210.854 66.845 213.574 60.0051 216.164C56.5277 217.545 52.9754 218.731 49.365 219.714C45.6156 220.589 41.8147 221.227 37.985 221.624C29.875 222.684 21.8951 224.084 13.6951 224.084C6.01512 224.084 -1.77495 223.904 -9.25495 222.024C-16.1833 220.131 -22.9089 217.562 -29.3349 214.354C-35.7416 211.314 -42.1616 208.314 -48.5949 205.354C-55.1449 202.354 -60.6649 197.354 -65.7849 192.354C-70.9049 187.354 -76.4949 182.354 -80.9649 176.654C-82.0249 175.294 -82.965 173.884 -84.135 172.594C-85.5093 171.171 -86.7824 169.654 -87.9449 168.054C-89.9268 164.825 -91.636 161.436 -93.0549 157.924C-96.3025 150.767 -99.1143 143.42 -101.475 135.924C-103.626 128.224 -105.335 120.408 -106.595 112.514C-108.088 104.599 -108.871 96.5673 -108.935 88.5136C-108.935 72.5136 -106.535 56.3835 -103.205 40.7935C-99.9224 25.8566 -94.8876 11.3596 -88.2049 -2.39645C-81.5649 -16.2165 -72.415 -28.5764 -62.265 -40.0064C-57.265 -45.6764 -51.9149 -51.0064 -46.5749 -56.4364C-41.2349 -61.8664 -36.1349 -67.0664 -30.5749 -72.0664C-24.965 -77.0822 -18.9438 -81.6181 -12.5749 -85.6264C-6.1349 -89.7264 0.575119 -93.6264 7.81512 -96.1164C11.1351 -97.2864 14.5251 -98.2165 17.8151 -99.5865C18.8151 -100.016 19.8151 -100.506 20.8151 -101.006C21.3151 -101.256 23.1251 -102.236 23.1851 -101.566C23.3051 -100.136 25.5551 -100.116 25.4351 -101.566C25.2451 -103.866 23.4351 -104.406 21.4351 -103.726C20.4908 -103.354 19.5721 -102.92 18.6851 -102.426C17.0637 -101.652 15.3935 -100.984 13.6851 -100.426C10.0851 -99.1464 6.43509 -98.1264 2.91509 -96.6264C-0.695518 -95.0628 -4.20858 -93.2829 -7.60493 -91.2964C-14.2706 -87.515 -20.6241 -83.2081 -26.6049 -78.4165C-32.5436 -73.4646 -38.2118 -68.197 -43.5849 -62.6364C-54.6549 -51.4964 -65.6549 -40.4064 -75.1049 -27.8764Z" fill="#E2DAC3"/>
<path d="M14.2347 -75.2066C11.2347 -73.5366 8.16483 -72.0465 5.32483 -70.1065C-0.195168 -66.3465 -5.02525 -61.6966 -10.2552 -57.5666C-13.1152 -55.2966 -16.0752 -53.1666 -18.9452 -50.9066C-21.8272 -48.8139 -24.542 -46.5002 -27.0652 -43.9865C-28.1552 -42.8065 -29.1952 -41.5965 -30.3052 -40.4265C-31.4152 -39.2565 -32.8652 -38.0265 -34.0352 -36.7365C-36.2652 -34.2765 -38.0352 -31.4266 -40.0352 -28.8366C-44.3852 -23.3566 -49.4053 -18.5566 -53.1353 -12.5866C-54.9653 -9.66658 -57.3552 -7.17654 -59.3352 -4.36655C-61.4752 -1.36655 -63.2652 1.97341 -65.1752 5.15341C-68.8952 11.3734 -72.7553 17.4535 -75.8853 24.0135C-78.9024 30.3577 -81.4297 36.9235 -83.4452 43.6534C-85.5152 50.5634 -87.5652 57.5134 -89.4452 64.4634C-91.44 71.6307 -92.5054 79.0246 -92.6152 86.4634C-92.6152 90.3434 -92.5452 94.2134 -92.5052 98.0934C-92.5523 101.773 -92.3149 105.451 -91.7952 109.093C-91.1852 112.773 -90.2652 116.393 -89.5852 120.093C-88.9952 123.303 -88.5852 126.543 -87.9752 129.753C-86.8152 136.043 -85.2352 142.193 -82.2152 147.873C-76.0652 159.413 -66.3453 169.033 -56.1453 177.043C-46.3453 184.743 -35.4452 191.893 -23.3552 195.323C-17.0657 197.138 -10.5028 197.815 -3.97522 197.323C3.24478 196.743 10.1648 194.513 17.0948 192.553C24.0248 190.593 31.2747 189.073 38.2347 186.783C45.1049 184.512 51.8364 181.841 58.3948 178.783C65.003 175.826 71.329 172.275 77.2948 168.173C80.1447 166.213 83.1554 164.496 86.2948 163.043C89.3963 161.458 92.3807 159.654 95.2249 157.643C101.12 153.797 106.704 149.494 111.925 144.773C114.355 142.503 116.665 140.083 119.005 137.773C121.374 135.463 123.596 133.005 125.655 130.413C127.655 127.743 129.385 124.793 131.255 122.013C133.255 119.013 135.255 116.113 136.985 113.013C140.375 106.85 142.64 100.131 143.675 93.1734C144.673 86.195 145.157 79.1528 145.125 72.1034C145.225 64.6234 144.125 57.3934 143.195 49.9934C142.667 46.2874 142.423 42.5466 142.465 38.8034C142.555 35.6434 144.325 33.4335 145.465 30.6335C146.059 29.0376 146.491 27.3859 146.755 25.7035C147.171 23.759 147.812 21.8696 148.665 20.0735C150.165 16.7335 151.935 13.5234 153.505 10.2134C156.505 3.93341 159.425 -2.62659 161.035 -9.4166C162.452 -15.9496 162.346 -22.7212 160.725 -29.2066C159.195 -36.0666 155.655 -42.0066 151.915 -47.8866C150.387 -50.3299 148.614 -52.6116 146.625 -54.6966C144.48 -56.7752 142.18 -58.6875 139.745 -60.4166C137.275 -62.2966 135.515 -64.9665 132.745 -66.4865C131.31 -67.2027 129.831 -67.8241 128.315 -68.3466C126.702 -69.0391 125.141 -69.8479 123.645 -70.7666C117.735 -74.1666 111.905 -77.7666 105.485 -80.2066C102.215 -81.4266 98.8147 -82.0266 95.4847 -82.9666C92.1044 -84.0612 88.6616 -84.9528 85.1748 -85.6366C81.5448 -86.2066 77.9348 -86.8666 74.3248 -87.5266C70.7148 -88.1866 67.3248 -88.3566 63.7548 -88.7266C56.5458 -89.5233 49.2507 -88.9119 42.2748 -86.9265C35.7948 -85.0165 29.2748 -83.3466 23.2748 -80.2166C20.2448 -78.6366 17.2647 -76.8966 14.2347 -75.2066ZM42.8948 -84.8266C50.0204 -86.7834 57.4596 -87.3303 64.7948 -86.4366C68.4248 -86.0566 71.9748 -85.7666 75.5648 -85.0766C79.1548 -84.3866 82.6247 -83.9666 86.1147 -83.2566C89.4247 -82.5866 92.6248 -81.4766 95.8848 -80.5966C99.271 -79.8471 102.61 -78.8987 105.885 -77.7566C112.135 -75.2666 117.825 -71.5966 123.655 -68.2866C124.915 -67.5473 126.225 -66.8957 127.575 -66.3366C129.282 -65.7759 130.927 -65.0421 132.485 -64.1466C135.015 -62.4466 136.825 -59.8666 139.315 -58.0866C144.134 -54.6014 148.171 -50.1458 151.165 -45.0066C152.993 -42.1269 154.663 -39.1491 156.165 -36.0866C157.601 -32.8757 158.61 -29.4901 159.165 -26.0166C159.782 -22.7751 160.027 -19.4736 159.895 -16.1765C159.619 -12.6815 158.907 -9.23471 157.775 -5.9166C155.527 0.663658 152.779 7.06234 149.555 13.2234C147.796 16.3504 146.317 19.6265 145.135 23.0135C144.665 24.5835 144.495 26.2335 144.135 27.8235C143.683 29.3828 143.035 30.8781 142.205 32.2734C140.804 34.8213 140.142 37.7098 140.295 40.6134C140.388 44.2591 140.702 47.8958 141.235 51.5034C141.695 55.0235 142.235 58.5034 142.605 62.0534C142.928 65.7106 143.042 69.3833 142.945 73.0534C142.735 86.9334 141.605 100.923 134.365 113.123C132.595 116.123 130.615 118.973 128.685 121.863C126.755 124.753 125.205 127.513 123.095 130.063C120.985 132.613 118.765 134.853 116.475 137.133C114.185 139.413 111.795 141.933 109.295 144.133C104.074 148.69 98.5299 152.861 92.7048 156.613C89.8991 158.504 86.9615 160.192 83.9148 161.663C80.9352 163.123 78.0791 164.822 75.3748 166.743C69.511 170.695 63.3104 174.121 56.8448 176.983C50.2949 180.01 43.5695 182.641 36.7048 184.863C29.8948 187.043 22.9148 188.493 16.0548 190.443C9.19481 192.393 2.58482 194.553 -4.43518 195.033C-17.3652 195.933 -29.5952 191.643 -40.5352 185.033C-51.5745 178.469 -61.5658 170.284 -70.1752 160.753C-74.488 156.035 -78.1413 150.753 -81.0352 145.053C-83.8352 139.343 -85.0353 133.053 -86.1453 126.773C-86.7053 123.533 -87.1452 120.273 -87.8252 117.043C-88.5752 113.423 -89.4653 109.813 -89.8953 106.133C-90.1936 102.512 -90.3071 98.8769 -90.2352 95.2434C-90.2952 91.3734 -90.3752 87.4934 -90.2352 83.6134C-89.867 76.4646 -88.6209 69.3881 -86.5251 62.5434C-84.5251 55.7834 -82.7252 48.9635 -80.6052 42.2534C-78.5084 35.5787 -75.8834 29.0815 -72.7552 22.8235C-69.5752 16.4535 -65.6952 10.5035 -62.0552 4.39346C-60.3288 1.28043 -58.4153 -1.72508 -56.3252 -4.60654C-54.3252 -7.23653 -52.2452 -9.77654 -50.4352 -12.6065C-46.7552 -18.3165 -41.7052 -22.8866 -37.6152 -28.2766C-35.6152 -30.9566 -33.8053 -33.8566 -31.3853 -36.2166C-28.9653 -38.5766 -26.9552 -40.8266 -24.7352 -43.1466C-22.1955 -45.5691 -19.4925 -47.8143 -16.6453 -49.8665C-13.8553 -52.0565 -10.9652 -54.1166 -8.2052 -56.3266C-3.0852 -60.4166 1.66476 -64.9865 7.13477 -68.6165C9.93477 -70.4765 12.9548 -71.9165 15.8848 -73.5565C18.8148 -75.1965 21.6048 -76.8766 24.5448 -78.3966C30.3048 -81.3766 36.6148 -82.9766 42.8948 -84.8266Z" fill="#E2DAC3"/>
<path d="M-13.0655 -27.7964C-16.8815 -23.7831 -20.4546 -19.5456 -23.7656 -15.1064C-27.0756 -10.5564 -30.1055 -5.81644 -33.4155 -1.26644C-36.7255 3.28356 -40.2455 7.52356 -42.5555 12.7336C-43.7355 15.3836 -44.7556 18.0936 -46.0156 20.7336C-47.2756 23.3736 -48.5255 25.7336 -49.5955 28.3236C-51.7355 33.5436 -53.2555 38.9836 -54.9255 44.3236C-56.8058 49.9793 -58.3716 55.7348 -59.6156 61.5636C-61.8139 72.3004 -62.2765 83.3203 -60.9855 94.2036C-60.3376 99.5461 -59.1035 104.801 -57.3055 109.874C-55.5355 114.774 -53.3056 119.574 -51.1256 124.304C-46.6856 133.924 -41.2855 142.944 -33.5255 150.304C-29.8955 153.724 -25.8655 156.414 -20.9555 157.554C-15.4955 158.834 -9.82558 158.554 -4.26558 158.364C1.59442 158.224 7.44449 158.634 13.3045 158.574C19.0347 158.441 24.7341 157.694 30.3045 156.344C33.2345 155.664 36.1345 154.924 39.0545 154.214C41.9745 153.504 44.8545 153.034 47.7045 152.294C53.0145 150.914 57.9245 148.404 62.7045 145.824C67.3445 143.324 72.2545 141.434 76.9445 139.034C81.8145 136.534 85.6545 132.694 90.2245 129.734C92.4845 128.274 95.0145 127.234 97.2245 125.664C99.0411 124.307 100.68 122.728 102.104 120.964C105.438 117.043 108.559 112.947 111.455 108.694C114.543 104.095 117.105 99.1638 119.095 93.9936C120.095 91.3436 120.864 88.6236 121.614 85.9035C122.364 83.1835 123.134 80.6535 123.614 77.9635C124.561 72.4869 124.517 66.8847 123.484 61.4236C122.484 55.5836 120.805 49.8235 120.325 43.9035C119.425 33.0135 126.094 23.3136 130.864 14.1136C132.1 11.8046 133.105 9.37955 133.864 6.87357C134.523 4.39509 134.836 1.83759 134.794 -0.726463C134.848 -6.01023 134.141 -11.2741 132.695 -16.3564C131.245 -21.4455 128.872 -26.2249 125.695 -30.4564C124.064 -32.6264 122.174 -34.6564 120.695 -36.9264C119.215 -39.1964 118.194 -41.6364 116.404 -43.6364C114.635 -45.3668 112.776 -47.0025 110.835 -48.5365C108.816 -50.3624 106.664 -52.0338 104.394 -53.5365C99.7545 -56.6365 94.7944 -59.2764 90.0044 -62.1364C85.2623 -65.0088 80.0589 -67.0387 74.6244 -68.1364C69.1586 -69.2566 63.5526 -69.5265 58.0044 -68.9364C52.4605 -68.3415 47.0333 -66.9401 41.8945 -64.7764L41.7645 -64.7064L41.6244 -64.6565C38.9844 -63.5365 36.5045 -62.1565 33.9545 -60.8465C31.4045 -59.5365 28.9545 -58.4164 26.4245 -57.2464C21.3982 -55.0692 16.5091 -52.5879 11.7845 -49.8164C2.41447 -43.9864 -5.53551 -35.8764 -13.0655 -27.7964ZM28.6144 -55.7964C33.3544 -57.9964 37.9045 -60.6364 42.7045 -62.6964C53.0394 -67.0665 64.4774 -68.1149 75.4345 -65.6964C78.0817 -65.143 80.6676 -64.3291 83.1545 -63.2664C85.6908 -62.0718 88.146 -60.7122 90.5044 -59.1964C95.0744 -56.4264 99.8344 -53.9764 104.234 -50.9464C106.419 -49.3614 108.519 -47.6624 110.524 -45.8564C112.464 -44.1864 114.525 -42.7764 115.965 -40.6064C117.405 -38.4364 118.425 -36.1865 119.965 -34.1665C121.505 -32.1465 123.375 -29.9965 124.965 -27.7865C130.965 -19.2465 133.144 -8.34642 132.524 1.94358C132.214 7.15358 129.624 11.8835 127.124 16.3435C124.562 20.7109 122.352 25.2753 120.514 29.9936C118.57 34.8383 117.796 40.0733 118.254 45.2735C118.904 50.8435 120.365 56.2735 121.314 61.7735C122.378 67.2743 122.361 72.9293 121.264 78.4236C120.141 83.7857 118.589 89.0492 116.624 94.1636C114.612 99.1275 112.067 103.859 109.034 108.274C106.172 112.484 103.049 116.512 99.6845 120.334C98.181 122.089 96.405 123.592 94.4245 124.784C92.1445 126.094 89.8345 127.244 87.6645 128.784C85.4945 130.324 83.4445 132.044 81.3345 133.694C79.2764 135.259 77.0572 136.6 74.7145 137.694C70.1545 139.914 65.4944 141.834 61.0044 144.234C56.1644 146.824 51.2145 149.234 45.8145 150.474C40.4145 151.714 34.8144 153.064 29.2544 154.314C23.5645 155.654 17.7402 156.342 11.8945 156.364C6.28445 156.364 0.684509 156.024 -4.92549 156.174C-10.3455 156.314 -15.9255 156.634 -21.2055 155.174C-26.2055 153.844 -29.9455 150.714 -33.5255 147.174C-37.188 143.489 -40.3882 139.372 -43.0555 134.914C-45.671 130.517 -48.0089 125.962 -50.0555 121.274C-52.2954 116.608 -54.2621 111.817 -55.9455 106.924C-58.9982 96.8236 -60.1245 86.2397 -59.2656 75.7236C-58.8538 70.0788 -58.0181 64.473 -56.7656 58.9536C-55.5456 53.4536 -53.7655 48.1535 -52.0855 42.7735C-50.5813 37.3571 -48.7308 32.0429 -46.5455 26.8636C-45.3955 24.3336 -44.0355 21.8636 -42.9355 19.3536C-41.8355 16.8436 -40.8655 14.2736 -39.6555 11.8036C-37.2455 6.92357 -33.5555 2.87358 -30.4455 -1.55642C-27.3355 -5.98642 -24.3756 -10.5564 -21.1456 -14.8664C-17.766 -19.286 -14.1297 -23.5032 -10.2556 -27.4964C-6.54557 -31.4964 -2.75553 -35.3264 1.28447 -38.9464C5.28574 -42.6054 9.64044 -45.858 14.2845 -48.6565C18.8745 -51.3665 23.7644 -53.5364 28.6144 -55.7764V-55.7964Z" fill="#E2DAC3"/>
<path d="M-9.38474 -3.86646C-14.5247 3.30354 -17.5947 11.6835 -20.7947 19.8335C-21.5713 21.9207 -22.2389 24.047 -22.7947 26.2036C-23.429 28.5407 -24.2794 30.8138 -25.3347 32.9935C-27.1624 37.1125 -28.4724 41.4422 -29.2347 45.8835C-29.7147 48.2935 -29.9147 50.7335 -30.3047 53.1535C-30.6447 55.2335 -31.1847 57.2735 -31.3047 59.3835C-31.5047 61.8735 -31.3047 64.4335 -31.3047 66.9435C-31.3047 69.4535 -31.3047 71.8635 -31.3047 74.3235C-31.3047 83.7135 -31.0147 93.2335 -27.3847 102.044C-24.1847 109.824 -19.8846 117.394 -13.9046 123.384C-11.191 126.173 -8.06872 128.534 -4.64475 130.384C-1.31475 132.134 2.75532 133.804 6.55532 133.894C8.69543 133.825 10.8185 133.489 12.8753 132.894C15.0955 132.492 17.341 132.245 19.5954 132.154C24.3592 131.675 29.093 130.934 33.7753 129.934C38.4353 129.024 43.0853 128.014 47.6653 126.754C52.0153 125.564 56.4953 124.333 60.4053 122.023C64.0153 119.883 67.2053 117.114 70.7653 114.904C74.3253 112.693 78.4153 110.904 81.6953 108.094C84.9053 105.254 87.9127 102.193 90.6953 98.9335C93.5375 95.7661 96.0317 92.3029 98.1353 88.6035C99.1953 86.6935 99.9853 84.7035 100.885 82.7235C101.785 80.7435 103.045 78.8235 104.085 76.8435C105.845 73.3614 106.701 69.4929 106.575 65.5935C106.593 61.7655 105.95 57.9631 104.675 54.3535C103.285 50.4335 101.295 46.5835 100.875 42.4035C100.415 37.8435 102.145 33.4035 104.005 29.3335C105.035 27.1794 105.907 24.9536 106.615 22.6735C107.123 20.4653 107.853 18.3143 108.795 16.2535C109.926 14.3543 110.695 12.2624 111.065 10.0835C111.323 7.75445 111.707 5.44108 112.215 3.1535C112.745 1.0935 113.365 -0.946453 113.695 -3.04645C113.929 -5.18539 114.052 -7.33488 114.065 -9.48645C114.275 -11.5487 114.157 -13.6312 113.715 -15.6565C113.115 -17.7765 111.715 -19.5865 110.965 -21.6565C109.642 -25.5379 107.755 -29.2037 105.365 -32.5365C96.3652 -44.2265 81.1553 -51.3665 66.5153 -51.7965C62.7768 -51.9066 59.0397 -51.5369 55.3953 -50.6965C50.9253 -50.0565 46.9253 -48.0465 42.9353 -46.0465C38.7653 -43.9465 34.6553 -41.7265 30.6453 -39.3265C26.6353 -36.9265 22.8453 -34.4265 19.1253 -31.6965C15.4053 -28.9665 11.5553 -26.4165 7.91531 -23.5665C4.4442 -20.7706 1.32175 -17.5677 -1.38474 -14.0265C-4.10474 -10.7165 -6.88474 -7.36646 -9.38474 -3.86646ZM10.1253 -22.5665C13.6653 -25.2565 17.3553 -27.7565 20.9553 -30.3665C28.2646 -35.575 35.9792 -40.1898 44.0253 -44.1665C47.8453 -46.0965 51.6553 -47.9865 55.9453 -48.5965C70.3853 -51.9265 86.3653 -47.0265 97.5153 -37.5165C100.086 -35.3599 102.377 -32.8909 104.335 -30.1665C105.446 -28.6001 106.394 -26.9248 107.165 -25.1665C108.045 -23.1665 108.645 -21.0665 109.625 -19.1665C110.605 -17.2665 111.685 -15.3665 111.815 -13.0465C111.935 -10.9465 111.685 -8.83651 111.675 -6.72651C111.675 -2.42651 109.945 1.49354 109.285 5.69354C108.925 7.97354 108.955 10.3735 108.065 12.5335C107.295 14.4235 106.155 16.0735 105.535 18.0335C104.855 20.1935 104.335 22.4035 103.535 24.5335C102.735 26.6635 101.665 28.6835 100.805 30.7935C99.2053 34.6635 98.0853 38.7935 98.6453 43.0135C99.1653 46.9536 100.865 50.5535 102.235 54.2435C103.561 57.8355 104.239 61.6345 104.235 65.4635C104.343 69.3256 103.411 73.1457 101.535 76.5235C100.433 78.3544 99.4319 80.2439 98.5353 82.1835C97.759 84.0713 96.8776 85.9142 95.8953 87.7036C93.7837 91.3365 91.2932 94.7354 88.4654 97.8435C85.7476 100.991 82.803 103.936 79.6553 106.654C76.4153 109.333 72.4653 110.934 68.9453 113.184C65.4253 115.434 62.3653 118.104 58.7953 120.184C54.9653 122.384 50.5253 123.524 46.2853 124.674C42.0453 125.824 37.4953 126.794 33.0653 127.674C28.445 128.671 23.7704 129.399 19.0653 129.854C16.9016 129.928 14.7459 130.159 12.6153 130.544C10.621 131.136 8.56308 131.489 6.48525 131.594C4.48078 131.433 2.51201 130.971 0.645287 130.224C-1.08675 129.616 -2.76025 128.853 -4.35472 127.944C-11.3547 124.024 -16.5847 117.704 -20.5647 110.874C-22.7387 107.219 -24.573 103.373 -26.0447 99.3835C-27.5577 94.9997 -28.4727 90.4319 -28.7647 85.8035C-29.1147 81.2735 -29.0947 76.7235 -29.0847 72.1835C-29.0847 69.6835 -29.0847 67.1835 -29.0847 64.6935C-29.195 62.3909 -29.1147 60.083 -28.8447 57.7935C-28.5147 55.7935 -28.0247 53.7935 -27.8447 51.7935C-27.5705 49.2943 -27.1498 46.8134 -26.5847 44.3635C-26.1274 42.1057 -25.5431 39.8755 -24.8347 37.6835C-24.1447 35.6835 -23.1547 33.8835 -22.3247 31.9735C-20.5747 27.9735 -19.8447 23.5635 -18.2447 19.4835C-16.6447 15.4035 -15.1647 11.5535 -13.3647 7.69354C-11.6403 3.85774 -9.53291 0.205856 -7.07469 -3.20649C-4.50469 -6.69649 -1.76468 -10.1165 0.925316 -13.4865C3.61497 -16.8727 6.70399 -19.9215 10.1253 -22.5665Z" fill="#E2DAC3"/>
<path d="M-2.58436 78.9035C-1.66532 82.2036 -0.401682 85.3979 1.18566 88.4336C3.93566 93.8836 7.03566 99.0436 11.9357 102.814C16.33 106.184 21.4778 108.435 26.9357 109.374C32.4581 110.29 38.1277 109.596 43.2656 107.374C55.1556 102.544 65.4357 94.4536 73.8257 84.8236C78.1557 79.8236 82.4357 74.4835 84.5657 68.1535C85.6707 65.0125 86.0402 61.6598 85.6456 58.3536C85.1956 54.9936 83.8456 51.8636 82.7756 48.6736C81.6142 45.4764 81.2202 42.051 81.6256 38.6736C82.1156 35.2836 83.3857 32.0636 84.3257 28.7936C85.3257 25.2036 86.0457 21.5636 87.1857 17.9936C88.3018 14.6832 89.197 11.3024 89.8656 7.87357C91.0311 1.77706 90.9802 -4.48969 89.7157 -10.5664C89.0742 -13.4877 88.0272 -16.305 86.6056 -18.9364C85.0244 -21.5973 83.1676 -24.0843 81.0657 -26.3564C79.0225 -28.9629 76.6722 -31.3133 74.0657 -33.3564L73.9357 -33.4364C73.9957 -33.4364 73.7257 -33.5964 73.8057 -33.4964L73.4257 -33.8465C72.9957 -34.2365 72.5856 -34.6364 72.1456 -35.0164C70.8564 -36.0995 69.3922 -36.955 67.8157 -37.5464C65.3721 -38.4221 62.7912 -38.8523 60.1957 -38.8164C58.592 -38.8873 56.9903 -38.6357 55.4856 -38.0764C53.8709 -37.359 52.3132 -36.52 50.8257 -35.5664C49.4457 -34.7564 48.0556 -33.9964 46.7456 -33.0764C45.1656 -31.9664 43.6657 -30.7564 42.0557 -29.7064C39.2357 -27.8764 35.9556 -26.9065 33.2656 -24.8465C30.6104 -22.6445 28.1358 -20.2335 25.8656 -17.6364C23.6056 -15.2164 21.4256 -12.7164 19.3856 -10.1164C15.2056 -4.89254 11.6982 0.835602 8.94567 6.93357C7.59567 10.0136 6.63562 13.2036 5.52562 16.3736C4.32562 19.8236 2.90558 23.1936 1.60558 26.6136C-1.04217 33.645 -2.78934 40.9834 -3.59437 48.4536C-4.00437 52.1936 -3.99436 55.9136 -4.08436 59.6636C-4.24278 63.2275 -4.17603 66.798 -3.88441 70.3536C-3.68759 73.2345 -3.25272 76.0943 -2.58436 78.9035ZM-1.85438 57.9836C-1.80534 50.7017 -0.91269 43.45 0.805653 36.3736C2.48565 29.5436 5.51565 23.1936 7.80565 16.5536C8.89565 13.3736 9.87562 10.2036 11.2756 7.14359C12.6203 4.21859 14.157 1.38569 15.8756 -1.33645C19.3256 -6.7038 23.2839 -11.7269 27.6957 -16.3365C29.838 -18.798 32.1792 -21.079 34.6957 -23.1565C37.2757 -25.0865 40.4456 -26.0064 43.1256 -27.7564C44.6156 -28.7564 46.0157 -29.8364 47.4557 -30.8664C48.8957 -31.8964 50.3856 -32.7264 51.9056 -33.6164C53.1931 -34.4422 54.5288 -35.1902 55.9056 -35.8564C57.4998 -36.4567 59.209 -36.6892 60.9056 -36.5365C64.648 -36.5894 68.2802 -35.2695 71.1156 -32.8264C71.6108 -32.2968 72.1721 -31.833 72.7856 -31.4464H72.8457C75.6057 -29.4464 77.7257 -26.7265 79.9257 -24.1565C81.9538 -21.9393 83.6911 -19.4728 85.0957 -16.8164C87.6016 -11.451 88.742 -5.54922 88.4156 0.36356C88.2979 3.32543 87.9334 6.27231 87.3257 9.17356C86.5857 12.7236 85.3257 16.1735 84.3257 19.5935C83.3257 22.8535 82.7756 26.2035 81.7756 29.4635C80.6937 32.5066 79.8807 35.6386 79.3457 38.8236C78.9878 41.9656 79.2943 45.1477 80.2456 48.1636C81.1256 51.0736 82.3557 53.8636 83.0757 56.8236C84.7057 63.6236 81.8656 70.3835 78.0256 75.9035C70.9433 86.1722 61.7093 94.7749 50.9657 101.114C46.1057 103.924 40.5456 106.814 34.8956 107.434C29.6432 107.927 24.3545 107.008 19.5757 104.774C14.6455 102.632 10.4176 99.1453 7.3756 94.7135C3.9056 89.3635 0.655663 83.3336 -0.684337 77.0636C-2.02434 70.7936 -1.89435 64.4136 -1.82435 57.9836H-1.85438Z" fill="#E2DAC3"/>
<path d="M13.5554 60.7835C14.1154 62.9335 14.9354 65.0035 15.5554 67.1335C16.4135 70.5342 18.2001 73.6294 20.7154 76.0735C23.157 78.2053 26.0759 79.7179 29.2254 80.4835C32.5678 81.3238 36.0109 81.694 39.4554 81.5834C43.4554 81.4534 46.7754 79.8735 50.1754 77.9634C52.1171 76.8023 53.9902 75.5302 55.7854 74.1535C57.3554 73.0135 59.1354 72.2134 60.7154 71.1535C63.7154 69.0635 64.9253 65.0935 65.6153 61.6935C66.3697 57.796 66.5114 53.8047 66.0354 49.8635C65.8127 48.0183 65.4787 46.1884 65.0354 44.3835C64.4959 41.9796 64.4246 39.4943 64.8254 37.0635C65.5554 32.4335 67.4254 28.1335 69.1354 23.8135C70.8756 19.5131 71.9805 14.9822 72.4154 10.3635C72.6304 7.96494 72.6304 5.55197 72.4154 3.15345C72.1125 1.05401 71.5167 -0.992538 70.6454 -2.92651C69.8354 -5.02651 69.7654 -7.30653 68.9154 -9.38653C68.1638 -11.2515 67.0527 -12.9504 65.6454 -14.3865C64.4386 -15.7074 62.8343 -16.5991 61.0754 -16.9265H60.9953C60.9222 -16.933 60.8486 -16.933 60.7754 -16.9265C56.7754 -16.9265 52.9554 -16.8465 49.3154 -14.9865C45.6943 -12.9912 42.4869 -10.3236 39.8653 -7.12652C38.4553 -5.52652 37.0954 -3.88651 35.5954 -2.36651C34.0954 -0.84651 32.5354 0.633448 31.0554 2.15345C27.9569 5.36109 25.4785 9.11424 23.7453 13.2235C20.1236 22.0041 17.1164 31.0259 14.7453 40.2235C14.0224 42.5296 13.471 44.886 13.0954 47.2734C12.8606 49.5588 12.7803 51.8573 12.8553 54.1535C12.8096 56.3841 13.0448 58.6116 13.5554 60.7835ZM15.0554 52.3835C15.0068 50.1957 15.1743 48.0084 15.5554 45.8535C15.9954 43.6335 16.7254 41.4435 17.3254 39.2635C17.9254 37.0835 18.5254 34.8735 19.1454 32.6835C20.3954 28.3235 21.8253 24.0435 23.4953 19.8235C25.0753 15.8235 26.5454 11.7435 28.9554 8.16346C31.2354 4.79346 34.3554 2.16347 37.1854 -0.766535C42.4354 -6.09653 47.0054 -13.3866 55.0854 -14.4766C56.9387 -14.67 58.8032 -14.7335 60.6654 -14.6666C64.3854 -14.0066 66.7954 -9.66655 67.4554 -6.28655C67.8661 -4.26819 68.4653 -2.29283 69.2453 -0.38653C69.9767 1.62172 70.3359 3.74645 70.3054 5.88349C70.3736 10.3031 69.7666 14.7072 68.5054 18.9435C67.2854 23.1035 65.3354 27.0035 64.0254 31.1435C62.6034 35.1402 62.1409 39.4152 62.6754 43.6235C62.9654 45.3635 63.4454 47.0535 63.6754 48.8035C63.9303 50.666 64.0606 52.5435 64.0654 54.4235C64.1647 58.1556 63.5363 61.8715 62.2154 65.3635C61.6643 67.0052 60.6158 68.4347 59.2154 69.4535C57.6554 70.4535 56.0054 71.2635 54.5054 72.3635C51.454 74.7997 48.0909 76.8175 44.5054 78.3635C41.2054 79.6135 37.6654 79.4935 34.2054 79.1235C28.1054 78.4635 22.0954 76.0235 19.2054 70.2935C18.4248 68.5466 17.7827 66.7411 17.2854 64.8935C16.5774 62.9565 15.983 60.9797 15.5054 58.9735C15.1271 56.7916 14.9763 54.5764 15.0554 52.3635V52.3835Z" fill="#E2DAC3"/>
<path d="M48.175 62.0036C50.0823 60.2145 51.5417 58.0014 52.435 55.5436C53.285 52.9136 52.875 50.0536 52.805 47.3436C52.6753 41.0134 53.6638 34.7101 55.725 28.7236C56.915 25.1936 57.305 21.4836 58.225 17.8936C59.005 14.7936 59.9649 11.6136 59.5049 8.38361C58.7549 3.06361 54.6549 -1.40641 49.1349 -1.56641C46.8249 -1.47641 45.585 0.373584 44.475 2.17358C42.915 4.71358 40.985 7.0436 39.285 9.5036C35.6273 14.6772 32.492 20.2009 29.925 25.9936C27.3816 31.7249 25.6515 37.7835 24.785 43.9936C24.435 46.7736 24.365 49.6236 24.225 52.4236C23.9523 54.8725 24.321 57.3502 25.295 59.6136C29.495 68.0636 41.915 68.0236 48.175 62.0036ZM26.7649 47.2036C26.9549 41.4836 28.6249 35.6636 30.6049 30.3136C32.8308 24.51 35.6844 18.967 39.1149 13.7836C40.9149 11.0036 42.855 8.31361 44.805 5.63361C45.515 4.63361 46.165 3.69359 46.805 2.68359C47.345 1.83359 48.0249 0.683594 49.1349 0.683594C53.6649 0.813594 56.935 4.76359 57.345 9.11359C57.595 11.8236 56.7649 14.5036 56.1049 17.1136C55.3949 19.8736 55.015 22.7036 54.335 25.4636C53.655 28.2236 52.545 30.9736 51.905 33.8136C51.2949 36.5222 50.8938 39.2736 50.705 42.0436C50.56 44.6749 50.56 47.3123 50.705 49.9436C50.964 52.4075 50.4539 54.8911 49.2449 57.0536C48.1501 58.9839 46.6058 60.6218 44.7431 61.8282C42.8804 63.0346 40.7543 63.7739 38.545 63.9836C34.795 64.3436 30.7749 63.2736 28.3649 60.2136C25.4149 56.4836 26.6249 51.5536 26.7649 47.2036Z" fill="#E2DAC3"/>
</svg>
