<svg width="134" height="175" viewBox="0 0 134 175" fill="none" xmlns="http://www.w3.org/2000/svg">
<path d="M258.221 79.5167C256.965 80.2831 255.748 80.1521 254.353 80.3493C252.837 80.6725 251.376 81.2121 250.015 81.9514C246.925 83.3251 243.299 83.3874 239.968 83.0725C233.365 82.4182 226.907 79.4705 221.249 76.1156C218.294 74.3629 215.479 72.3833 212.829 70.1947C210.117 67.9439 207.792 65.301 205.289 62.88C202.64 60.3216 199.717 58.0284 197.204 55.3374C194.691 52.6464 192.201 49.6167 189.706 46.7639C183.004 39.1012 175.276 29.5061 164.078 29.4162C158.248 29.3736 153.259 32.236 148.844 35.8315C146.203 37.9685 143.756 40.3353 141.532 42.9041C139.108 45.6759 136.965 48.6791 134.5 51.4199C132.034 54.1606 129.504 56.8119 127.227 59.707C124.958 62.6584 122.985 65.8259 121.336 69.1637C119.713 72.3506 118.227 75.6032 116.589 78.7891C114.867 82.1004 112.875 85.2643 110.634 88.2487C108.496 91.0324 106.676 94.0459 105.207 97.2333C103.679 100.696 101.847 104.025 100.115 107.36C96.5447 114.184 92.9609 121.003 89.3634 127.817C82.514 140.795 75.4163 153.672 70.2638 167.451C68.9182 170.957 67.3876 174.389 65.6785 177.733C64.1002 180.88 62.5896 184.074 60.9427 187.189C59.2958 190.303 57.3667 192.973 56.2635 196.223C55.6855 197.871 55.3427 199.606 54.9106 201.299C54.4229 203.187 53.9342 205.089 53.5302 206.997C52.3212 212.955 52.7457 219.13 54.7587 224.867C56.2616 228.944 58.4923 232.714 61.3424 235.994C63.6947 238.909 66.243 241.661 68.9698 244.229C71.2863 246.361 74.2942 249.178 77.6074 249.442C78.2148 249.504 78.8285 249.427 79.4016 249.216C79.9746 249.005 80.4918 248.666 80.9133 248.224C81.8703 247.161 80.3899 245.453 79.432 246.53C77.7177 248.428 74.4388 245.849 72.8559 244.617C69.9194 242.213 67.2222 239.531 64.8022 236.608C62.5176 234.152 60.5117 231.451 58.8209 228.554C55.9411 223.144 54.6756 217.021 55.1747 210.912C55.6097 207.526 56.324 204.182 57.3104 200.914C57.6546 199.303 58.1111 197.719 58.6764 196.172C59.3674 194.559 60.1729 192.998 61.0866 191.5C62.8577 188.436 64.3532 185.255 65.9456 182.109C67.5379 178.963 69.1858 175.728 70.6306 172.458C72.0753 169.188 73.2067 165.834 74.5677 162.545C75.9287 159.255 77.4026 156.08 78.9009 152.856C81.9831 146.401 85.3749 140.086 88.7478 133.735C92.2612 127.12 95.7571 120.484 99.2355 113.828L104.46 103.838C106.005 100.88 107.215 97.722 108.842 94.8117C110.591 91.6475 113.043 88.8917 115.064 85.9016C117.011 82.8763 118.74 79.7166 120.239 76.4466C121.826 73.1723 123.372 69.881 125.184 66.7281C127.017 63.6064 129.16 60.6774 131.58 57.9855C133.904 55.3416 136.342 52.7975 138.614 50.0934C140.885 47.3893 142.872 44.6024 145.314 42.0941C149.461 37.8429 154.593 33.2749 160.58 32.0241C171.159 29.8119 179.418 38.4645 185.699 45.6455L193.197 54.2189C195.595 56.9156 198.156 59.4631 200.865 61.8471C203.426 64.1373 205.701 66.6777 208.186 69.0479C210.522 71.2717 213.019 73.3195 215.657 75.1746C220.976 78.9427 226.837 81.8796 233.04 83.8847C238.799 85.7156 245.714 86.3766 251.365 83.7993C252.637 83.116 254.024 82.6731 255.456 82.4926C256.762 82.4978 258.048 82.1691 259.191 81.5376C260.417 80.7975 259.448 78.7625 258.221 79.5167Z" fill="#124635"/>
<path d="M227.264 93.0021C223.016 91.0213 218.963 88.6456 215.159 85.9064C212.953 84.3556 210.787 82.7296 208.619 81.1318C206.329 79.4408 203.954 77.8646 201.797 76.0053C197.654 72.4541 194.161 68.2164 190.064 64.6116C186.799 61.7285 183.065 58.9629 178.818 57.8284C174.724 56.8186 170.429 56.9682 166.415 58.2604C156.483 61.3805 149.303 69.2414 141.825 76.0478C137.913 79.4645 134.257 83.1638 130.886 87.1159C127.646 91.1182 124.827 95.4443 122.475 100.025C117.506 109.686 112.78 119.319 106.485 128.253C100.057 137.369 94.9331 147.324 89.1993 156.869C86.361 161.583 83.6734 166.378 80.8352 171.093C78.4279 175.085 75.4892 178.758 73.2381 182.852C71.131 187.003 69.6406 191.44 68.8139 196.021C67.6579 200.732 67.3199 205.607 67.8146 210.433C68.3517 214.596 70.12 218.504 72.8929 221.655C75.6658 224.807 79.3169 227.058 83.3779 228.121C85.5411 228.702 87.7622 229.041 90.0003 229.131C91.4114 229.225 91.5916 226.955 90.1438 226.879C81.5739 226.483 73.4489 222.191 70.7932 213.58C69.4132 209.101 69.6767 204.314 70.3936 199.741C70.7802 197.354 71.2979 194.989 71.9444 192.659C72.4935 190.4 73.2268 188.19 74.1368 186.052C75.9919 181.945 78.8129 178.335 81.2813 174.595C84.0883 170.346 86.4693 165.793 89.093 161.426C91.9416 156.663 94.8165 151.929 97.5353 147.094C100.147 142.485 102.791 137.913 105.613 133.545C108.436 129.177 111.565 124.979 114.212 120.471C116.86 115.964 119.337 111.14 121.705 106.451C123.885 101.876 126.364 97.4488 129.126 93.1992C131.999 89.0247 135.295 85.158 138.962 81.6605C142.785 78.0114 146.742 74.4704 150.65 70.9332C154.182 67.5172 158.161 64.5959 162.477 62.2491C166.362 60.1847 170.737 59.2203 175.13 59.4598C179.363 59.7429 182.957 61.7408 186.26 64.2721C190.501 67.5109 193.985 71.585 197.799 75.2772C201.613 78.9694 205.9 81.8358 210.107 84.9449C217.279 90.2436 225.108 95.565 233.91 97.6845C235.733 98.1519 237.608 98.3869 239.49 98.3837C240.93 98.3596 241.088 96.1094 239.634 96.1326C235.309 96.2615 231.116 94.7479 227.264 93.0021Z" fill="#124635"/>
<path d="M217.721 103.859C213.117 102.24 209.696 99.2398 206.011 96.1656C202.326 93.0915 198.452 89.9835 194.581 87.0316C190.847 84.0833 186.768 81.6019 182.432 79.6424C169.531 74.0809 155.313 82.9028 146.223 91.6496C139.703 98.1072 133.96 105.306 129.113 113.098C126.438 117.27 124.147 121.653 121.657 125.93C119.167 130.207 116.429 134.58 114.169 139.121C113.049 141.349 112.176 143.707 110.988 145.889C109.751 148.024 108.38 150.079 106.885 152.042C104.1 155.963 101.725 160.16 99.7963 164.565C95.8849 173.138 92.44 181.917 89.4766 190.862C88.1888 194.645 87.235 198.734 87.6941 202.783C88.237 206.712 89.7175 210.452 92.0107 213.688C93.7584 216.051 95.8802 218.113 98.2924 219.792C100.291 221.272 102.927 222.873 105.532 222.388C106.779 222.122 107.88 221.396 108.616 220.355C109.5 219.209 107.62 217.971 106.743 219.11C105.122 221.205 102.401 219.826 100.628 218.679C98.4597 217.279 96.4979 215.583 94.799 213.641C92.3181 210.638 90.6764 207.031 90.0411 203.188C89.3543 199.365 90.3758 195.429 91.5695 191.781C94.4086 183.202 97.676 174.771 101.359 166.519C103.175 162.171 105.438 158.024 108.112 154.144C109.456 152.264 110.856 150.415 112.086 148.45C113.194 146.492 114.186 144.472 115.056 142.398C117.197 138.005 119.558 133.724 122.129 129.569C124.534 125.499 126.728 121.308 129.174 117.269C133.953 109.242 139.611 101.772 146.042 94.9966C150.437 90.3475 155.592 86.4815 161.285 83.5645C166.848 80.8112 173.366 79.1495 179.507 81.0059C183.707 82.3003 187.586 84.8063 191.137 87.347C194.826 90.0457 198.342 93.0022 201.915 95.8421C205.488 98.682 208.691 101.873 212.602 104.111C216.513 106.35 220.8 107.41 225.05 108.289C227.042 108.713 229.045 109.074 231.061 109.329C232.525 109.484 232.645 107.266 231.211 107.085C226.614 106.488 222.092 105.406 217.721 103.859Z" fill="#124635"/>
<path d="M197.817 111.662C192.018 107.554 187.304 101.966 180.776 98.9072C177.967 97.5407 174.904 96.7779 171.783 96.668C168.662 96.5581 165.552 97.1036 162.655 98.2692C159.64 99.5771 157.365 101.806 154.853 103.87C151.935 106.276 148.911 108.576 146.21 111.244C140.67 116.727 137.93 124.212 133.762 130.687C131.508 134.186 128.945 137.331 126.494 140.711C124.263 143.799 122.314 147.082 120.671 150.519C117.445 157.326 115.238 164.57 111.952 171.324C108.978 177.539 106.056 183.828 104.953 190.664C104.208 193.952 104.246 197.37 105.067 200.641C105.887 203.912 107.466 206.943 109.676 209.491C112.226 212.574 117.075 216.052 121.343 215.388C122.387 215.219 123.354 214.735 124.115 214C125.146 212.992 123.665 211.298 122.633 212.306C119.623 215.244 113.947 210.896 111.846 208.615C109.754 206.319 108.216 203.574 107.351 200.59C106.58 197.462 106.505 194.203 107.132 191.043C108.163 184.628 110.889 178.63 113.746 172.784C116.823 166.413 119.024 159.679 121.893 153.237C123.358 149.911 125.118 146.722 127.15 143.71C129.27 140.528 131.712 137.594 133.919 134.482C136.085 131.348 138.068 128.093 139.858 124.731C141.608 121.566 143.143 118.218 145.436 115.402C147.754 112.739 150.336 110.316 153.141 108.171C154.483 107.077 155.852 106 157.181 104.877C158.386 103.761 159.65 102.712 160.97 101.735C165.987 98.3574 172.382 98.2111 177.948 100.171C185.246 102.743 190.295 109.047 196.43 113.433C202.807 117.866 210 120.989 217.593 122.623C218.997 122.937 219.701 120.78 218.309 120.495C210.966 118.92 204.004 115.919 197.817 111.662Z" fill="#124635"/>
<path d="M188.495 123.455C184.228 120.718 180.405 116.94 175.721 114.926C171.635 113.185 166.761 113.795 162.583 114.593C160.339 114.948 158.138 115.538 156.016 116.35C153.54 117.446 151.322 119.05 149.507 121.06C145.739 125.166 143.272 130.26 140.282 134.907C137.293 139.555 134.118 144.006 131.574 148.874C128.908 153.983 126.732 159.393 124.519 164.716C123.531 167.095 122.367 169.441 122.199 172.059C122.058 174.388 122.278 176.706 122.011 179.013C121.362 184.058 121.424 189.583 124.946 193.716C128.08 197.405 133.205 197.812 137.715 198.092C138.002 198.093 138.279 197.984 138.489 197.787C138.699 197.59 138.826 197.321 138.845 197.034C138.863 196.747 138.771 196.464 138.588 196.242C138.405 196.021 138.144 195.877 137.858 195.841C134.223 195.619 129.796 195.479 127.062 192.702C123.851 189.426 123.618 184.436 124.152 180.169C124.393 178.026 124.49 175.868 124.442 173.711C124.49 171.386 125.035 169.099 126.039 167.001C128.097 161.972 130.238 156.977 132.51 152.041C134.867 147.373 137.559 142.882 140.567 138.604C143.428 134.281 145.825 129.701 148.821 125.5C150.268 123.375 152.06 121.507 154.123 119.973C156.178 118.613 158.484 117.676 160.905 117.216C164.88 116.277 169.379 115.437 173.413 116.479C175.831 117.264 178.078 118.499 180.037 120.118C182.192 121.701 184.286 123.337 186.52 124.797C188.783 126.39 191.186 127.774 193.699 128.934C195.974 129.88 198.587 130.118 200.518 131.764C201.625 132.696 202.85 130.815 201.757 129.884C199.92 128.315 197.51 127.899 195.286 127.134C192.887 126.176 190.608 124.941 188.495 123.455Z" fill="#124635"/>
</svg>
