<svg width="191" height="461" viewBox="0 0 191 461" fill="none" xmlns="http://www.w3.org/2000/svg">
<path d="M20.0138 452.969C19.7676 450.517 20.8505 448.774 21.5662 446.524C22.1789 444.002 22.4247 441.405 22.2962 438.814C22.4642 433.155 25.0052 427.634 27.9025 422.832C33.6917 413.332 42.8432 405.713 52.0293 399.596C56.8283 396.4 61.8682 393.581 67.1037 391.163C72.4794 388.695 78.1663 387.096 83.6469 385.068C89.4419 382.918 95.034 380.164 100.93 378.315C106.827 376.467 113.219 374.898 119.347 373.194C135.807 368.616 155.935 363.887 164.21 347.041C168.512 338.268 167.809 328.662 165.58 319.395C164.268 313.86 162.467 308.452 160.198 303.236C157.768 297.569 154.784 292.16 152.43 286.454C150.077 280.749 147.906 275.01 145.183 269.476C142.368 263.915 139.012 258.643 135.162 253.739C131.522 248.982 127.683 244.384 124.055 239.607C120.299 234.611 116.961 229.314 114.077 223.77C111.42 218.528 108.186 213.599 104.433 209.075C100.307 204.262 96.6037 199.088 92.8185 194.058C85.0919 183.73 77.3838 173.385 69.6943 163.023C55.0438 143.29 40.7277 123.256 23.6325 105.506C19.3085 100.938 15.2307 96.144 11.4162 91.144C7.80333 86.4837 4.07007 81.8916 0.556927 77.1514C-2.95621 72.4112 -5.59261 67.5663 -9.70597 63.5491C-11.7784 61.484 -14.1526 59.7115 -16.3993 57.834C-18.9001 55.7317 -21.4216 53.6177 -24.0132 51.6275C-32.1461 45.491 -41.793 41.6652 -51.9328 40.5549C-59.1913 39.875 -66.5148 40.5162 -73.5468 42.4474C-79.6654 43.8909 -85.6787 45.7489 -91.5449 48.0088C-96.4533 49.9647 -102.899 52.4697 -105.706 57.2821C-106.243 58.154 -106.572 59.1365 -106.67 60.1546C-106.767 61.1727 -106.629 62.1993 -106.268 63.1555C-105.356 65.3695 -101.697 64.3694 -102.63 62.1438C-104.254 58.1816 -97.9702 55.0959 -94.9554 53.5971C-89.1861 50.9012 -83.1697 48.7682 -76.9903 47.228C-71.6155 45.5547 -66.0725 44.4795 -60.4624 44.0218C-50.1869 43.5867 -40.0061 46.1054 -31.1304 51.2783C-26.3255 54.3847 -21.787 57.8827 -17.5611 61.7367C-15.3755 63.4217 -13.3109 65.2573 -11.3824 67.2301C-9.44539 69.4404 -7.66937 71.7863 -6.06809 74.2498C-2.72207 79.1407 1.00217 83.7005 4.60335 88.3815C8.20454 93.0624 11.8991 97.8912 15.794 102.438C19.6889 106.985 23.9397 111.121 27.9254 115.556C31.911 119.991 35.6425 124.514 39.4288 129.109C46.9518 138.433 54.0363 148.123 61.1901 157.812C68.6419 167.904 76.1369 177.983 83.6749 188.051L94.9865 203.169C98.3381 207.642 102.234 211.754 105.453 216.315C108.967 221.246 111.353 226.943 114.406 232.159C117.567 237.287 121.089 242.184 124.945 246.814C128.743 251.579 132.598 256.294 136.049 261.312C139.438 266.338 142.31 271.693 144.622 277.296C146.932 282.718 149.008 288.24 151.446 293.627C153.885 299.014 156.656 304.03 158.674 309.533C162.09 318.871 165.269 329.925 162.809 339.871C158.465 357.449 139.376 363.661 123.951 367.951L105.535 373.073C99.7131 374.744 93.9991 376.768 88.4245 379.135C83.0993 381.345 77.6036 382.943 72.2129 384.981C67.1521 386.9 62.2401 389.189 57.5171 391.831C47.9523 397.138 39.2504 403.865 31.7099 411.781C24.7546 419.154 18.729 429.119 18.52 439.517C18.6288 441.932 18.2907 444.347 17.5225 446.641C16.5652 448.609 16.128 450.789 16.2522 452.972C16.4805 455.359 20.2627 455.367 20.0138 452.969Z" fill="#DA8953"/>
<path d="M22.1187 396.462C28.2021 391.479 34.7406 387.078 41.648 383.315C45.5972 381.105 49.6307 379.01 53.623 376.892C57.8443 374.658 61.9544 372.211 66.3347 370.298C74.716 366.612 83.6646 364.401 92.0935 360.823C98.8273 357.977 105.724 354.339 110.527 348.746C115.03 343.293 117.925 336.7 118.888 329.703C121.388 312.447 114.718 295.917 109.859 279.699C107.535 271.32 104.597 263.123 101.07 255.174C97.372 247.385 92.8779 239.999 87.6587 233.133C76.6604 218.64 65.5254 204.533 56.5899 188.563C47.4748 172.261 36.1434 157.322 25.8748 141.757C20.8078 134.061 15.509 126.533 10.4421 118.836C6.15436 112.313 2.73529 105.218 -1.82104 98.8564C-6.56791 92.6712 -12.1942 87.2109 -18.5224 82.6481C-24.8073 77.4941 -31.9342 73.4571 -39.5921 70.7132C-46.2788 68.5124 -53.4743 68.3559 -60.2559 70.2636C-67.0376 72.1713 -73.0962 76.0563 -77.6549 81.4204C-80.1061 84.2667 -82.2327 87.3759 -83.9955 90.6907C-85.1639 92.7534 -81.8617 94.6678 -80.6951 92.5361C-73.8675 79.8806 -61.4703 70.7155 -46.5169 72.9345C-38.7398 74.0907 -31.691 77.952 -25.2964 82.3427C-21.9666 84.6536 -18.7671 87.1459 -15.7123 89.8083C-12.6955 92.2714 -9.88643 94.9773 -7.31319 97.899C-2.45039 103.671 0.958863 110.543 4.82086 116.976C9.20622 124.289 14.3623 131.179 19.0603 138.3C24.1937 146.048 29.2625 153.814 34.5999 161.418C39.6724 168.696 44.664 175.997 49.2191 183.419C53.7742 190.841 57.8495 198.604 62.7424 205.863C67.6353 213.121 73.1299 220.352 78.4998 227.321C83.8357 233.923 88.7293 240.869 93.149 248.114C97.3745 255.473 100.827 263.248 103.451 271.316C106.192 279.729 108.671 288.267 111.18 296.727C113.779 304.532 115.306 312.654 115.717 320.871C116.016 328.231 114.295 335.536 110.74 341.996C107.235 348.184 101.601 352.166 95.372 355.324C87.3911 359.385 78.6975 361.699 70.3415 364.787C61.9855 367.876 54.5344 372.276 46.7744 376.381C33.548 383.378 19.8093 391.352 10.2064 403.111C8.17443 405.526 6.45635 408.188 5.09313 411.033C4.08285 413.225 7.37151 415.091 8.39347 412.878C11.3417 406.254 16.6787 401.016 22.1187 396.462Z" fill="#DA8953"/>
<path d="M12.635 374.197C18.4302 368.415 25.4533 365.419 32.781 362.078C40.1087 358.737 47.6251 355.135 54.9026 351.425C62.0753 347.919 68.7935 343.554 74.9078 338.424C92.6962 322.964 89.688 295.11 83.0658 275.056C78.0385 260.537 71.3254 246.657 63.0635 233.699C58.697 226.642 53.7347 220.011 49.0762 213.156C44.4176 206.302 39.7924 199.004 34.5679 192.307C32.0118 189.003 29.0801 185.978 26.6444 182.607C24.3145 179.193 22.2026 175.637 20.321 171.958C16.4143 164.916 11.794 158.293 6.53269 152.194C-3.59041 140.085 -14.3628 128.532 -25.7375 117.585C-30.5234 112.904 -36.0145 108.505 -42.4718 106.269C-48.8081 104.247 -55.5409 103.777 -62.1015 104.899C-66.9455 105.829 -71.6059 107.542 -75.8986 109.97C-79.5899 111.917 -83.9264 114.739 -85.0865 119.024C-85.591 121.1 -85.2934 123.288 -84.2531 125.153C-83.1634 127.317 -79.9238 125.374 -81.0091 123.225C-83 119.261 -78.9356 116.149 -75.9135 114.301C-72.2202 112.04 -68.2293 110.304 -64.0565 109.144C-57.7116 107.57 -51.0643 107.7 -44.7903 109.521C-38.5088 111.249 -33.2988 115.639 -28.6494 120.081C-17.7382 130.575 -7.36172 141.608 2.4411 153.14C7.69716 159.028 12.325 165.446 16.2502 172.29C18.1164 175.681 19.8946 179.131 21.9738 182.411C24.1282 185.501 26.4637 188.46 28.968 191.275C34.0541 197.686 38.8139 204.349 43.2295 211.237C47.6366 217.814 52.3798 224.159 56.7106 230.774C65.3771 243.798 72.5629 257.746 78.1355 272.361C81.9726 282.361 84.073 292.942 84.3464 303.651C84.467 314.044 82.2431 325.089 74.9724 333.019C69.9614 338.427 63.3521 342.472 56.9288 345.996C50.166 349.615 43.1393 352.785 36.2472 356.127C29.3552 359.469 22.202 361.997 15.9734 366.283C9.74482 370.57 5.0266 376.279 0.607409 382.061C-1.48087 384.761 -3.48211 387.525 -5.33422 390.386C-6.63189 392.485 -3.36568 394.27 -2.05007 392.236C2.19509 385.724 7.11745 379.678 12.635 374.197Z" fill="#DA8953"/>
<path d="M15.3 338.493C25.7282 332.708 37.606 329.631 46.9767 321.985C51.0845 318.733 54.4648 314.658 56.8995 310.024C59.3342 305.39 60.7693 300.3 61.1122 295.081C61.3251 289.582 59.6075 284.534 58.3113 279.247C56.7935 273.1 55.5138 266.87 53.4418 260.86C49.1757 248.527 39.8473 238.974 33.0838 227.996C29.4301 222.061 26.5362 215.915 23.2068 209.768C20.1568 204.165 16.6084 198.848 12.6042 193.88C4.65375 184.083 -4.69833 175.51 -12.5239 165.661C-19.7614 156.674 -27.1488 147.711 -36.6865 141.101C-41.1179 137.596 -46.3154 135.182 -51.8583 134.054C-57.4011 132.927 -63.1337 133.118 -68.5921 134.612C-75.1091 136.234 -83.8932 141.04 -85.9909 147.966C-86.4953 149.665 -86.4658 151.476 -85.9064 153.156C-85.1311 155.443 -81.493 154.431 -82.2683 152.144C-84.5243 145.473 -73.8223 140.046 -68.8458 138.523C-63.8523 137.025 -58.5824 136.689 -53.4414 137.541C-48.1506 138.639 -43.1674 140.884 -38.8441 144.116C-29.8911 150.315 -22.8016 158.77 -16.0355 167.315C-8.63637 176.57 -0.0513423 184.765 7.60562 193.758C11.571 198.377 15.1144 203.341 18.1934 208.591C21.4656 214.093 24.1268 219.904 27.2301 225.488C30.3949 231.025 33.8777 236.375 37.6612 241.511C41.1751 246.442 45.124 251.183 47.7162 256.683C50.0586 262.111 51.8461 267.762 53.0515 273.55C53.7305 276.368 54.3656 279.215 55.0976 282.035C55.9094 284.661 56.576 287.33 57.0944 290.029C58.5571 300.049 54.1303 309.812 47.1203 316.801C37.927 325.962 24.7216 329.026 13.6296 335.117C2.29101 341.542 -7.66104 350.145 -15.6508 360.429C-17.1451 362.322 -14.3948 364.945 -12.9534 363.05C-5.23413 353.1 4.36508 344.757 15.3 338.493Z" fill="#DA8953"/>
<path d="M4.23969 315.885C11.4815 311.421 19.9732 308.381 26.424 302.764C32.0259 297.853 34.6466 290.051 36.4766 283.165C37.5694 279.518 38.278 275.768 38.5909 271.976C38.7346 267.444 37.9196 262.934 36.1989 258.74C32.7274 250.078 26.8169 242.668 21.961 234.791C17.1052 226.914 12.6815 218.899 7.16711 211.535C1.37889 203.813 -5.22241 196.613 -11.6647 189.42C-14.5442 186.207 -17.2466 182.753 -21.084 180.606C-24.5037 178.707 -28.1697 177.363 -31.4636 175.29C-38.6217 170.66 -47.0231 166.758 -55.8343 169.087C-63.6915 171.15 -68.0313 178.595 -71.7331 185.203C-71.9429 185.637 -71.9792 186.134 -71.8344 186.594C-71.6897 187.053 -71.3747 187.44 -70.9539 187.675C-70.5331 187.91 -70.0381 187.976 -69.5696 187.86C-69.1012 187.744 -68.6946 187.453 -68.4327 187.048C-65.4553 181.72 -62.0257 175.135 -55.8391 173.015C-48.5504 170.536 -40.8332 173.795 -34.7689 177.686C-31.7023 179.602 -28.5096 181.309 -25.2127 182.796C-21.7317 184.552 -18.6672 187.029 -16.2241 190.063C-10.1149 196.809 -4.11714 203.656 1.69735 210.658C7.04428 217.594 11.8789 224.909 16.163 232.545C20.6211 239.994 25.8069 246.928 29.9829 254.49C32.1451 258.213 33.668 262.271 34.4889 266.496C35.0507 270.584 34.7923 274.744 33.7287 278.733C32.2598 285.415 30.2598 292.818 25.7518 298.155C22.808 301.238 19.3071 303.739 15.4337 305.525C11.4738 307.635 7.47787 309.615 3.64541 311.932C-0.408292 314.197 -4.24867 316.824 -7.82885 319.78C-10.9132 322.532 -13.1734 326.306 -17.0659 328.031C-19.2793 329.029 -17.3241 332.239 -15.1223 331.262C-11.4149 329.622 -9.03362 326.284 -6.25998 323.479C-3.06767 320.549 0.456057 318 4.23969 315.885Z" fill="#DA8953"/>
</svg>
