<svg width="150" height="64" viewBox="0 0 150 64" fill="none" xmlns="http://www.w3.org/2000/svg">
<path d="M2.59224 36.0056C3.2135 37.848 3.98272 39.6372 4.89229 41.3557C5.85251 42.9351 7.00454 44.3895 8.32222 45.6857C9.72222 47.2057 10.4922 49.2257 11.8022 50.8357C12.9227 52.2476 14.1352 53.5838 15.4321 54.8357C21.4321 60.5557 30.5122 61.3557 38.3022 62.9757C42.6896 63.8895 47.185 64.1723 51.6523 63.8156C53.9623 63.6456 56.2622 63.1857 58.5822 63.0957C60.9022 63.0057 62.9623 63.3657 65.1523 63.1857C67.3423 63.0057 69.5322 62.4257 71.7522 62.3257C73.9722 62.2257 76.0421 62.1457 78.2121 61.8857C82.8406 61.4856 87.4893 61.3654 92.1323 61.5257C96.8023 61.5257 101.452 61.5257 106.132 61.6657C110.659 61.9008 115.196 61.8206 119.712 61.4257C128.401 60.3162 136.961 58.3636 145.272 55.5957C149.122 54.4322 152.855 52.9123 156.422 51.0557C159.889 49.1461 163.093 46.7929 165.952 44.0557C171.56 38.9604 175.843 32.5766 178.432 25.4557C179.787 21.5375 180.578 17.4466 180.782 13.3057C180.951 10.3361 180.814 7.35708 180.372 4.41568C180.251 3.21048 179.754 2.07381 178.952 1.16568C177.952 0.165684 176.322 1.73565 177.362 2.75565C178.152 3.52565 178.232 5.0257 178.362 6.0557C178.482 7.3057 178.482 8.5557 178.522 9.8057C178.741 15.4213 177.8 21.0217 175.758 26.2574C173.715 31.493 170.616 36.2515 166.652 40.2357C164.086 43.0047 161.199 45.4586 158.052 47.5457C154.74 49.6076 151.204 51.2851 147.512 52.5457C139.779 55.3094 131.809 57.3612 123.702 58.6757C115.032 60.0257 106.392 59.3157 97.7021 59.3257H84.0022C81.875 59.3375 79.7508 59.4844 77.6423 59.7657C75.5523 60.0157 73.4923 60.0057 71.3923 60.1557C69.2923 60.3057 67.4521 60.7857 65.4721 60.9657C63.2821 61.1657 61.0923 60.8457 58.9023 60.8957C56.7123 60.9457 54.7323 61.3657 52.6523 61.5457C50.4947 61.7407 48.3284 61.8208 46.1623 61.7857C41.7823 61.7057 37.5222 60.5157 33.2522 59.6557C29.2522 58.8457 24.9422 58.1156 21.2522 56.2556C18.1822 54.6956 15.8821 52.1856 13.7221 49.5656C12.4321 48.0056 11.7223 46.0956 10.3823 44.5656C9.12408 43.2975 7.99507 41.9074 7.01216 40.4157C3.01216 33.3357 1.92218 24.8357 2.28218 16.8357C2.38218 14.8357 3.28228 12.9557 3.13228 10.9257C3.01228 9.49569 0.762278 9.48569 0.882278 10.9257C1.04228 12.9257 0.0921802 15.0057 0.0321802 17.0757C-0.0478198 19.3357 0.0322974 21.6357 0.152297 23.8957C0.380328 28.0285 1.20203 32.107 2.59224 36.0056V36.0056Z" fill="#DA8953"/>
<path d="M13.7919 19.8357C14.0496 21.6874 14.4238 23.521 14.9121 25.3257C15.3521 26.9657 15.5721 28.6657 15.9121 30.3257C16.7597 33.4423 18.1768 36.375 20.092 38.9757C22.0519 41.7466 24.3049 44.298 26.812 46.5857C29.1567 48.8505 32.0521 50.4637 35.2119 51.2657C36.9319 51.7157 38.672 52.0457 40.382 52.5257C42.312 53.0657 44.2018 53.7057 46.1718 54.1057C47.8518 54.4557 49.342 55.1957 51.092 55.1957C52.0531 55.1439 53.0167 55.1774 53.9719 55.2957C54.9119 55.4557 55.8319 55.6857 56.7619 55.8757C58.5566 56.2949 60.3827 56.5658 62.2219 56.6857C64.2819 56.7757 66.3618 56.6857 68.4218 56.6857C72.3418 56.6857 76.3319 56.9857 80.2419 56.6857C81.8419 56.5657 83.4219 56.2657 85.0119 56.0657C87.0119 55.8257 89.0119 55.8957 91.0119 55.8357C98.8033 55.5453 106.557 54.6054 114.192 53.0257C121.707 51.5671 129.138 49.7043 136.452 47.4457C143.312 45.2757 148.972 41.1857 154.202 36.3257C157.076 33.7711 159.625 30.8727 161.792 27.6957C163.752 24.6174 165.356 21.3263 166.572 17.8857C168.472 12.6957 170.742 5.09573 166.662 0.36573C165.712 -0.72427 164.132 0.865695 165.072 1.9557C166.812 3.9557 166.772 6.95572 166.462 9.48572C166.088 12.0171 165.444 14.5012 164.542 16.8957C162.474 22.9595 159.027 28.4606 154.472 32.9657C149.532 37.7757 144.112 42.3757 137.532 44.7057C134.302 45.8557 130.952 46.7057 127.632 47.5557C124.072 48.5557 120.492 49.3857 116.892 50.1657C109.632 51.8045 102.257 52.8877 94.832 53.4057C91.162 53.6457 87.462 53.4057 83.832 53.9757C80.2985 54.3956 76.7388 54.556 73.1818 54.4557C69.5318 54.4557 65.8518 54.6057 62.1818 54.4557C58.5118 54.3057 55.1319 52.8757 51.5019 52.9557C49.7919 52.9557 48.3719 52.2957 46.7319 51.9557C44.9119 51.5857 43.162 51.0157 41.392 50.5057C38.012 49.5057 34.3919 49.1657 31.2819 47.3357C29.7681 46.3613 28.3923 45.1874 27.1918 43.8457C25.9818 42.5857 24.722 41.3257 23.582 39.9957C22.4007 38.5375 21.3498 36.9781 20.4418 35.3357C19.4819 33.8433 18.7347 32.2244 18.2219 30.5257C17.8119 28.9257 17.6019 27.2757 17.2219 25.6657C16.7919 23.7557 16.2219 21.9057 15.9819 19.9557C15.7308 17.9383 15.3738 15.9355 14.9121 13.9557C14.4121 12.0257 13.7818 10.1257 13.4418 8.15571C13.2018 6.73571 11.0319 7.33568 11.2719 8.75568C11.5819 10.5057 12.102 12.1957 12.572 13.9057C13.0984 15.8558 13.5058 17.8361 13.7919 19.8357Z" fill="#DA8953"/>
<path d="M35.0523 22.4059C35.7911 24.7337 36.7175 26.9978 37.8223 29.1759C38.8899 31.5918 40.2321 33.8769 41.8223 35.9859C43.4966 37.9235 45.3443 39.7042 47.3423 41.3059C49.439 43.126 51.8209 44.5888 54.3924 45.6358C60.0513 47.9676 66.0406 49.3983 72.1424 49.8758C84.7124 51.0258 97.6422 49.4558 109.942 46.8758C115.722 45.6658 121.482 44.3358 126.822 41.7558C131.779 39.2672 136.407 36.1736 140.602 32.5459C142.842 30.6759 144.942 28.6459 147.132 26.7259C149.383 24.9089 151.416 22.8386 153.192 20.5559C154.819 18.3639 155.715 15.7154 155.752 12.9859C155.752 11.7559 155.952 10.5059 155.902 9.27585C155.832 7.87585 155.582 6.86586 154.092 6.59586C152.602 6.32586 152.092 8.50584 153.492 8.76584H153.622C153.713 9.62152 153.693 10.4853 153.562 11.3359C153.556 12.5393 153.479 13.7414 153.332 14.9359C152.758 17.2559 151.562 19.3752 149.872 21.0658C148.272 22.7858 146.462 24.2959 144.702 25.8559C142.792 27.5359 140.962 29.2959 139.012 30.9359C135.058 34.334 130.711 37.2448 126.062 39.6059C121.062 42.0659 115.692 43.3259 110.272 44.4959C98.6823 46.9959 86.6222 48.4958 74.7422 47.8158C68.9011 47.5633 63.1292 46.4513 57.6123 44.5158C54.9761 43.6662 52.4867 42.4148 50.2322 40.8059C48.2883 39.2935 46.4444 37.6567 44.7122 35.9059C42.8858 33.8873 41.3907 31.5922 40.2823 29.1059C39.0459 26.7703 38.025 24.3268 37.2322 21.8059C35.8622 16.8759 36.2322 11.3459 32.9522 7.09586C32.0922 5.95586 30.1323 7.09587 31.0123 8.22587C34.0923 12.2859 33.7923 17.6659 35.0523 22.4059Z" fill="#DA8953"/>
</svg>
