<svg width="56" height="118" viewBox="0 0 56 118" fill="none" xmlns="http://www.w3.org/2000/svg">
<g opacity="0.45">
<path d="M54.2747 104.932C52.8247 104.682 51.9947 103.782 50.8147 103.012C49.4613 102.258 48.0063 101.702 46.4946 101.362C43.2646 100.362 40.4947 98.0224 38.1947 95.5924C33.6547 90.7523 30.7346 84.2824 28.6846 78.0324C27.6137 74.7672 26.7979 71.4238 26.2446 68.0324C25.6846 64.5524 25.6747 61.0324 25.3847 57.5624C25.0747 53.8924 24.3847 50.2424 24.2647 46.5624C24.1447 42.8824 24.2647 38.9624 24.2647 35.1724C24.2647 24.9924 24.7647 12.6824 16.3947 5.24237C12.0347 1.37237 6.39466 0.242355 0.704666 0.0423584C-2.69041 -0.0879898 -6.0904 0.0826874 -9.45537 0.552368C-13.1054 1.04237 -16.6953 1.89233 -20.3553 2.33234C-24.0153 2.77234 -27.6653 3.10235 -31.2853 3.78235C-34.9363 4.51015 -38.5069 5.59537 -41.9454 7.02234C-45.2654 8.35234 -48.5253 9.82233 -51.8553 11.1423C-55.3315 12.5011 -58.9136 13.5714 -62.5654 14.3423C-66.007 15.0304 -69.361 16.1004 -72.5654 17.5323C-75.9953 19.1323 -79.5654 20.4324 -83.0654 21.8024C-90.2453 24.589 -97.4321 27.3624 -104.625 30.1224C-118.325 35.3824 -132.145 40.4023 -145.095 47.3823C-148.416 49.1353 -151.828 50.7108 -155.315 52.1024C-158.575 53.4324 -161.815 54.8424 -165.105 56.1024C-168.395 57.3624 -171.605 58.1023 -174.575 59.8223C-176.095 60.6823 -177.495 61.7623 -178.935 62.7523C-180.545 63.8523 -182.165 64.9623 -183.725 66.1323C-188.558 69.8215 -192.304 74.7487 -194.565 80.3923C-196.118 84.4506 -196.921 88.7572 -196.935 93.1024C-197.084 96.8453 -196.977 100.594 -196.615 104.322C-196.275 107.452 -195.865 111.552 -193.545 113.932C-193.13 114.38 -192.617 114.726 -192.047 114.944C-191.476 115.163 -190.863 115.247 -190.255 115.192C-188.835 115.022 -188.825 112.762 -190.255 112.942C-192.795 113.242 -193.565 109.142 -193.945 107.172C-194.573 103.43 -194.838 99.6357 -194.735 95.8424C-194.838 92.4897 -194.57 89.136 -193.935 85.8424C-192.541 79.8741 -189.463 74.4317 -185.065 70.1624C-182.509 67.9 -179.77 65.853 -176.875 64.0424C-175.556 63.0567 -174.169 62.1645 -172.725 61.3724C-171.143 60.6133 -169.509 59.9683 -167.835 59.4423C-164.485 58.3023 -161.265 56.8923 -157.995 55.5723C-154.725 54.2523 -151.355 52.9023 -148.115 51.3923C-144.875 49.8823 -141.815 48.1023 -138.625 46.5223C-135.435 44.9423 -132.235 43.5223 -128.985 42.0823C-122.415 39.2523 -115.705 36.7324 -108.985 34.1724C-101.985 31.5057 -94.9854 28.8123 -87.9854 26.0923L-77.4754 22.0123C-74.3654 20.8023 -71.3754 19.2224 -68.2354 18.1024C-64.8354 16.8724 -61.1753 16.4124 -57.6853 15.4924C-54.2285 14.4966 -50.8467 13.2568 -47.5654 11.7823C-44.2154 10.3624 -40.8854 8.90235 -37.4454 7.72235C-34.0106 6.57928 -30.4694 5.78527 -26.8754 5.35236C-23.3854 4.89236 -19.8754 4.58236 -16.3854 4.04236C-12.8954 3.50236 -9.56536 2.71237 -6.07536 2.43237C-0.155365 1.96237 6.71463 1.90234 12.0446 4.90234C21.4646 10.2023 21.9846 22.1523 21.9846 31.6923V43.0823C22.0144 46.6909 22.2649 50.2944 22.7346 53.8724C23.1546 57.2824 23.1947 60.6924 23.5047 64.1124C23.7988 67.3239 24.3302 70.5092 25.0946 73.6423C26.6176 79.9804 29.096 86.0498 32.4447 91.6423C35.5747 96.8123 40.3446 101.862 46.2946 103.642C47.7019 103.965 49.0375 104.545 50.2346 105.352C51.2142 106.216 52.3984 106.815 53.6746 107.092C55.0846 107.342 55.6947 105.172 54.2747 104.932Z" fill="#DA8953"/>
<path d="M22.0944 94.7024C20.2007 90.4147 18.7142 85.9584 17.6544 81.3924C17.0144 78.7724 16.4545 76.1225 15.8745 73.4925C15.2645 70.7125 14.5144 67.9624 14.1144 65.1424C13.3344 59.7424 13.4944 54.2525 12.7844 48.8425C12.2244 44.5225 11.2344 39.9825 8.78442 36.3325C6.36745 32.877 3.03651 30.1624 -0.835571 28.4925C-10.3656 24.3025 -20.9455 25.4924 -31.0555 25.6924C-36.2496 25.6888 -41.4369 26.0665 -46.5756 26.8224C-51.6496 27.7017 -56.6192 29.1025 -61.4055 31.0024C-71.5055 35.0024 -81.4055 39.1425 -92.0255 41.7225C-102.866 44.3525 -113.276 48.4724 -123.876 51.8824C-129.116 53.5624 -134.296 55.4025 -139.536 57.0825C-143.976 58.5024 -148.606 59.3325 -152.996 60.9325C-157.315 62.67 -161.357 65.0282 -164.996 67.9325C-168.967 70.7176 -172.431 74.1644 -175.236 78.1225C-177.572 81.6098 -178.814 85.7155 -178.801 89.9131C-178.789 94.1108 -177.523 98.2091 -175.166 101.682C-173.92 103.544 -172.471 105.261 -170.846 106.802C-169.846 107.802 -168.215 106.212 -169.255 105.202C-175.445 99.2624 -178.736 90.6824 -175.066 82.4524C-173.156 78.1724 -169.805 74.7425 -166.255 71.7725C-164.393 70.2299 -162.446 68.7911 -160.426 67.4625C-158.525 66.1238 -156.519 64.9433 -154.426 63.9325C-150.326 62.0625 -145.826 61.2024 -141.505 60.0124C-136.595 58.6624 -131.806 56.8025 -126.956 55.2425C-121.676 53.5325 -116.396 51.8624 -111.166 50.0124C-106.166 48.2624 -101.166 46.5624 -96.1655 45.1324C-91.1655 43.7024 -86.0456 42.6024 -81.0856 40.9524C-76.1256 39.3024 -71.0856 37.3025 -66.2156 35.3325C-61.5626 33.3233 -56.7822 31.623 -51.9056 30.2425C-46.995 28.9915 -41.9683 28.2509 -36.9056 28.0325C-31.6256 27.8025 -26.3155 27.7425 -21.0455 27.6525C-16.1381 27.4065 -11.22 27.827 -6.42554 28.9025C-2.14229 29.9061 1.78561 32.0602 4.93445 35.1324C7.93445 38.1324 9.32447 42.0024 10.1445 46.0825C11.2045 51.3125 11.1445 56.6725 11.5845 61.9625C12.0245 67.2525 13.3644 72.2325 14.4844 77.3425C16.3944 86.0525 18.7845 95.2125 24.0145 102.602C25.0791 104.155 26.3357 105.566 27.7545 106.802C28.8545 107.732 30.4544 106.142 29.3444 105.202C26.0044 102.452 23.8444 98.5524 22.0944 94.7024Z" fill="#DA8953"/>
<path d="M7.76448 96.5923C5.36448 92.3423 4.76448 87.8323 4.01448 83.0923C3.26448 78.3523 2.39446 73.4622 1.42446 68.6922C0.554955 64.0149 -0.882313 59.4612 -2.85551 55.1322C-8.90551 42.4522 -25.4156 39.7323 -38.0155 40.3323C-47.1751 40.9003 -56.2366 42.5381 -65.0155 45.2123C-69.7755 46.5923 -74.3855 48.3823 -79.0755 49.9623C-83.7655 51.5423 -88.7055 53.0323 -93.3955 54.9623C-95.7055 55.9023 -97.9156 57.1023 -100.246 57.9623C-102.583 58.7548 -104.967 59.3994 -107.385 59.8923C-112.063 61.0107 -116.613 62.6057 -120.966 64.6523C-129.554 68.5304 -137.926 72.8701 -146.046 77.6523C-149.506 79.6523 -152.916 82.1023 -155.236 85.4523C-157.413 88.7668 -158.761 92.5569 -159.166 96.5022C-159.406 99.4315 -159.166 102.38 -158.456 105.232C-157.926 107.662 -156.996 110.602 -154.716 111.952C-153.602 112.573 -152.295 112.752 -151.056 112.452C-149.636 112.172 -150.235 110.002 -151.645 110.282C-154.245 110.792 -155.386 107.962 -155.966 105.932C-156.676 103.451 -157.036 100.883 -157.036 98.3023C-156.926 94.4086 -155.787 90.6133 -153.736 87.3023C-151.736 83.9723 -148.376 81.6823 -145.076 79.7223C-137.291 75.1339 -129.281 70.9386 -121.076 67.1523C-116.846 65.0749 -112.412 63.4428 -107.846 62.2823C-105.596 61.7523 -103.326 61.2823 -101.106 60.6123C-98.9829 59.8688 -96.9058 59.0006 -94.8855 58.0122C-90.3821 56.1161 -85.7864 54.4473 -81.1156 53.0122C-76.6256 51.5322 -72.2156 49.8223 -67.7156 48.3923C-58.8338 45.4964 -49.6572 43.5981 -40.3555 42.7323C-33.9869 42.126 -27.5616 42.6096 -21.3555 44.1623C-15.3555 45.7523 -9.35555 48.7923 -5.95555 54.2323C-3.64555 57.9723 -2.37553 62.4123 -1.37553 66.6623C-0.375532 71.1223 0.324488 75.6623 1.14449 80.1523C1.96449 84.6423 2.27446 89.1523 3.74446 93.4123C5.21446 97.6723 7.74446 101.292 10.3645 104.752C11.5845 106.382 12.8545 107.972 14.2045 109.492C15.2045 110.572 16.7545 108.982 15.7945 107.902C12.7268 104.426 10.0352 100.635 7.76448 96.5923Z" fill="#DA8953"/>
</g>
</svg>
