<svg width="83" height="143" viewBox="0 0 83 143" fill="none" xmlns="http://www.w3.org/2000/svg">
<path d="M18.9214 105.321C22.1933 107.055 25.566 108.591 29.0214 109.921C32.5814 111.361 36.3015 112.621 39.5915 114.631C42.8815 116.641 45.7014 118.931 49.0214 120.681C52.6114 122.571 56.2714 124.291 59.7614 126.351C63.2419 128.455 66.8488 130.341 70.5614 132.001C72.3313 132.787 74.1404 133.481 75.9815 134.081C77.8315 134.681 79.7214 135.081 81.5414 135.801C85.1514 137.151 88.5414 138.981 92.2814 140.041C95.877 141.195 99.5539 142.077 103.281 142.681C106.771 143.309 110.368 142.906 113.631 141.521C116.355 140.059 118.759 138.066 120.701 135.661C125.231 130.561 129.891 125.661 132.561 119.251C133.869 115.73 134.797 112.079 135.331 108.361C135.711 106.361 136.331 104.361 136.531 102.361C136.731 100.361 136.791 98.3611 136.971 96.3611C137.331 92.3611 138.121 88.5011 138.361 84.5111C138.601 80.5211 138.601 76.4312 138.461 72.4012C138.321 68.3712 138.031 64.3411 137.691 60.3211C137.462 56.3245 137.001 52.3446 136.311 48.4012C135.501 44.4912 134.311 40.6611 133.501 36.7511C132.68 33.0029 131.464 29.3524 129.871 25.8611C128.424 22.3778 126.575 19.0755 124.361 16.0212C122.295 13.4425 119.777 11.2604 116.931 9.58115C114.341 7.97115 111.511 6.92112 108.831 5.49112C106.461 4.22112 104.211 2.75112 101.771 1.61112C99.7114 0.611116 97.4215 -0.258862 95.1115 0.0711378C95.0221 0.0565789 94.9309 0.0565789 94.8415 0.0711378C81.0915 3.33114 66.7714 4.48112 53.4314 9.36112C46.5861 12.0042 40.1359 15.5742 34.2614 19.9712C28.089 24.4693 22.1794 29.3172 16.5614 34.4911C6.74143 43.4911 0.2014 56.0211 0.0314004 69.4911C-0.0685996 76.7211 -0.13857 84.4912 3.31143 91.0912C6.61143 97.3212 12.8714 102.011 18.9214 105.321ZM4.12149 57.8412C6.01871 51.7192 9.14204 46.0473 13.3014 41.1711C17.6914 35.9711 23.1514 31.6912 28.4114 27.4112C34.138 22.6054 40.3285 18.3812 46.8914 14.8011C59.0014 8.44112 72.9814 6.75113 86.2614 4.25113C89.3314 3.67113 92.3914 3.06116 95.4314 2.34116C97.7114 1.91116 100.341 3.42112 102.271 4.43112C104.401 5.56112 106.411 6.93114 108.591 7.95114C114.381 10.6511 120.251 13.4911 123.731 19.1311C125.747 22.3652 127.464 25.7759 128.861 29.3211C130.119 32.8378 131.122 36.4405 131.861 40.1012C132.761 43.8612 133.931 47.5711 134.501 51.3911C135.071 55.2111 135.301 59.1011 135.601 62.9411C136.313 70.6774 136.43 78.4569 135.951 86.2112C135.661 90.0312 134.831 93.7911 134.581 97.6111C134.538 99.5096 134.375 101.403 134.091 103.281C133.711 105.281 133.221 107.181 132.861 109.151C132.347 112.726 131.368 116.219 129.951 119.541C128.526 122.569 126.699 125.39 124.521 127.931C122.521 130.301 120.421 132.631 118.331 134.931C116.241 137.231 113.971 139.271 111.041 140.171C107.531 141.241 103.681 140.691 100.171 139.901C96.5969 139.144 93.0838 138.121 89.6614 136.841C86.2114 135.491 82.9115 133.771 79.3315 132.771C75.5965 131.738 71.9672 130.355 68.4915 128.641C65.0515 126.941 61.8015 124.921 58.4915 123.081C55.1815 121.241 51.4915 119.691 48.2215 117.711C45.1515 115.891 42.4015 113.561 39.2215 111.891C35.9625 110.306 32.6248 108.887 29.2215 107.641C22.5515 104.941 16.0814 101.741 10.7514 96.8111C8.15793 94.5428 6.07833 91.7472 4.6514 88.6111C3.36351 85.3631 2.63006 81.922 2.48147 78.4311C2.06147 71.4811 2.11149 64.5012 4.12149 57.8412Z" fill="#E2DAC3"/>
<path d="M17.6515 84.2612C20.5515 88.8812 24.8816 91.5912 29.9316 93.3912C35.4416 95.3912 41.0716 96.8312 46.4316 99.2312C51.7916 101.631 57.2116 104.571 62.8016 106.851C65.6516 108.021 68.6616 108.851 71.4616 110.161C73.9957 111.41 76.3836 112.936 78.5816 114.711C83.4416 118.421 88.4915 121.711 93.6515 125.031C98.3915 128.031 103.072 131.511 109.022 130.331C113.862 129.331 117.452 125.031 119.862 121.021C122.652 116.381 124.272 110.901 125.482 105.661C126.63 99.9797 127.124 94.1852 126.952 88.3912C127.031 82.211 126.583 76.0352 125.612 69.9312C125.11 66.9461 124.392 64.0016 123.462 61.1212C122.462 58.1212 121.162 55.2812 120.102 52.3312C119.042 49.3812 118.162 46.6712 116.972 43.9212C115.778 41.3201 114.442 38.7864 112.972 36.3312C111.667 34.0767 109.817 32.1856 107.592 30.8312C106.442 30.0912 105.252 29.4212 104.122 28.6612C102.956 27.7958 101.733 27.0106 100.462 26.3112C95.3816 23.8112 89.5515 23.9212 84.1515 22.5512C81.8215 21.9512 79.6716 20.5512 77.2016 20.6312C65.2398 20.7903 53.4628 23.6047 42.7216 28.8712C37.3789 31.3261 32.3962 34.4987 27.9116 38.3012C23.5482 42.1095 20.0762 46.8311 17.7416 52.1312C16.5516 54.7912 15.3716 57.5012 14.3716 60.2312C13.3716 62.9612 13.5915 65.9712 13.6415 68.8412C13.7215 74.2312 14.7515 79.6312 17.6515 84.2612ZM16.8216 60.1512C18.9416 55.0212 20.8216 49.6912 24.3216 45.2812C27.8379 40.9806 32.0949 37.3433 36.8915 34.5412C46.6379 28.6322 57.5156 24.8338 68.8216 23.3912C71.602 23.0513 74.4005 22.881 77.2016 22.8812C79.5316 22.8212 81.7116 24.2812 83.9516 24.8112C86.6416 25.4512 89.3516 25.8112 92.0816 26.2412C94.7226 26.5479 97.2943 27.2914 99.6916 28.4412C100.831 29.0945 101.929 29.8158 102.982 30.6013C104.112 31.3713 105.312 32.0412 106.462 32.7712C108.669 34.1847 110.449 36.1725 111.612 38.5212C113.012 40.9547 114.287 43.4579 115.432 46.0212C116.492 48.6412 117.332 51.3412 118.322 54.0212C119.312 56.7012 120.552 59.3912 121.432 62.1812C123.114 67.7403 124.121 73.4816 124.432 79.2812C124.82 85.0936 124.863 90.9237 124.562 96.7412C124.146 102.316 122.944 107.803 120.992 113.041C119.402 117.611 117.222 122.041 113.632 125.331C111.903 127.073 109.608 128.138 107.162 128.331C104.582 128.392 102.041 127.696 99.8516 126.331C97.3116 124.821 94.8516 123.131 92.3716 121.541C89.8916 119.951 87.2415 118.281 84.7515 116.541C80.4315 113.541 76.5216 109.781 71.5816 107.781C68.9516 106.711 66.2416 105.841 63.5816 104.781C60.9216 103.721 58.1016 102.461 55.4116 101.171C50.3752 98.5776 45.1932 96.2772 39.8915 94.2812C35.0815 92.6112 29.8916 91.5612 25.4616 88.9412C21.0316 86.3212 18.0916 81.6112 16.7816 76.5812C16.1656 74.0508 15.8568 71.4555 15.8616 68.8512C15.8416 65.8612 15.6516 62.9612 16.8216 60.1512Z" fill="#E2DAC3"/>
<path d="M34.0517 78.1114C36.2217 79.3114 38.3616 80.6014 40.6416 81.6014C45.2316 83.6014 50.1817 84.8214 54.8017 86.8214C59.4217 88.8214 63.9117 91.6614 68.4917 94.0614C70.5458 95.1436 72.6785 96.0696 74.8717 96.8314C77.1734 97.4727 79.3843 98.4035 81.4517 99.6014C83.2849 100.96 85.2597 102.117 87.3417 103.051C89.4756 103.784 91.4955 104.814 93.3417 106.111C96.3417 108.351 100.082 111.111 104.032 109.501C107.032 108.271 108.732 105.161 109.872 102.291C111.49 98.0247 112.474 93.5436 112.792 88.9914C113.612 78.6614 110.252 68.5814 107.512 58.7514C106.262 54.2814 103.602 50.3713 101.172 46.4813C99.1293 43.1268 96.6772 40.0397 93.8717 37.2913C91.1535 34.5078 87.796 32.4309 84.0917 31.2414C80.5917 30.2414 76.7117 30.5414 73.0917 30.7014C71.3817 30.7714 69.6817 30.8914 67.9817 31.1214C64.5432 31.4867 61.1753 32.3455 57.9817 33.6714C56.3624 34.581 54.7964 35.5826 53.2917 36.6714C49.7517 38.8414 45.8917 40.4314 42.3717 42.6714C40.3949 43.8398 38.5593 45.2323 36.9016 46.8214C35.4357 48.3775 34.098 50.0496 32.9016 51.8214C30.4116 55.3314 27.3117 58.5414 26.3017 62.8214C25.8752 64.8592 25.9165 66.9672 26.4223 68.9868C26.928 71.0064 27.8852 72.885 29.2217 74.4813C30.5698 76.0054 32.2128 77.2403 34.0517 78.1114ZM32.4317 56.3814C34.8617 53.3014 36.7917 49.7014 39.8517 47.1714C43.3717 44.2614 47.6317 42.1114 51.7017 40.0714C53.5471 39.1141 55.3306 38.042 57.0417 36.8614C58.8192 35.6983 60.7902 34.8618 62.8617 34.3914C64.7717 33.9114 66.7217 33.5813 68.6617 33.2913C72.0593 32.8899 75.4821 32.7429 78.9016 32.8514C82.3397 32.8641 85.6947 33.9093 88.5317 35.8514C94.9616 40.1114 99.2217 47.1414 102.942 53.7114C105.302 57.8914 106.262 62.6014 107.492 67.2014C108.772 71.9814 110.142 76.7814 110.562 81.7214C110.95 86.3918 110.613 91.0943 109.562 95.6614C108.802 99.0014 107.872 102.711 105.722 105.461C104.908 106.628 103.682 107.443 102.292 107.741C100.292 108.041 98.4417 106.961 96.8617 105.911C95.2467 104.639 93.5459 103.48 91.7716 102.441C89.8616 101.511 87.7717 101.051 85.9117 99.9813C84.0517 98.9113 82.5217 97.4914 80.5717 96.5914C78.6217 95.6914 76.5117 95.0914 74.4717 94.3514C70.1017 92.7814 66.1317 90.1914 62.0717 87.9614C57.9036 85.7131 53.5552 83.8165 49.0717 82.2913C46.8817 81.5213 44.6417 80.8614 42.4817 80.0214C40.3576 79.116 38.2992 78.0634 36.3217 76.8714C34.442 76.0154 32.7261 74.8377 31.2516 73.3914C29.975 71.9241 29.0697 70.1716 28.6117 68.2814C27.5617 63.7214 29.7217 59.8114 32.4317 56.3814Z" fill="#E2DAC3"/>
<path d="M61.8914 62.1513C63.4514 62.8013 65.0415 63.3713 66.6015 63.9913C68.4084 64.7647 70.1622 65.6567 71.8515 66.6614C74.7015 68.2614 77.6315 69.8114 80.6115 71.1614C82.9315 72.1614 86.0615 73.5913 88.6115 72.4913C94.3415 69.9813 87.6114 63.6213 85.3814 61.2613C83.6114 59.3513 82.0415 57.2613 80.2015 55.4313C78.3615 53.6013 75.8715 51.0413 73.0815 51.0013C70.9995 50.8964 68.9135 50.8964 66.8315 51.0013C65.0587 50.9868 63.3009 51.3268 61.6614 52.0013C59.6614 52.8613 56.5015 54.0013 56.1015 56.4513C55.5615 59.5213 59.7314 61.2413 61.8914 62.1513ZM59.0214 55.9613C60.0045 55.2582 61.0775 54.6898 62.2115 54.2713C63.721 53.5968 65.3581 53.2558 67.0114 53.2713C69.0114 53.2713 71.0814 53.0613 73.0114 53.2713C74.9414 53.4813 76.7314 55.2713 78.0114 56.4913C79.6343 58.0733 81.17 59.7424 82.6115 61.4913C83.7315 62.8413 84.9814 64.0513 86.1514 65.3613C86.9514 66.2613 89.1515 68.4613 88.4314 69.8313C87.4314 71.6613 83.8014 70.0813 82.5014 69.5413C80.2114 68.6013 77.9514 67.4113 75.7714 66.2513C72.9443 64.5895 70.0264 63.0872 67.0314 61.7513C64.5314 60.7513 61.7915 59.9913 59.5615 58.4313C58.4815 57.6713 57.8214 56.9113 59.0214 55.9613Z" fill="#E2DAC3"/>
<path d="M49.7614 69.9713C53.5389 72.0766 57.4392 73.9533 61.4415 75.5913C67.7715 78.3413 74.6715 79.4813 80.7315 82.8913C86.1115 85.8913 91.4415 89.7513 97.9015 89.5713C98.9748 89.6356 100.044 89.3862 100.978 88.8535C101.912 88.3208 102.67 87.5278 103.161 86.5713C104.721 83.3313 104.431 79.7113 103.411 76.3613C102.33 72.6628 100.824 69.1023 98.9215 65.7513C97.0015 62.3913 94.7815 59.2213 92.7715 55.9213C92.7253 55.8404 92.6682 55.7664 92.6015 55.7013C86.3415 48.0413 76.6815 45.1713 67.0715 46.2113C65.8115 46.3513 64.5515 46.5313 63.3015 46.7613C61.7692 47.0719 60.2566 47.4726 58.7715 47.9613C57.0967 48.4155 55.4561 48.9868 53.8615 49.6713C52.5248 50.373 51.2353 51.1614 50.0014 52.0313C48.6248 52.8455 47.3202 53.7755 46.1015 54.8113C45.1549 55.604 44.3774 56.5792 43.8156 57.6788C43.2539 58.7783 42.9192 59.9797 42.8315 61.2113C42.7715 65.2613 46.5614 68.1113 49.7614 69.9713ZM52.4915 53.0213C55.1503 51.4471 58.0333 50.2871 61.0415 49.5813C62.6437 49.1381 64.2741 48.804 65.9215 48.5813C69.6271 48.0174 73.4022 48.0952 77.0815 48.8113C82.5058 49.9172 87.383 52.8592 90.8914 57.1413C94.1614 62.5113 98.0714 67.6113 100.141 73.6013C101.141 76.4513 102.322 79.4813 101.982 82.5413C101.772 84.4513 101.142 86.8213 98.9815 87.2513C93.5315 88.3313 87.9815 84.6113 83.6015 82.0013C81.0009 80.4317 78.2588 79.1093 75.4115 78.0513C72.4915 76.9813 69.4815 76.1513 66.5315 75.1613C62.3624 73.6481 58.2884 71.8849 54.3315 69.8813C51.2215 68.3913 47.1515 66.5113 45.5315 63.2413C43.2215 58.4913 49.2915 55.1113 52.4915 53.0213Z" fill="#E2DAC3"/>
</svg>
