<svg width="19" height="30" viewBox="0 0 19 30" fill="none" xmlns="http://www.w3.org/2000/svg">
<path d="M14.4023 12.2159H13.2773V8.84091C13.2773 6.34482 11.2383 4.34091 8.77734 4.34091C6.28125 4.34091 4.27734 6.37997 4.27734 8.84091V12.1808L3.15234 12.2159C1.88672 12.2159 0.902344 13.2003 0.902344 14.4659V20.0909C0.902344 21.3214 1.88672 22.3409 3.15234 22.3409H14.4023C15.6328 22.3409 16.6523 21.3214 16.6523 20.0909V14.4659C16.6523 13.2354 15.6328 12.2159 14.4023 12.2159ZM5.40234 8.84091C5.40234 7.01279 6.91406 5.46591 8.77734 5.46591C10.6055 5.46591 12.1523 7.01279 12.1523 8.84091V12.2159H5.40234V8.84091ZM15.5273 20.0909C15.5273 20.7237 15 21.2159 14.4023 21.2159H3.15234C2.51953 21.2159 2.02734 20.7237 2.02734 20.0909V14.4659C2.02734 13.8683 2.51953 13.3409 3.15234 13.3409H14.4023C15 13.3409 15.5273 13.8683 15.5273 14.4659V20.0909ZM8.77734 15.5909C8.46094 15.5909 8.21484 15.837 8.21484 16.1534V18.4034C8.21484 18.6847 8.46094 18.9308 8.77734 18.9308C9.05859 18.9308 9.33984 18.7198 9.33984 18.4034V16.1534C9.33984 15.8722 9.05859 15.5909 8.77734 15.5909Z" fill="black"/>
</svg>
