<svg width="173" height="31" viewBox="0 0 173 31" fill="none" xmlns="http://www.w3.org/2000/svg">
<path d="M24.7172 8.08186C20.9606 8.08186 18.9417 10.2154 18.0352 13.0653C17.9362 12.3132 17.766 11.5572 17.4533 10.8605C16.8793 9.57412 15.8144 8.67559 14.4527 8.31143C12.5249 7.79686 10.3912 8.13331 8.70883 9.19017C7.81815 9.74828 7.04228 10.5003 6.09618 10.9555C5.70428 11.1455 5.18967 11.1653 4.75819 11.197C4.2792 11.2326 3.79626 11.2049 3.32123 11.1416C2.52952 11.0347 1.74968 10.821 1.0411 10.4489C0.672955 10.2589 0.340436 10.0531 0 9.82348V29.9116H5.92992V17.1383C5.92992 14.2132 6.84039 10.2985 9.52825 10.2985C11.2661 10.2985 12.2161 11.6047 12.2161 14.9257V25.799C12.2161 28.3283 12.414 29.9116 17.6354 29.9116H18.15V17.1383C18.15 14.2132 19.0605 10.2985 21.7483 10.2985C23.4861 10.2985 24.4362 11.6047 24.4362 14.9257V25.799C24.4362 28.3283 24.6341 29.9116 29.8555 29.9116H30.3701V14.6486C30.2909 10.7299 28.945 8.08186 24.7172 8.08186Z" fill="#124635"/>
<path d="M118.203 14.5259L115.871 22.2762L110.491 8.47771H109.264C106.972 8.47771 104.835 10.5716 106.378 14.5259C106.853 15.9113 106.576 16.8177 106.141 18.2031L104.874 22.3553L99.4548 8.47771H92.9707L101.315 29.9472H103.37L107.127 17.5698C107.206 17.3323 107.245 17.0948 107.285 16.8573L112.348 29.9433H114.402L120.847 8.47375H116.853C116.857 9.97789 118.994 11.9966 118.203 14.5259Z" fill="#124635"/>
<path d="M123.024 12.1669V29.9473H123.539C128.76 29.9473 128.958 28.364 128.958 25.8347V8.47778L125.273 9.33672C123.954 9.64151 123.024 10.8171 123.024 12.1669Z" fill="#124635"/>
<path d="M172.154 25.5615C171.892 25.6486 171.651 26.0325 171.402 26.2186C170.329 27.0023 169.276 27.6792 167.922 27.8494C165.828 28.1146 163.603 27.1765 162.285 25.5298C161.569 24.6392 161.165 23.4992 161.018 22.3395L157.622 27.1369C159.419 29.0764 162 29.9472 164.882 29.9472C168.167 29.9472 171.01 28.0948 172.835 25.5615C172.633 25.5615 172.332 25.5021 172.154 25.5615Z" fill="#124635"/>
<path d="M161.276 16.042C161.276 16.042 161.272 16.1212 161.26 16.2676C161.264 16.1924 161.272 16.1172 161.28 16.042H161.276Z" fill="#124635"/>
<path d="M172.87 13.6829C172.672 13.01 172.265 12.3648 171.877 11.8383C171.208 10.9319 170.424 10.1402 169.474 9.53462C168.096 8.66381 166.477 8.20069 164.846 8.20069C159.427 8.20069 155.041 11.7235 155.041 19.2719C155.041 19.3788 155.041 19.4896 155.045 19.5965C155.069 20.966 155.239 22.3396 155.651 23.6497C155.746 23.9585 155.888 24.2474 156.023 24.5403C156.11 24.7303 156.351 25.1697 156.351 25.1697C155.932 25.8149 155.1 26.4403 154.427 26.7926C154.028 27.0024 153.537 27.1211 153.089 27.0103C152.527 26.8717 152.595 26.468 152.555 25.9811C152.527 25.6566 152.547 25.3359 152.547 25.0114V14.6922C152.468 10.7775 151.126 8.12549 146.894 8.12549C143.731 8.12549 141.459 9.84733 138.906 11.4583C138.526 11.6998 138.142 11.9412 137.71 12.0639C137.358 12.1669 136.978 12.1827 136.61 12.1589C135.767 12.1075 134.943 11.8502 134.207 11.4465C133.823 11.2367 133.455 10.9913 133.118 10.7142C132.833 10.4806 132.481 10.1996 132.228 9.93045V29.9513H138.158V17.182C138.158 16.1726 138.419 15.0445 138.894 14.0035C139.801 12.0204 141.507 10.3421 143.735 10.3421C145.671 10.3421 146.621 11.6444 146.621 14.9653V26.7095C146.605 27.2913 146.621 27.7821 146.7 28.1898V28.2492C146.867 29.6029 148.628 29.9275 149.74 29.9552C150.469 29.975 151.201 29.88 151.874 29.5911C155.061 28.2255 157.555 24.7976 159.431 22.1298C160.524 20.5742 161.806 18.7969 163.572 17.938C165.163 17.1582 167.012 17.0513 168.761 16.9959C169.3 16.984 169.482 16.984 169.846 16.992C171.133 17.0078 172.653 16.3507 172.957 14.993C173.041 14.5576 172.997 14.1143 172.87 13.6829ZM163.287 17.463C162.55 17.8272 161.937 18.3219 161.363 18.9038C161.256 19.0107 161.149 19.1175 161.038 19.2284C161.05 18.8721 161.066 18.4921 161.086 18.124C161.086 18.0171 161.09 17.8944 161.098 17.7282C161.102 17.5936 161.113 17.463 161.129 17.3284C161.149 16.9761 161.173 16.6436 161.193 16.3507C161.197 16.1647 161.212 15.9826 161.228 15.7966C161.232 15.7451 161.24 15.6937 161.24 15.6541C161.244 15.5907 161.252 15.5274 161.256 15.476C161.268 15.3335 161.272 15.2503 161.272 15.2503H161.276C161.288 15.1435 161.295 15.0366 161.307 14.9297C161.45 13.667 161.679 12.3806 162.182 11.205C162.669 10.065 163.528 8.98839 164.874 8.98839C167.847 8.98839 168.504 12.535 168.662 14.8189C168.666 14.8822 168.674 14.997 168.674 15.1276V15.1633L168.722 16.4497C166.889 16.5684 164.973 16.6436 163.287 17.463Z" fill="#124635"/>
<path d="M48.8883 9.2971C47.4355 8.56878 45.8006 8.16504 44.0667 8.16504C43.3304 8.16504 42.6139 8.24025 41.9172 8.37878C36.9413 9.3723 33.1965 13.7699 33.1965 19.0383C33.1965 25.039 38.0656 29.9077 44.0707 29.9077C46.2242 29.9077 48.2272 29.2823 49.9175 28.1977C51.7384 27.038 53.1912 25.3438 54.0542 23.337C54.6242 22.0189 54.9409 20.5623 54.9409 19.0423C54.9369 14.7634 52.4747 11.0664 48.8883 9.2971ZM44.0865 29.116V29.12C41.9014 29.12 40.4328 27.2596 39.6134 24.7184C39.075 23.0362 38.8216 21.0531 38.8335 19.1136C38.8652 14.6407 40.4407 8.97648 44.0628 8.95669V8.95273C45.8085 8.95273 47.0832 10.2629 47.9382 12.1154C48.8645 14.1262 49.3 16.7782 49.3158 19.1096V19.3233C49.3039 22.9689 48.3499 26.7134 46.3271 28.3086C45.6897 28.8152 44.9455 29.1081 44.0865 29.116Z" fill="#124635"/>
<path d="M85.782 8.12146C83.7196 8.12146 82.0333 8.85374 80.4023 9.80372C79.769 10.1718 79.1475 10.5637 78.53 10.9595C77.9441 11.3356 77.378 11.7551 76.7446 12.048C75.5135 12.6141 73.9618 12.2024 72.8296 11.5889C72.4456 11.3791 72.0775 11.1337 71.741 10.8566C71.456 10.6231 71.1037 10.3341 70.8503 10.0729V30.0937H76.7803V17.3244C76.7803 16.315 77.0415 15.1869 77.5166 14.1459C77.853 13.4097 78.3083 12.717 78.8506 12.1351C79.8006 11.1179 81.202 10.342 82.6152 10.342C84.5549 10.342 85.501 11.6443 85.501 14.9692V25.8425C85.501 28.3679 85.6989 29.9512 90.9202 29.9512H91.4349V14.6922C91.3596 10.7695 90.0137 8.12146 85.782 8.12146Z" fill="#124635"/>
<path d="M65.1539 6.67284C63.3211 5.27954 60.9222 4.38893 58.6183 4.33748C57.2209 4.30581 55.8038 4.55914 54.5133 5.10142C54.1847 5.23996 53.8641 5.39433 53.5592 5.57245C53.2901 5.73078 52.9694 5.90098 52.7636 6.13848C52.5973 6.33243 52.5736 6.62534 52.815 6.7718C52.9694 6.8668 53.1436 6.83909 53.3059 6.90242C53.967 7.11221 54.5687 7.45658 55.1506 7.82865C55.689 8.17698 56.2313 8.52926 56.7419 8.91321C57.7118 9.64945 58.6539 10.5598 59.2833 11.6088C59.9167 12.6617 60.4669 13.8056 60.6767 15.0247C60.8747 16.1806 60.7124 17.368 60.463 18.5001C60.1423 19.9646 59.4219 21.2313 58.7014 22.5296C58.6104 22.6919 58.6895 22.9214 58.8796 22.965C59.4377 23.0956 60.0038 22.8621 60.5065 22.6325C61.037 22.3871 61.5476 22.114 62.082 21.8765C62.6996 21.6034 63.3211 21.3342 63.903 20.9859C64.4453 20.6573 64.9441 20.2496 65.3874 19.7984C67.1609 17.9974 67.8813 15.5591 68.0278 13.0852C68.103 11.8146 67.9288 10.5519 67.3944 9.39216C66.8838 8.30364 66.1079 7.40116 65.1539 6.67284ZM65.4231 18.884C65.0312 19.3551 64.5838 19.7944 64.089 20.1586C63.5229 20.5782 62.8817 20.8829 62.2443 21.1679C61.6901 21.4173 61.1359 21.6627 60.5936 21.9398C60.269 22.1021 59.8534 22.3435 59.4535 22.4069C60.0355 21.3579 60.6055 20.305 60.9182 19.1374C61.2468 17.9261 61.4526 16.608 61.3141 15.3533C61.1716 14.0629 60.6649 12.8715 60.0394 11.7473C59.3902 10.5757 58.4877 9.58215 57.4545 8.73509C56.8884 8.27197 56.2709 7.86823 55.6612 7.46449C54.9725 7.00534 54.256 6.58972 53.4642 6.33639C53.5711 6.26514 53.678 6.19389 53.7888 6.13056C54.2718 5.84161 54.7864 5.61203 55.3169 5.43391C56.3896 5.07371 57.5218 4.91142 58.65 4.93913C60.752 4.99455 62.9094 5.79807 64.6155 7.01721C65.4785 7.6347 66.191 8.39864 66.6898 9.33279C67.2361 10.3501 67.4617 11.4782 67.4459 12.626C67.4182 14.8387 66.864 17.1503 65.4231 18.884Z" fill="#114635"/>
<path d="M63.6101 7.607C62.4938 6.63327 61.1638 6.03161 59.6991 5.84558C58.9945 5.75454 58.278 5.69912 57.5694 5.70308C57.0706 5.70704 56.3066 5.67141 55.9187 6.05932C55.8434 6.13453 55.8276 6.22161 55.8395 6.30078C55.8395 6.41556 55.9028 6.52244 56.0493 6.55806C57.894 6.95784 59.1924 8.39865 60.1266 9.95424C61.1954 11.7394 61.9792 13.7304 62.2444 15.8006C62.4107 17.1107 62.383 18.4368 62.2405 19.7509C62.2246 19.9013 62.3909 20.0636 62.5374 20.0478C63.2064 19.9844 63.717 19.5015 64.1129 18.9949C64.5681 18.417 64.9283 17.7678 65.2411 17.1028C66.0169 15.4522 66.4366 13.6354 66.0842 11.8146C65.7755 10.1957 64.8492 8.6876 63.6101 7.607ZM64.9323 16.3468C64.6631 16.988 64.3464 17.6134 63.9625 18.1953C63.7091 18.5793 63.333 19.1295 62.8659 19.3551C63.0678 17.0316 62.858 14.7002 62.0188 12.5073C61.334 10.7182 60.3918 8.87364 58.9945 7.53179C58.464 7.02118 57.8584 6.6016 57.1894 6.31265C57.2804 6.30869 57.3675 6.30473 57.4585 6.30473C58.0602 6.29682 58.6619 6.3364 59.2557 6.39577C60.5185 6.52244 61.6744 6.90243 62.7155 7.6545C63.9347 8.53718 64.8888 9.83549 65.3361 11.2723C65.8586 12.9506 65.6053 14.7437 64.9323 16.3468Z" fill="#114635"/>
<path d="M62.7273 8.30753C62.1811 7.80483 61.425 7.3813 60.7006 7.78108C60.6491 7.80879 60.6174 7.84441 60.5937 7.88003C60.5264 7.9592 60.5105 8.07003 60.5937 8.18482C61.516 9.45938 62.3236 10.9002 62.6957 12.4399C63.0084 13.7343 62.9411 15.1553 63.5626 16.3586C63.6299 16.4892 63.8437 16.5565 63.9703 16.4655C65.3281 15.4561 65.0708 13.3424 64.7581 11.8977C64.4612 10.5479 63.7566 9.25355 62.7273 8.30753ZM63.9228 15.7055C63.7368 15.2068 63.6497 14.6605 63.5705 14.138C63.4715 13.4691 63.4003 12.7922 63.2261 12.1352C62.854 10.7339 62.1573 9.40792 61.33 8.21253C61.6902 8.22044 62.0504 8.49752 62.3038 8.7271C62.8025 9.1823 63.2024 9.74833 63.5388 10.3302C64.1603 11.4029 64.4097 12.717 64.3939 13.948C64.3899 14.5299 64.3028 15.2305 63.9228 15.7055Z" fill="#114635"/>
<path d="M68.3287 8.49757C67.3074 6.49866 65.4073 4.9589 63.4517 3.9258C61.3379 2.80957 58.9667 2.50479 56.643 3.05894C54.3352 3.60914 52.2846 4.87973 50.4597 6.35616C50.0678 6.67282 49.668 6.96573 49.4741 7.44864C49.4147 7.59509 49.482 7.70592 49.5889 7.76134C49.5968 7.76926 49.6007 7.77717 49.6087 7.78113C49.8858 7.97113 50.3212 7.95133 50.6379 7.96717C51.01 7.98696 51.4058 7.97113 51.774 8.05029C52.9061 8.30362 53.8799 9.09527 54.7192 9.84733C55.6296 10.6627 56.453 11.5929 57.0943 12.6419C57.7158 13.6631 58.1235 14.7912 58.3531 15.9589C58.5906 17.1661 58.6856 18.409 58.3689 19.6123C58.0641 20.7721 57.4862 21.8329 56.8845 22.866C56.7261 23.1391 56.5599 23.4123 56.4055 23.6893C56.2947 23.8833 56.1522 24.0931 56.0888 24.3108C55.9582 24.7541 56.3422 24.9362 56.7143 24.9916C57.886 25.1658 59.0459 24.7699 60.1582 24.4414C60.7203 24.2752 61.2864 24.1485 61.8366 23.9506C62.3671 23.7566 62.8857 23.5191 63.3765 23.242C64.3582 22.6879 65.2252 21.9833 66.0842 21.2629C66.8917 20.59 67.6874 19.8894 68.2337 18.979C68.8314 17.9855 69.1046 16.8297 69.255 15.6897C69.5796 13.2673 69.4608 10.7142 68.3287 8.49757ZM56.6509 24.3701C56.6153 24.3622 56.5836 24.3543 56.5836 24.3543C56.6351 24.2949 56.647 24.3266 56.6509 24.3701ZM68.776 14.4904C68.7087 15.6462 68.5424 16.8257 68.111 17.9063C67.727 18.8642 67.0659 19.6282 66.3019 20.305C64.6947 21.726 62.9728 23.0758 60.8628 23.6339C59.7822 23.9189 58.6896 24.3583 57.5654 24.4295C57.312 24.4454 57.0547 24.4454 56.8014 24.4058C56.7934 24.4058 56.7499 24.3939 56.7024 24.382C56.9637 23.8952 57.2526 23.4202 57.5297 22.9412C58.1037 21.9398 58.65 20.8948 58.9429 19.7707C59.2398 18.6346 59.1963 17.4986 59.0181 16.3468C58.8479 15.2187 58.5233 14.1143 58.0166 13.0891C57.506 12.0481 56.7895 11.1061 55.9978 10.263C55.2338 9.45151 54.3589 8.65986 53.397 8.08987C52.9418 7.82071 52.4153 7.56738 51.8927 7.46447C51.5206 7.38926 51.1367 7.39322 50.7606 7.37343C50.6102 7.36551 50.3964 7.36947 50.2104 7.34572C50.2974 7.24677 50.4004 7.15573 50.4993 7.0726C50.7091 6.89448 50.9269 6.72428 51.1446 6.55011C51.5919 6.19387 52.0511 5.86138 52.5261 5.54868C53.4643 4.93119 54.4618 4.39287 55.5188 4.00892C57.6366 3.2331 59.9207 3.12227 62.0464 3.9258C63.0796 4.3137 64.0495 4.89557 64.9322 5.55264C65.8031 6.20179 66.6146 6.96969 67.248 7.85634C67.921 8.80236 68.3564 9.89879 68.5939 11.0309C68.8393 12.1748 68.8433 13.3385 68.776 14.4904Z" fill="#114635"/>
<path d="M128.76 1.5904C128.218 0.814585 127.327 0.248555 126.397 0.0625177C125.383 -0.139353 124.425 0.157516 123.634 0.810627C123.115 1.23416 122.608 1.76061 122.47 2.44142C122.335 3.0787 122.502 3.73181 122.672 4.3493C122.882 5.10137 123.131 5.80594 123.653 6.40363C124.128 6.94591 124.786 7.32986 125.498 7.45653C126.86 7.69402 128.451 7.16757 129.124 5.90093C129.829 4.567 129.603 2.79767 128.76 1.5904ZM128.728 5.3349C128.297 6.45509 127.089 6.96174 125.945 6.90633C124.623 6.83904 123.717 5.81385 123.364 4.61054C123.19 4.01285 122.949 3.34786 123.024 2.71059C123.099 2.07727 123.586 1.61415 124.057 1.2302C124.647 0.743336 125.399 0.490009 126.167 0.620631C126.884 0.743336 127.608 1.1352 128.087 1.68144C128.914 2.63538 129.184 4.1593 128.728 5.3349Z" fill="#114635"/>
<path d="M124.802 1.53499C124.79 1.54291 124.786 1.55478 124.774 1.5627C124.762 1.57062 124.75 1.57457 124.742 1.58249C124.239 1.98227 123.871 2.57997 123.923 3.241C123.966 3.82286 124.275 4.35326 124.6 4.82825C125.174 5.6674 125.985 6.54613 127.101 6.45509C127.929 6.3878 128.352 5.68324 128.439 4.92325C128.534 4.13952 128.341 3.28454 127.945 2.60372C127.375 1.62207 125.847 0.838341 124.802 1.53499ZM127.719 5.37053C127.656 5.50907 127.612 5.5724 127.521 5.66344C127.446 5.73469 127.355 5.79407 127.268 5.82177C126.991 5.90886 126.662 5.85344 126.357 5.73865C125.946 5.58428 125.625 5.20429 125.356 4.86784C125.047 4.47993 124.726 4.02473 124.576 3.54578C124.386 2.93621 124.655 2.42164 125.118 2.03769C125.835 1.58645 126.927 2.14852 127.335 2.75413C127.687 3.28058 127.862 3.93765 127.862 4.56701C127.865 4.84013 127.822 5.15283 127.719 5.37053Z" fill="#114635"/>
<path d="M126.025 2.91248C126.065 2.94076 126.053 2.9246 126.025 2.91248V2.91248Z" fill="#114635"/>
<path d="M125.787 2.86499C125.787 2.86499 125.787 2.86892 125.787 2.86499C125.779 2.87285 125.775 2.87285 125.771 2.88072C125.779 2.87678 125.783 2.87285 125.787 2.86499Z" fill="#114635"/>
<path d="M126.927 4.44441L126.931 4.44031L126.927 4.44441Z" fill="#114635"/>
<path d="M126.626 2.56414C126.389 2.40976 126.1 2.25935 125.807 2.26727C125.569 2.27518 125.344 2.39789 125.237 2.61955C125.023 3.07475 125.225 3.64474 125.474 4.04452C125.633 4.30181 125.835 4.51951 126.076 4.69763C126.306 4.86784 126.575 5.01825 126.864 5.03804C127.101 5.05387 127.331 4.93908 127.45 4.73326C127.557 4.54722 127.572 4.31764 127.549 4.10785C127.469 3.49432 127.129 2.92434 126.626 2.56414ZM125.759 2.89267L125.763 2.88871C125.759 2.88871 125.759 2.88871 125.759 2.89267ZM125.783 2.861C125.783 2.861 125.783 2.86496 125.783 2.861C125.783 2.86496 125.783 2.861 125.783 2.861ZM125.791 2.85705C125.795 2.85705 125.795 2.85309 125.791 2.85705C125.795 2.85705 125.795 2.85705 125.791 2.85705C125.795 2.85705 125.795 2.85705 125.791 2.85705ZM125.795 2.85309C125.795 2.85309 125.791 2.85705 125.787 2.85705H125.783C125.791 2.84517 125.799 2.84517 125.795 2.85309ZM126.911 4.45222C126.915 4.45222 126.915 4.45222 126.911 4.45222V4.45222ZM126.939 4.43243C126.939 4.42847 126.939 4.42847 126.943 4.42451C126.939 4.42847 126.939 4.42847 126.939 4.43243ZM126.939 4.43639C126.951 4.42847 126.951 4.42847 126.939 4.43639C126.939 4.43639 126.935 4.43639 126.939 4.43639C126.935 4.43639 126.935 4.43639 126.939 4.43639C126.935 4.43639 126.935 4.43639 126.939 4.43639C126.935 4.43639 126.935 4.43639 126.939 4.43639C126.935 4.43639 126.935 4.43639 126.939 4.43639C126.935 4.43639 126.939 4.43639 126.939 4.43639ZM126.935 4.44035C126.935 4.4443 126.935 4.4443 126.935 4.44035V4.44035ZM126.931 4.44035C126.927 4.4443 126.927 4.4443 126.931 4.44035C126.927 4.4443 126.927 4.4443 126.931 4.44035C126.927 4.4443 126.927 4.4443 126.931 4.44035C126.927 4.4443 126.927 4.4443 126.927 4.4443C126.927 4.4443 126.927 4.4443 126.931 4.44035ZM126.919 4.44826C126.923 4.44826 126.923 4.44826 126.919 4.44826C126.915 4.45222 126.911 4.45618 126.907 4.46014C126.911 4.45618 126.915 4.45222 126.919 4.44826ZM126.959 4.37701C126.959 4.36118 126.959 4.35326 126.959 4.34535C126.959 4.35722 126.959 4.36514 126.959 4.37701C126.951 4.38889 126.947 4.40076 126.943 4.4166C126.939 4.42451 126.935 4.43243 126.931 4.43639C126.923 4.44034 126.919 4.44034 126.911 4.4443C126.899 4.4443 126.888 4.4443 126.876 4.4443C126.852 4.44034 126.828 4.43243 126.804 4.42847C126.781 4.42055 126.761 4.41264 126.737 4.40472C126.729 4.40076 126.721 4.3968 126.717 4.3968C126.662 4.3691 126.607 4.33743 126.555 4.30576C126.5 4.27014 126.444 4.23056 126.389 4.19493C126.393 4.19889 126.393 4.19889 126.397 4.20285C126.393 4.19889 126.385 4.19493 126.381 4.19098C126.381 4.19098 126.381 4.19098 126.377 4.18702C126.373 4.18702 126.373 4.18306 126.373 4.18306C126.369 4.1791 126.365 4.1791 126.361 4.17514C126.337 4.15535 126.314 4.13556 126.29 4.11181C126.246 4.07223 126.207 4.03265 126.167 3.9891C126.147 3.96931 126.128 3.94556 126.112 3.92577C126.104 3.91786 126.1 3.90994 126.092 3.90202C126.025 3.81098 125.965 3.71994 125.914 3.62099C125.898 3.58932 125.882 3.54578 125.862 3.51016C125.862 3.51016 125.858 3.51016 125.854 3.50224C125.85 3.49432 125.85 3.48641 125.846 3.48245C125.846 3.48245 125.846 3.47849 125.843 3.47849C125.846 3.48245 125.843 3.48245 125.846 3.48245C125.843 3.47453 125.843 3.46662 125.839 3.46266C125.831 3.43891 125.823 3.41516 125.811 3.39141C125.795 3.34391 125.783 3.29641 125.771 3.24891C125.767 3.22516 125.759 3.20141 125.755 3.18162C125.755 3.17371 125.751 3.16579 125.751 3.15787C125.748 3.12225 125.744 3.08662 125.744 3.051C125.744 3.03121 125.744 3.01142 125.744 2.99163C125.744 2.98767 125.744 2.98767 125.744 2.98371C125.751 2.956 125.759 2.92434 125.767 2.89663C125.767 2.89663 125.767 2.89663 125.767 2.89267C125.767 2.88871 125.771 2.88475 125.775 2.8808C125.775 2.8808 125.779 2.8808 125.779 2.87684H125.783C125.783 2.87684 125.783 2.87684 125.783 2.87288C125.783 2.87288 125.787 2.87288 125.787 2.86892C125.787 2.86892 125.787 2.86892 125.783 2.87288C125.787 2.87288 125.795 2.86892 125.799 2.86892C125.803 2.86892 125.807 2.86892 125.811 2.86892C125.827 2.86892 125.843 2.86892 125.858 2.87288C125.866 2.87288 125.874 2.87684 125.882 2.87684C125.91 2.88475 125.941 2.89267 125.969 2.90059C125.981 2.90454 125.993 2.9085 126.009 2.91246C126.013 2.91246 126.013 2.91642 126.017 2.91642C126.013 2.91246 126.013 2.91246 126.009 2.91246C126.033 2.93225 126.068 2.94017 126.092 2.95204C126.171 2.99163 126.242 3.03517 126.318 3.08267C126.325 3.08662 126.333 3.09454 126.337 3.0985C126.357 3.11433 126.377 3.13412 126.397 3.14996C126.436 3.18558 126.476 3.22516 126.515 3.26475C126.535 3.28454 126.551 3.30433 126.571 3.32808C126.587 3.34787 126.638 3.42308 126.587 3.34391C126.618 3.39141 126.654 3.43891 126.686 3.48641C126.745 3.57745 126.793 3.67244 126.84 3.7714C126.84 3.77536 126.84 3.7714 126.84 3.77536C126.84 3.77932 126.84 3.77536 126.844 3.78328C126.852 3.80703 126.864 3.83077 126.872 3.85452C126.892 3.90598 126.907 3.95744 126.919 4.01285C126.931 4.05244 126.939 4.09598 126.947 4.13952C126.947 4.14348 126.947 4.14743 126.951 4.15139C126.955 4.17514 126.955 4.19493 126.955 4.21868C126.955 4.25431 126.959 4.29389 126.955 4.32951C126.963 4.34139 126.959 4.35722 126.959 4.37701Z" fill="#114635"/>
<path d="M126.959 4.34688C126.963 4.32152 126.963 4.30885 126.959 4.34688V4.34688Z" fill="#114635"/>
<path d="M125.846 3.47449C125.854 3.48248 125.858 3.49448 125.862 3.50647C125.862 3.50247 125.858 3.49448 125.846 3.47449Z" fill="#114635"/>
<path d="M126.373 4.1793C126.377 4.18334 126.377 4.18334 126.381 4.18738C126.385 4.19142 126.389 4.19142 126.389 4.19546C126.361 4.15909 126.361 4.16718 126.373 4.1793Z" fill="#114635"/>
</svg>
