<svg width="58" height="43" viewBox="0 0 58 43" fill="none" xmlns="http://www.w3.org/2000/svg">
<g clip-path="url(#clip0_85_1591)">
<path d="M25.1297 10.2535C22.8032 9.1059 20.1849 8.46973 17.4082 8.46973C16.2291 8.46973 15.0817 8.58823 13.9659 8.80652C5.99716 10.372 0 17.3013 0 25.6027C0 35.058 7.79757 42.7295 17.4146 42.7295C20.8633 42.7295 24.0711 41.744 26.778 40.0351C29.6942 38.2076 32.0208 35.5382 33.4028 32.3761C34.3157 30.2992 34.8228 28.0039 34.8228 25.6089C34.8228 18.8668 30.8733 13.0414 25.1297 10.2535ZM17.4399 41.4821V41.4883C13.9405 41.4883 11.5886 38.5569 10.2763 34.5528C9.41414 31.9021 9.00842 28.7773 9.02744 25.7212C9.07815 18.6734 11.6013 9.74831 17.4019 9.71712V9.71089C20.1976 9.71089 22.2389 11.7753 23.6083 14.6942C25.0917 17.8626 25.7891 22.0414 25.8144 25.715V26.0518C25.7954 31.796 24.2676 37.6962 21.0281 40.2097C20.0074 41.008 18.8156 41.4758 17.4399 41.4821Z" fill="#124635"/>
<path d="M51.1786 6.12489C48.2434 3.92948 44.4017 2.52616 40.7058 2.44507C38.4679 2.39518 36.1984 2.79435 34.1317 3.64881C33.6056 3.86711 33.0921 4.11035 32.6039 4.39101C32.1728 4.64049 31.6593 4.90868 31.3297 5.2829C31.0634 5.58851 31.0254 6.05005 31.4121 6.28082C31.6593 6.4305 31.9383 6.38685 32.1982 6.48664C33.2569 6.8172 34.2205 7.35982 35.1524 7.94609C36.0146 8.49495 36.8831 9.05004 37.7009 9.65502C39.254 10.8151 40.7628 12.2434 41.7708 13.9024C42.7851 15.5614 43.6663 17.3639 44.0023 19.2849C44.3193 21.1061 44.0594 22.9772 43.66 24.761C43.1465 27.0687 41.9927 29.0645 40.8389 31.1102C40.6931 31.366 40.8199 31.7277 41.1242 31.7963C42.0181 32.0021 42.9246 31.6341 43.7297 31.2724C44.5792 30.8857 45.397 30.4554 46.2528 30.0811C47.2418 29.6508 48.2371 29.2267 49.169 28.6778C50.0375 28.1601 50.8363 27.5177 51.5463 26.8067C54.3864 23.9689 55.5402 20.1269 55.7748 16.2288C55.8952 14.2267 55.6163 12.2371 54.7604 10.4097C53.9553 8.68829 52.7128 7.26626 51.1786 6.12489ZM51.616 25.3597C50.9884 26.1019 50.2721 26.7942 49.4796 27.368C48.5731 28.0292 47.5461 28.5094 46.5254 28.9585C45.6379 29.3514 44.7504 29.7381 43.8819 30.1747C43.362 30.4304 42.6964 30.8109 42.0561 30.9107C42.988 29.2579 43.9009 27.5988 44.4017 25.7589C44.9279 23.8504 45.2575 21.7735 45.0357 19.7964C44.8074 17.7631 43.996 15.8858 42.9943 14.1145C41.9547 12.2683 40.5093 10.7028 38.8546 9.36812C37.9481 8.6384 36.9591 8.00222 35.9829 7.36605C34.8798 6.64256 33.7323 5.98768 32.4644 5.58851C32.6356 5.47625 32.8068 5.36398 32.9843 5.26419C33.7577 4.80889 34.5818 4.44715 35.4313 4.16648C37.1493 3.59892 38.9624 3.3432 40.7692 3.38686C44.1354 3.47418 47.5905 4.74028 50.3228 6.66127C51.7048 7.63424 52.8459 8.83798 53.6447 10.3099C54.5195 11.9128 54.8809 13.6903 54.8555 15.4991C54.8048 18.9918 53.9173 22.6279 51.616 25.3597Z" fill="#114635"/>
<path d="M48.7062 7.59649C46.9185 6.06219 44.7884 5.11417 42.4428 4.82104C41.3144 4.67759 40.1669 4.59027 39.0321 4.5965C38.2334 4.60274 37.0099 4.54661 36.3886 5.15783C36.2681 5.27634 36.2428 5.41355 36.2618 5.53829C36.2618 5.71916 36.3632 5.88756 36.5978 5.94369C39.552 6.57363 41.6313 8.84389 43.1275 11.295C44.8391 14.1079 46.0943 17.2451 46.5191 20.507C46.7853 22.5715 46.741 24.6609 46.5128 26.7315C46.4874 26.9685 46.7537 27.2243 46.9882 27.1993C48.0596 27.0995 48.8774 26.3386 49.5113 25.5403C50.2404 24.6297 50.8173 23.6068 51.3181 22.559C52.5606 19.9582 53.2326 17.0954 52.6684 14.2264C52.1739 11.6692 50.6968 9.29919 48.7062 7.59649ZM50.8299 21.3615C50.3989 22.3719 49.8917 23.3573 49.2768 24.2742C48.871 24.8792 48.2688 25.7461 47.5207 26.1016C47.844 22.4405 47.508 18.7669 46.1641 15.3116C45.0673 12.4925 43.5585 9.58609 41.3207 7.47175C40.4712 6.66718 39.5013 6.00606 38.4299 5.55076C38.5757 5.54453 38.7152 5.53829 38.861 5.53829C39.8246 5.52581 40.7882 5.58818 41.7391 5.68174C43.7614 5.88132 45.6125 6.48007 47.2798 7.6651C49.2324 9.05594 50.7602 11.1017 51.4766 13.3657C52.307 16.0102 51.9077 18.8355 50.8299 21.3615Z" fill="#114635"/>
<path d="M47.2925 8.70039C46.4176 7.90829 45.2068 7.24094 44.0467 7.87087C43.9706 7.91453 43.9135 7.97066 43.8755 8.0268C43.7677 8.15154 43.7424 8.32617 43.8755 8.50704C45.3526 10.5154 46.6459 12.7856 47.2418 15.2118C47.7426 17.2513 47.6348 19.4904 48.6301 21.3864C48.7379 21.5922 49.0802 21.6983 49.2831 21.5548C51.4575 19.9644 51.0455 16.6338 50.5446 14.3573C50.0692 12.2243 48.9408 10.1848 47.2925 8.70039ZM49.207 20.3511C48.9091 19.5652 48.7696 18.7045 48.6428 17.8812C48.4843 16.8272 48.3702 15.7607 48.0913 14.7253C47.4953 12.5174 46.3796 10.428 45.0546 8.54447C45.6315 8.55694 46.2084 8.99353 46.6142 9.35527C47.4129 10.0725 48.0532 10.9644 48.5921 11.8813C49.5874 13.5715 49.9868 15.6421 49.9614 17.5819C49.9551 18.5049 49.8156 19.6026 49.207 20.3511Z" fill="#114635"/>
<path d="M56.263 8.99368C54.6274 5.84401 51.5844 3.41782 48.4527 1.78997C45.0674 0.0311453 41.2701 -0.449102 37.5488 0.424075C33.8529 1.29102 30.569 3.29309 27.6465 5.61948C27.0189 6.11844 26.3786 6.57997 26.068 7.34089C25.9729 7.57165 26.0806 7.74629 26.2518 7.83361C26.2645 7.84608 26.2708 7.85855 26.2835 7.86479C26.7273 8.16417 27.4246 8.13298 27.9318 8.15793C28.5277 8.18911 29.1616 8.16417 29.7512 8.28891C31.5643 8.68807 33.1238 9.93547 34.4678 11.1205C35.9259 12.4053 37.2445 13.871 38.2715 15.5238C39.2668 17.1329 39.9197 18.9105 40.2874 20.7504C40.6678 22.6527 40.82 24.6111 40.3128 26.5071C39.8247 28.3346 38.8991 30.0061 37.9355 31.6339C37.6819 32.0643 37.4156 32.4946 37.1684 32.9312C36.9909 33.2368 36.7627 33.5674 36.6612 33.9104C36.452 34.609 37.067 34.8959 37.6629 34.9832C39.5394 35.2576 41.3968 34.6339 43.1782 34.1162C44.0785 33.8543 44.985 33.6547 45.8662 33.3429C46.7157 33.0372 47.5462 32.663 48.3322 32.2264C49.9044 31.3533 51.2928 30.2431 52.6685 29.1079C53.9617 28.0477 55.236 26.9437 56.1108 25.5092C57.0681 23.9437 57.5055 22.1225 57.7464 20.3263C58.2662 16.5092 58.076 12.4864 56.263 8.99368ZM37.5615 34.004C37.5044 33.9915 37.4537 33.979 37.4537 33.979C37.5361 33.8917 37.5615 33.9354 37.5615 34.004ZM56.9793 18.4427C56.8715 20.2639 56.6053 22.1225 55.9143 23.8252C55.2993 25.3346 54.2407 26.5383 53.0171 27.6048C50.4433 29.8439 47.6856 31.9707 44.3067 32.8501C42.576 33.2992 40.8263 33.9915 39.0259 34.1038C38.6201 34.1287 38.2081 34.1287 37.8024 34.0663C37.7897 34.0663 37.7199 34.0476 37.6439 34.0289C38.0623 33.2618 38.5251 32.5133 38.9688 31.7587C39.888 30.1807 40.7629 28.5341 41.232 26.7628C41.7075 24.9728 41.6377 23.1828 41.3525 21.3679C41.0799 19.5903 40.56 17.8502 39.7486 16.2348C38.9308 14.5945 37.7833 13.1101 36.5154 11.7816C35.2919 10.503 33.8909 9.25564 32.3504 8.35751C31.6214 7.9334 30.7782 7.53423 29.9414 7.37207C29.3455 7.25357 28.7305 7.2598 28.1283 7.22862C27.8874 7.21615 27.5451 7.22238 27.2471 7.18496C27.3866 7.02904 27.5514 6.88559 27.7099 6.75461C28.0459 6.47394 28.3946 6.20575 28.7432 5.93133C29.4596 5.37 30.195 4.84609 30.9557 4.35337C32.4582 3.3804 34.0557 2.53217 35.7484 1.92719C39.14 0.704739 42.7979 0.530104 46.2022 1.79621C47.8568 2.40743 49.41 3.32427 50.8237 4.35961C52.2184 5.38247 53.518 6.59245 54.5323 7.98953C55.61 9.48017 56.3073 11.2078 56.6877 12.9916C57.0807 14.7941 57.0871 16.6215 56.9793 18.4427Z" fill="#114635"/>
</g>
<defs>
<clipPath id="clip0_85_1591">
<rect width="58" height="42.7295" fill="white"/>
</clipPath>
</defs>
</svg>
