<svg width="25" height="24" viewBox="0 0 25 24" fill="none" xmlns="http://www.w3.org/2000/svg">
<path d="M24.001 22.7344L17.3447 16.125C18.8447 14.3906 19.6885 12.1875 19.6885 9.75C19.6885 4.40625 15.2822 0 9.93848 0C4.54785 0 0.235352 4.40625 0.235352 9.75C0.235352 15.1406 4.59473 19.5 9.93848 19.5C12.3291 19.5 14.5322 18.6562 16.2666 17.1562L22.876 23.8125C23.0635 23.9531 23.251 24 23.4854 24C23.6729 24 23.8604 23.9531 24.001 23.8125C24.2822 23.5312 24.2822 23.0156 24.001 22.7344ZM9.98535 18C5.3916 18 1.73535 14.2969 1.73535 9.75C1.73535 5.20312 5.3916 1.5 9.98535 1.5C14.5322 1.5 18.2354 5.20312 18.2354 9.75C18.2354 14.3438 14.5322 18 9.98535 18Z" fill="black"/>
</svg>