<svg width="22" height="24" viewBox="0 0 22 24" fill="none" xmlns="http://www.w3.org/2000/svg">
<path d="M20.0029 6H15.5029V4.5C15.5029 2.0625 13.4404 0 11.0029 0C8.51855 0 6.50293 2.0625 6.50293 4.5V6H2.00293C1.15918 6 0.50293 6.70312 0.50293 7.5V19.5C0.50293 22.0312 2.47168 24 5.00293 24H17.0029C19.4873 24 21.5029 22.0312 21.5029 19.5V7.5C21.5029 6.70312 20.7998 6 20.0029 6ZM8.00293 4.5C8.00293 2.85938 9.31543 1.5 11.0029 1.5C12.6436 1.5 13.9561 2.85938 13.9561 4.5V6H8.00293V4.5ZM20.0029 19.5C20.0029 21.1875 18.6436 22.5 17.0029 22.5H5.00293C3.31543 22.5 2.00293 21.1875 2.00293 19.5V7.5H6.50293V11.25C6.50293 11.6719 6.83105 12 7.25293 12C7.62793 12 8.00293 11.6719 8.00293 11.25V7.5H13.9561V11.25C13.9561 11.6719 14.2842 12 14.7061 12C15.0811 12 15.4561 11.6719 15.4561 11.25V7.5H20.0029V19.5Z" fill="black"/>
</svg>