<svg width="24" height="19" viewBox="0 0 24 19" fill="none" xmlns="http://www.w3.org/2000/svg">
<path d="M4.07227 2.59091V3.71591H9.13477C9.41602 3.71591 9.69727 3.99716 9.69727 4.27841C9.69727 4.59482 9.41602 4.84091 9.13477 4.84091H1.25977C0.943359 4.84091 0.697266 4.59482 0.697266 4.27841C0.697266 3.99716 0.943359 3.71591 1.25977 3.71591H2.94727V2.59091C2.94727 1.36044 3.93164 0.340912 5.19727 0.340912H13.0723C14.3027 0.340912 15.3223 1.36044 15.3223 2.59091V3.71591H17.6074C18.0996 3.71591 18.5566 3.96201 18.873 4.31357L21.6504 7.54794C21.8965 7.86435 22.0723 8.25107 22.0723 8.63779V13.8409H22.6348C22.916 13.8409 23.1973 14.1222 23.1973 14.4034C23.1973 14.7198 22.916 14.9659 22.6348 14.9659H20.9473C20.9473 16.8292 19.4355 18.3409 17.5723 18.3409C15.6738 18.3409 14.1973 16.8292 14.1973 14.9659H9.66211C9.66211 16.8292 8.18555 18.3409 6.28711 18.3409C4.42383 18.3409 2.91211 16.8292 2.91211 14.9659V10.4659H4.03711V12.4698C4.63477 11.9425 5.44336 11.5909 6.28711 11.5909C7.76367 11.5909 9.0293 12.5401 9.48633 13.8409H14.1973V2.59091C14.1973 1.99326 13.6699 1.46591 13.0723 1.46591H5.16211C4.56445 1.46591 4.03711 1.99326 4.03711 2.59091H4.07227ZM18.0293 5.05185C17.9238 4.91122 17.748 4.84091 17.6074 4.84091H15.3223V8.21591H20.7363L18.0293 5.05185ZM15.3223 9.34091V12.4698C15.8848 11.9425 16.6934 11.5909 17.5723 11.5909C19.0137 11.5909 20.2793 12.5401 20.7363 13.8409H20.9473V9.34091H15.3223ZM6.32227 12.7159C5.05664 12.7159 4.07227 13.7354 4.07227 14.9659C4.07227 16.2315 5.05664 17.2159 6.32227 17.2159C7.55273 17.2159 8.57227 16.2315 8.57227 14.9659C8.57227 13.7354 7.55273 12.7159 6.32227 12.7159ZM17.5723 17.2159C18.8027 17.2159 19.8223 16.2315 19.8223 14.9659C19.8223 13.7354 18.8027 12.7159 17.5723 12.7159C16.3066 12.7159 15.3223 13.7354 15.3223 14.9659C15.3223 16.2315 16.3066 17.2159 17.5723 17.2159ZM10.2598 5.96591C10.541 5.96591 10.8223 6.24716 10.8223 6.52841C10.8223 6.84482 10.541 7.09091 10.2598 7.09091H2.38477C2.06836 7.09091 1.82227 6.84482 1.82227 6.52841C1.82227 6.24716 2.06836 5.96591 2.38477 5.96591H10.2598ZM9.13477 8.21591C9.41602 8.21591 9.69727 8.49716 9.69727 8.77841C9.69727 9.09482 9.41602 9.34091 9.13477 9.34091H1.25977C0.943359 9.34091 0.697266 9.09482 0.697266 8.77841C0.697266 8.49716 0.943359 8.21591 1.25977 8.21591H9.13477Z" fill="black"/>
</svg>
