<svg width="25" height="24" viewBox="0 0 25 24" fill="none" xmlns="http://www.w3.org/2000/svg">
<path d="M12.3088 0C5.65259 0 0.308838 5.39062 0.308838 12C0.308838 18.6562 5.65259 24 12.3088 24C18.9182 24 24.3088 18.6562 24.3088 12C24.3088 5.39062 18.9182 0 12.3088 0ZM12.3088 22.5C10.0588 22.5 7.99634 21.8438 6.30884 20.6719C6.49634 18.3281 8.41821 16.5 10.8088 16.5H13.8088C16.1526 16.5 18.0745 18.3281 18.262 20.6719C16.5745 21.8438 14.512 22.5 12.3088 22.5ZM19.5745 19.5469C18.9182 16.9688 16.5745 15 13.8088 15H10.8088C7.99634 15 5.65259 16.9688 4.99634 19.5469C3.02759 17.625 1.80884 14.9531 1.80884 12C1.80884 6.23438 6.49634 1.5 12.3088 1.5C18.0745 1.5 22.8088 6.23438 22.8088 12C22.8088 14.9531 21.5432 17.625 19.5745 19.5469ZM12.3088 6C10.1995 6 8.55884 7.6875 8.55884 9.75C8.55884 11.8594 10.1995 13.5 12.3088 13.5C14.3713 13.5 16.0588 11.8594 16.0588 9.75C16.0588 7.6875 14.3713 6 12.3088 6ZM12.3088 12C11.0432 12 10.0588 11.0156 10.0588 9.75C10.0588 8.53125 11.0432 7.5 12.3088 7.5C13.5276 7.5 14.5588 8.53125 14.5588 9.75C14.5588 11.0156 13.5276 12 12.3088 12Z" fill="black"/>
</svg>