<svg width="252" height="331" viewBox="0 0 252 331" fill="none" xmlns="http://www.w3.org/2000/svg">
<path d="M35.8951 76.1236C31.1658 82.3088 26.9454 88.8669 23.2751 95.7336C16.2174 109.637 10.6917 124.266 6.79509 139.364C4.8851 147.254 3.54503 155.254 2.35503 163.274C-0.0849686 179.704 -1.07488 196.204 1.57512 212.674C2.76604 220.849 4.38152 228.956 6.41509 236.964C8.56734 244.636 11.2641 252.145 14.485 259.434C16.025 263.034 17.5451 266.684 19.3951 270.144C21.2451 273.604 23.6351 276.074 26.0551 279.004C28.4751 281.934 30.7351 285.004 33.4351 287.774C36.1351 290.544 38.8751 293.134 41.5751 295.844C46.7051 300.994 52.1251 306.124 58.4651 309.764C61.6051 311.574 65.0351 312.854 68.3151 314.394C71.5951 315.934 74.9951 317.604 78.3151 319.204C84.818 322.505 91.5807 325.267 98.5351 327.464C106.005 329.654 113.535 330.104 121.295 330.274C129.715 330.474 137.845 329.454 146.165 328.274C150.165 327.694 154.275 327.374 158.265 326.534C161.902 325.722 165.477 324.656 168.965 323.344C176.035 320.754 183.095 317.954 189.905 314.754C196.665 311.575 203.014 307.589 208.815 302.884C215.065 297.814 222.005 293.684 227.935 288.214C233.605 283.004 239.655 278.214 245.315 273.014C250.975 267.814 255.415 262.014 259.825 255.914C264.385 249.654 267.195 242.494 270.055 235.344C273.097 227.944 275.519 220.304 277.295 212.504C278.922 204.383 279.699 196.115 279.615 187.834C279.615 183.834 279.805 179.704 279.075 175.734C278.597 173.696 278.263 171.628 278.075 169.544C277.985 167.544 278.075 165.444 278.135 163.404C278.355 155.164 277.435 146.714 279.205 138.594C280.935 130.714 284.815 123.674 288.205 116.414C289.875 112.834 291.945 109.464 293.685 105.924C295.258 102.676 296.633 99.3365 297.805 95.9236C300.436 88.7219 302.323 81.2697 303.435 73.6836C304.435 66.1836 304.975 57.8536 302.605 50.5536C301.411 47.2456 299.685 44.1549 297.495 41.4035C295.425 38.6435 293.295 35.8636 291.035 33.2636C286.34 27.9838 280.743 23.5818 274.505 20.2636C267.894 16.8552 260.934 14.1729 253.745 12.2636C249.912 11.223 246.009 10.4643 242.065 9.99356C238.235 9.47356 234.415 8.84358 230.565 8.51358C226.638 8.23067 222.731 7.7164 218.865 6.97355C214.865 6.16355 210.865 6.40356 206.865 6.42356C206.585 6.44999 206.325 6.57994 206.136 6.788C205.946 6.99605 205.841 7.26725 205.841 7.54856C205.841 7.82987 205.946 8.10106 206.136 8.30912C206.325 8.51717 206.585 8.64712 206.865 8.67356C211.025 8.67356 215.125 8.44355 219.215 9.35355C222.979 10.0827 226.787 10.5539 230.615 10.7636C234.465 11.0936 238.285 11.7636 242.105 12.2436C245.853 12.7071 249.562 13.439 253.205 14.4336C266.945 18.3836 280.585 24.1836 289.995 35.4336C294.435 40.7136 299.505 46.4336 301.075 53.3236C302.785 60.7936 302.075 69.0136 300.785 76.4936C299.444 83.8571 297.404 91.0763 294.695 98.0536C292.035 105.054 288.055 111.494 284.915 118.314C281.775 125.134 278.315 131.644 276.855 139.144C275.355 146.804 276.105 154.724 275.955 162.474C275.706 166.324 275.874 170.189 276.455 174.004C277.15 177.944 277.461 181.943 277.385 185.944C277.56 194.247 276.89 202.546 275.385 210.714C273.796 218.157 271.581 225.453 268.765 232.524C266.005 239.654 263.275 247.074 258.885 253.384C254.811 259.46 250.145 265.118 244.955 270.274C239.555 275.434 233.575 279.934 228.105 285.014C225.268 287.694 222.262 290.189 219.105 292.484C215.975 294.714 212.825 296.914 209.775 299.254C206.725 301.594 203.925 304.014 200.775 306.114C197.723 308.132 194.547 309.955 191.265 311.574C184.705 314.854 177.845 317.574 171.005 320.164C167.528 321.545 163.975 322.731 160.365 323.714C156.616 324.589 152.815 325.227 148.985 325.624C140.875 326.684 132.895 328.084 124.695 328.084C117.015 328.084 109.225 327.904 101.745 326.024C94.8167 324.131 88.0911 321.562 81.6651 318.354C75.2584 315.314 68.8384 312.314 62.4051 309.354C55.8551 306.354 50.3351 301.354 45.2151 296.354C40.0951 291.354 34.5051 286.354 30.0351 280.654C28.9751 279.294 28.035 277.884 26.865 276.594C25.4907 275.171 24.2176 273.654 23.0551 272.054C21.0732 268.825 19.364 265.436 17.9451 261.924C14.6975 254.767 11.8857 247.42 9.52508 239.924C7.37421 232.224 5.66477 224.408 4.40508 216.514C2.9121 208.599 2.12903 200.567 2.06511 192.514C2.06511 176.514 4.4651 160.384 7.79509 144.794C11.0776 129.857 16.1124 115.36 22.7951 101.604C29.4351 87.7835 38.585 75.4236 48.735 63.9936C53.735 58.3236 59.0851 52.9936 64.4251 47.5636C69.7651 42.1336 74.8651 36.9336 80.4251 31.9336C86.035 26.9178 92.0562 22.3819 98.4251 18.3736C104.865 14.2736 111.575 10.3736 118.815 7.88358C122.135 6.71358 125.525 5.78355 128.815 4.41355C129.815 3.98355 130.815 3.49356 131.815 2.99356C132.315 2.74356 134.125 1.76357 134.185 2.43357C134.305 3.86357 136.555 3.88357 136.435 2.43357C136.245 0.133567 134.435 -0.406467 132.435 0.273533C131.491 0.645709 130.572 1.08004 129.685 1.57358C128.064 2.34816 126.393 3.01624 124.685 3.57358C121.085 4.85358 117.435 5.87357 113.915 7.37357C110.304 8.93718 106.791 10.7171 103.395 12.7036C96.7294 16.485 90.3759 20.7919 84.3951 25.5835C78.4564 30.5354 72.7882 35.803 67.4151 41.3636C56.3451 52.5036 45.3451 63.5936 35.8951 76.1236Z" fill="#124635"/>
<path d="M125.235 28.7934C122.235 30.4634 119.165 31.9535 116.325 33.8935C110.805 37.6535 105.975 42.3034 100.745 46.4334C97.8848 48.7034 94.9248 50.8334 92.0548 53.0934C89.1728 55.1861 86.458 57.4998 83.9348 60.0135C82.8448 61.1935 81.8048 62.4035 80.6948 63.5735C79.5848 64.7435 78.1348 65.9735 76.9648 67.2635C74.7348 69.7235 72.9648 72.5734 70.9648 75.1634C66.6148 80.6434 61.5947 85.4434 57.8647 91.4134C56.0347 94.3334 53.6448 96.8235 51.6648 99.6335C49.5248 102.633 47.7348 105.973 45.8248 109.153C42.1048 115.373 38.2447 121.453 35.1147 128.013C32.0976 134.358 29.5703 140.924 27.5548 147.653C25.4848 154.563 23.4348 161.513 21.5548 168.463C19.56 175.631 18.4946 183.025 18.3848 190.463C18.3848 194.343 18.4548 198.213 18.4948 202.093C18.4477 205.773 18.6851 209.451 19.2048 213.093C19.8148 216.773 20.7348 220.393 21.4148 224.093C22.0048 227.303 22.4148 230.543 23.0248 233.753C24.1848 240.043 25.7648 246.193 28.7848 251.873C34.9348 263.413 44.6547 273.033 54.8547 281.043C64.6547 288.743 75.5548 295.893 87.6448 299.323C93.9343 301.138 100.497 301.815 107.025 301.323C114.245 300.743 121.165 298.513 128.095 296.553C135.025 294.593 142.275 293.073 149.235 290.783C156.105 288.512 162.836 285.841 169.395 282.783C176.003 279.826 182.329 276.275 188.295 272.173C191.145 270.213 194.155 268.496 197.295 267.043C200.396 265.458 203.381 263.654 206.225 261.643C212.12 257.797 217.704 253.494 222.925 248.773C225.355 246.503 227.665 244.083 230.005 241.773C232.374 239.463 234.596 237.005 236.655 234.413C238.655 231.743 240.385 228.793 242.255 226.013C244.255 223.013 246.255 220.113 247.985 217.013C251.375 210.85 253.64 204.131 254.675 197.173C255.673 190.195 256.157 183.153 256.125 176.103C256.225 168.623 255.125 161.393 254.195 153.993C253.667 150.287 253.423 146.547 253.465 142.803C253.555 139.643 255.325 137.433 256.465 134.633C257.059 133.038 257.491 131.386 257.755 129.703C258.171 127.759 258.812 125.87 259.665 124.073C261.165 120.733 262.935 117.523 264.505 114.213C267.505 107.933 270.425 101.373 272.035 94.5834C273.452 88.0504 273.346 81.2788 271.725 74.7934C270.195 67.9334 266.655 61.9934 262.915 56.1134C261.387 53.6701 259.614 51.3884 257.625 49.3034C255.48 47.2248 253.18 45.3125 250.745 43.5834C248.275 41.7034 246.515 39.0335 243.745 37.5135C242.31 36.7973 240.831 36.1759 239.315 35.6534C237.702 34.9609 236.141 34.1521 234.645 33.2334C228.735 29.8334 222.905 26.2334 216.485 23.7934C213.215 22.5734 209.815 21.9734 206.485 21.0334C203.104 19.9388 199.662 19.0472 196.175 18.3634C192.545 17.7934 188.935 17.1334 185.325 16.4734C181.715 15.8134 178.325 15.6434 174.755 15.2734C167.546 14.4767 160.251 15.0881 153.275 17.0735C146.795 18.9835 140.275 20.6534 134.275 23.7834C131.245 25.3634 128.265 27.1034 125.235 28.7934ZM153.895 19.1734C161.02 17.2166 168.46 16.6697 175.795 17.5634C179.425 17.9434 182.975 18.2334 186.565 18.9234C190.155 19.6134 193.625 20.0334 197.115 20.7434C200.425 21.4134 203.625 22.5234 206.885 23.4034C210.271 24.1529 213.61 25.1013 216.885 26.2434C223.135 28.7334 228.825 32.4034 234.655 35.7134C235.915 36.4527 237.225 37.1043 238.575 37.6634C240.282 38.2241 241.927 38.9579 243.485 39.8534C246.015 41.5534 247.825 44.1334 250.315 45.9134C255.134 49.3986 259.171 53.8542 262.165 58.9934C263.993 61.8731 265.663 64.8509 267.165 67.9134C268.601 71.1243 269.61 74.5099 270.165 77.9834C270.782 81.2249 271.027 84.5264 270.895 87.8235C270.619 91.3185 269.907 94.7653 268.775 98.0834C266.527 104.664 263.779 111.062 260.555 117.223C258.796 120.35 257.317 123.627 256.135 127.013C255.665 128.583 255.495 130.233 255.135 131.823C254.683 133.383 254.035 134.878 253.205 136.273C251.804 138.821 251.142 141.71 251.295 144.613C251.388 148.259 251.702 151.896 252.235 155.503C252.695 159.023 253.235 162.503 253.605 166.053C253.928 169.711 254.042 173.383 253.945 177.053C253.735 190.933 252.605 204.923 245.365 217.123C243.595 220.123 241.615 222.973 239.685 225.863C237.755 228.753 236.205 231.513 234.095 234.063C231.985 236.613 229.765 238.853 227.475 241.133C225.185 243.413 222.795 245.933 220.295 248.133C215.074 252.69 209.53 256.861 203.705 260.613C200.899 262.504 197.962 264.192 194.915 265.663C191.935 267.123 189.079 268.822 186.375 270.743C180.511 274.695 174.31 278.121 167.845 280.983C161.295 284.01 154.569 286.641 147.705 288.863C140.895 291.043 133.915 292.493 127.055 294.443C120.195 296.393 113.585 298.553 106.565 299.033C93.6348 299.933 81.4048 295.643 70.4648 289.033C59.4255 282.469 49.4342 274.284 40.8248 264.753C36.512 260.035 32.8587 254.753 29.9648 249.053C27.1648 243.343 25.9647 237.053 24.8547 230.773C24.2947 227.533 23.8548 224.273 23.1748 221.043C22.4248 217.423 21.5347 213.813 21.1047 210.133C20.8064 206.512 20.6929 202.877 20.7648 199.243C20.7048 195.373 20.6248 191.493 20.7648 187.613C21.133 180.465 22.3791 173.388 24.4749 166.543C26.4749 159.783 28.2748 152.963 30.3948 146.253C32.4916 139.579 35.1166 133.082 38.2448 126.823C41.4248 120.453 45.3048 114.503 48.9448 108.393C50.6712 105.28 52.5847 102.275 54.6748 99.3935C56.6748 96.7635 58.7548 94.2235 60.5648 91.3935C64.2448 85.6835 69.2948 81.1134 73.3848 75.7234C75.3848 73.0434 77.1947 70.1434 79.6147 67.7834C82.0347 65.4234 84.0448 63.1734 86.2648 60.8534C88.8045 58.4309 91.5075 56.1857 94.3547 54.1335C97.1447 51.9435 100.035 49.8834 102.795 47.6734C107.915 43.5834 112.665 39.0135 118.135 35.3835C120.935 33.5235 123.955 32.0835 126.885 30.4435C129.815 28.8035 132.605 27.1234 135.545 25.6034C141.305 22.6234 147.615 21.0234 153.895 19.1734Z" fill="#124635"/>
<path d="M97.935 76.2036C94.119 80.2169 90.5459 84.4544 87.2349 88.8936C83.9249 93.4436 80.895 98.1836 77.585 102.734C74.275 107.284 70.755 111.524 68.445 116.734C67.265 119.384 66.2449 122.094 64.9849 124.734C63.7249 127.374 62.475 129.734 61.405 132.324C59.265 137.544 57.745 142.984 56.075 148.324C54.1946 153.979 52.6289 159.735 51.3849 165.564C49.1866 176.3 48.724 187.32 50.0149 198.204C50.6629 203.546 51.897 208.801 53.695 213.874C55.465 218.774 57.6949 223.574 59.8749 228.304C64.3149 237.924 69.715 246.944 77.475 254.304C81.105 257.724 85.135 260.414 90.045 261.554C95.505 262.834 101.175 262.554 106.735 262.364C112.595 262.224 118.445 262.634 124.305 262.574C130.035 262.441 135.735 261.694 141.305 260.344C144.235 259.664 147.135 258.924 150.055 258.214C152.975 257.504 155.855 257.034 158.705 256.294C164.015 254.914 168.925 252.404 173.705 249.824C178.345 247.324 183.255 245.434 187.945 243.034C192.815 240.534 196.655 236.694 201.225 233.734C203.485 232.274 206.015 231.234 208.225 229.664C210.042 228.307 211.681 226.728 213.105 224.964C216.438 221.043 219.559 216.947 222.455 212.694C225.543 208.095 228.106 203.164 230.095 197.994C231.095 195.344 231.865 192.624 232.615 189.904C233.365 187.184 234.135 184.654 234.615 181.964C235.562 176.487 235.518 170.885 234.485 165.424C233.485 159.584 231.805 153.824 231.325 147.904C230.425 137.014 237.095 127.314 241.865 118.114C243.1 115.805 244.105 113.38 244.865 110.874C245.523 108.395 245.836 105.838 245.795 103.274C245.848 97.9898 245.141 92.7259 243.695 87.6436C242.245 82.5545 239.872 77.7751 236.695 73.5436C235.065 71.3736 233.175 69.3436 231.695 67.0736C230.215 64.8036 229.195 62.3636 227.405 60.3636C225.636 58.6332 223.777 56.9975 221.835 55.4635C219.817 53.6376 217.664 51.9662 215.395 50.4635C210.755 47.3635 205.795 44.7236 201.005 41.8636C196.263 38.9912 191.059 36.9613 185.625 35.8636C180.159 34.7434 174.553 34.4735 169.005 35.0636C163.461 35.6585 158.034 37.0599 152.895 39.2236L152.765 39.2936L152.625 39.3435C149.985 40.4635 147.505 41.8435 144.955 43.1535C142.405 44.4635 139.955 45.5836 137.425 46.7536C132.399 48.9308 127.51 51.4121 122.785 54.1836C113.415 60.0136 105.465 68.1236 97.935 76.2036ZM139.615 48.2036C144.355 46.0036 148.905 43.3636 153.705 41.3036C164.04 36.9335 175.478 35.8851 186.435 38.3036C189.082 38.857 191.668 39.6709 194.155 40.7336C196.691 41.9282 199.146 43.2878 201.505 44.8036C206.075 47.5736 210.835 50.0236 215.235 53.0536C217.42 54.6386 219.519 56.3376 221.525 58.1436C223.465 59.8136 225.525 61.2236 226.965 63.3936C228.405 65.5636 229.425 67.8135 230.965 69.8335C232.505 71.8535 234.375 74.0035 235.965 76.2135C241.965 84.7535 244.145 95.6536 243.525 105.944C243.215 111.154 240.625 115.884 238.125 120.344C235.563 124.711 233.352 129.275 231.515 133.994C229.57 138.838 228.796 144.073 229.255 149.274C229.905 154.844 231.365 160.274 232.315 165.774C233.378 171.274 233.361 176.929 232.265 182.424C231.141 187.786 229.589 193.049 227.625 198.164C225.613 203.128 223.068 207.859 220.035 212.274C217.173 216.484 214.05 220.512 210.685 224.334C209.182 226.089 207.406 227.592 205.425 228.784C203.145 230.094 200.835 231.244 198.665 232.784C196.495 234.324 194.445 236.044 192.335 237.694C190.277 239.259 188.058 240.6 185.715 241.694C181.155 243.914 176.495 245.834 172.005 248.234C167.165 250.824 162.215 253.234 156.815 254.474C151.415 255.714 145.815 257.064 140.255 258.314C134.565 259.654 128.741 260.342 122.895 260.364C117.285 260.364 111.685 260.024 106.075 260.174C100.655 260.314 95.075 260.634 89.795 259.174C84.795 257.844 81.055 254.714 77.475 251.174C73.8125 247.489 70.6123 243.372 67.945 238.914C65.3295 234.517 62.9915 229.962 60.945 225.274C58.705 220.608 56.7384 215.817 55.055 210.924C52.0023 200.824 50.876 190.24 51.7349 179.724C52.1467 174.079 52.9824 168.473 54.2349 162.954C55.4549 157.454 57.235 152.154 58.915 146.774C60.4192 141.357 62.2697 136.043 64.455 130.864C65.605 128.334 66.965 125.864 68.065 123.354C69.165 120.844 70.135 118.274 71.345 115.804C73.755 110.924 77.445 106.874 80.555 102.444C83.665 98.0136 86.6249 93.4436 89.8549 89.1336C93.2345 84.714 96.8708 80.4968 100.745 76.5036C104.455 72.5036 108.245 68.6736 112.285 65.0536C116.286 61.3946 120.641 58.142 125.285 55.3435C129.875 52.6335 134.765 50.4636 139.615 48.2236V48.2036Z" fill="#124635"/>
<path d="M101.615 100.134C96.4753 107.304 93.4053 115.683 90.2053 123.833C89.4287 125.921 88.7611 128.047 88.2053 130.204C87.571 132.541 86.7206 134.814 85.6653 136.994C83.8376 141.113 82.5276 145.442 81.7653 149.884C81.2853 152.294 81.0853 154.734 80.6953 157.154C80.3553 159.234 79.8153 161.274 79.6953 163.384C79.4953 165.874 79.6953 168.434 79.6953 170.944C79.6953 173.454 79.6953 175.864 79.6953 178.324C79.6953 187.714 79.9853 197.234 83.6153 206.044C86.8153 213.824 91.1154 221.394 97.0954 227.384C99.809 230.173 102.931 232.534 106.355 234.384C109.685 236.134 113.755 237.804 117.555 237.894C119.695 237.825 121.819 237.489 123.875 236.894C126.095 236.492 128.341 236.245 130.595 236.154C135.359 235.675 140.093 234.934 144.775 233.934C149.435 233.024 154.085 232.014 158.665 230.754C163.015 229.564 167.495 228.333 171.405 226.023C175.015 223.883 178.205 221.114 181.765 218.904C185.325 216.693 189.415 214.904 192.695 212.094C195.905 209.254 198.913 206.193 201.695 202.934C204.537 199.766 207.032 196.303 209.135 192.604C210.195 190.694 210.985 188.704 211.885 186.724C212.785 184.744 214.045 182.824 215.085 180.844C216.845 177.361 217.701 173.493 217.575 169.594C217.593 165.765 216.95 161.963 215.675 158.354C214.285 154.434 212.295 150.584 211.875 146.404C211.415 141.844 213.145 137.403 215.005 133.333C216.035 131.179 216.907 128.954 217.615 126.674C218.123 124.465 218.853 122.314 219.795 120.254C220.926 118.354 221.695 116.262 222.065 114.083C222.323 111.754 222.707 109.441 223.215 107.153C223.745 105.093 224.365 103.054 224.695 100.954C224.929 98.8146 225.052 96.6651 225.065 94.5135C225.275 92.4513 225.157 90.3688 224.715 88.3435C224.115 86.2235 222.715 84.4135 221.965 82.3435C220.642 78.4621 218.755 74.7963 216.365 71.4635C207.365 59.7735 192.155 52.6335 177.515 52.2035C173.777 52.0934 170.04 52.4631 166.395 53.3035C161.925 53.9435 157.925 55.9535 153.935 57.9535C149.765 60.0535 145.655 62.2735 141.645 64.6735C137.635 67.0735 133.845 69.5735 130.125 72.3035C126.405 75.0335 122.555 77.5835 118.915 80.4335C115.444 83.2294 112.322 86.4323 109.615 89.9735C106.895 93.2835 104.115 96.6335 101.615 100.134ZM121.125 81.4335C124.665 78.7435 128.355 76.2435 131.955 73.6335C139.265 68.425 146.979 63.8102 155.025 59.8335C158.845 57.9035 162.655 56.0135 166.945 55.4035C181.385 52.0735 197.365 56.9735 208.515 66.4835C211.086 68.6401 213.377 71.1091 215.335 73.8335C216.446 75.3999 217.394 77.0752 218.165 78.8335C219.045 80.8335 219.645 82.9335 220.625 84.8335C221.605 86.7335 222.685 88.6335 222.815 90.9535C222.935 93.0535 222.685 95.1635 222.675 97.2735C222.675 101.573 220.945 105.494 220.285 109.694C219.925 111.974 219.955 114.374 219.065 116.534C218.295 118.424 217.155 120.074 216.535 122.034C215.855 124.194 215.335 126.404 214.535 128.534C213.735 130.664 212.665 132.684 211.805 134.794C210.205 138.664 209.085 142.794 209.645 147.014C210.165 150.954 211.865 154.554 213.235 158.244C214.561 161.835 215.239 165.635 215.235 169.464C215.343 173.326 214.411 177.146 212.535 180.523C211.433 182.354 210.432 184.244 209.535 186.184C208.759 188.071 207.878 189.914 206.895 191.704C204.784 195.337 202.293 198.735 199.465 201.844C196.748 204.991 193.803 207.936 190.655 210.654C187.415 213.333 183.465 214.934 179.945 217.184C176.425 219.434 173.365 222.104 169.795 224.184C165.965 226.384 161.525 227.524 157.285 228.674C153.045 229.824 148.495 230.794 144.065 231.674C139.445 232.671 134.77 233.399 130.065 233.854C127.902 233.928 125.746 234.159 123.615 234.544C121.621 235.136 119.563 235.489 117.485 235.594C115.481 235.433 113.512 234.971 111.645 234.224C109.913 233.616 108.24 232.853 106.645 231.944C99.6453 228.024 94.4153 221.704 90.4353 214.874C88.2613 211.219 86.427 207.373 84.9553 203.384C83.4423 199 82.5273 194.432 82.2353 189.804C81.8853 185.274 81.9053 180.724 81.9153 176.184C81.9153 173.684 81.9153 171.184 81.9153 168.694C81.805 166.391 81.8853 164.083 82.1553 161.794C82.4853 159.794 82.9753 157.794 83.1553 155.794C83.4295 153.294 83.8502 150.813 84.4153 148.364C84.8726 146.106 85.4569 143.876 86.1653 141.684C86.8553 139.684 87.8453 137.884 88.6753 135.974C90.4253 131.974 91.1553 127.564 92.7553 123.484C94.3553 119.404 95.8353 115.554 97.6353 111.694C99.3597 107.858 101.467 104.206 103.925 100.794C106.495 97.3035 109.235 93.8835 111.925 90.5135C114.615 87.1273 117.704 84.0785 121.125 81.4335Z" fill="#124635"/>
<path d="M108.415 182.904C109.334 186.204 110.598 189.398 112.185 192.434C114.935 197.884 118.035 203.044 122.935 206.814C127.33 210.184 132.477 212.435 137.935 213.374C143.458 214.29 149.127 213.596 154.265 211.374C166.155 206.544 176.435 198.454 184.825 188.824C189.155 183.824 193.435 178.484 195.565 172.154C196.67 169.013 197.04 165.66 196.645 162.354C196.195 158.994 194.845 155.864 193.775 152.674C192.614 149.476 192.22 146.051 192.625 142.674C193.115 139.284 194.385 136.064 195.325 132.794C196.325 129.204 197.045 125.564 198.185 121.994C199.301 118.683 200.197 115.302 200.865 111.874C202.031 105.777 201.98 99.5103 200.715 93.4336C200.074 90.5123 199.027 87.695 197.605 85.0636C196.024 82.4027 194.167 79.9157 192.065 77.6436C190.022 75.0371 187.672 72.6867 185.065 70.6436L184.935 70.5636C184.995 70.5636 184.725 70.4036 184.805 70.5036L184.425 70.1535C183.995 69.7635 183.585 69.3636 183.145 68.9836C181.856 67.9005 180.392 67.045 178.815 66.4536C176.372 65.5779 173.791 65.1477 171.195 65.1836C169.591 65.1127 167.99 65.3643 166.485 65.9236C164.87 66.641 163.313 67.48 161.825 68.4336C160.445 69.2436 159.055 70.0036 157.745 70.9236C156.165 72.0336 154.665 73.2436 153.055 74.2936C150.235 76.1236 146.955 77.0935 144.265 79.1535C141.61 81.3555 139.135 83.7665 136.865 86.3636C134.605 88.7836 132.425 91.2836 130.385 93.8836C126.205 99.1075 122.698 104.836 119.945 110.934C118.595 114.014 117.635 117.204 116.525 120.374C115.325 123.824 113.905 127.194 112.605 130.614C109.957 137.645 108.21 144.983 107.405 152.454C106.995 156.194 107.005 159.914 106.915 163.664C106.757 167.228 106.823 170.798 107.115 174.354C107.312 177.235 107.747 180.094 108.415 182.904ZM109.145 161.984C109.194 154.702 110.087 147.45 111.805 140.374C113.485 133.544 116.515 127.194 118.805 120.554C119.895 117.374 120.875 114.204 122.275 111.144C123.62 108.219 125.156 105.386 126.875 102.664C130.325 97.2962 134.283 92.2731 138.695 87.6635C140.837 85.202 143.179 82.921 145.695 80.8435C148.275 78.9135 151.445 77.9936 154.125 76.2436C155.615 75.2436 157.015 74.1636 158.455 73.1336C159.895 72.1036 161.385 71.2736 162.905 70.3836C164.193 69.5578 165.528 68.8098 166.905 68.1436C168.499 67.5433 170.209 67.3108 171.905 67.4635C175.648 67.4106 179.28 68.7305 182.115 71.1736C182.61 71.7032 183.172 72.167 183.785 72.5536H183.845C186.605 74.5536 188.725 77.2735 190.925 79.8435C192.953 82.0607 194.691 84.5272 196.095 87.1836C198.601 92.549 199.742 98.4508 199.415 104.364C199.297 107.325 198.933 110.272 198.325 113.174C197.585 116.724 196.325 120.174 195.325 123.594C194.325 126.854 193.775 130.204 192.775 133.464C191.693 136.507 190.88 139.639 190.345 142.824C189.987 145.966 190.294 149.148 191.245 152.164C192.125 155.074 193.355 157.864 194.075 160.824C195.705 167.624 192.865 174.384 189.025 179.904C181.943 190.172 172.709 198.775 161.965 205.114C157.105 207.924 151.545 210.814 145.895 211.434C140.643 211.927 135.354 211.008 130.575 208.774C125.645 206.632 121.417 203.145 118.375 198.714C114.905 193.364 111.655 187.334 110.315 181.064C108.975 174.794 109.105 168.414 109.175 161.984H109.145Z" fill="#124635"/>
<path d="M124.555 164.783C125.115 166.933 125.935 169.003 126.555 171.133C127.413 174.534 129.2 177.629 131.715 180.073C134.157 182.205 137.075 183.718 140.225 184.483C143.567 185.324 147.01 185.694 150.455 185.583C154.455 185.453 157.775 183.873 161.175 181.963C163.117 180.802 164.99 179.53 166.785 178.153C168.355 177.013 170.135 176.213 171.715 175.153C174.715 173.063 175.925 169.093 176.615 165.693C177.369 161.796 177.511 157.805 177.035 153.863C176.812 152.018 176.478 150.188 176.035 148.383C175.495 145.98 175.424 143.494 175.825 141.063C176.555 136.433 178.425 132.133 180.135 127.813C181.875 123.513 182.98 118.982 183.415 114.363C183.63 111.965 183.63 109.552 183.415 107.153C183.112 105.054 182.516 103.007 181.645 101.073C180.835 98.9735 180.765 96.6935 179.915 94.6135C179.163 92.7485 178.052 91.0496 176.645 89.6135C175.438 88.2926 173.834 87.4009 172.075 87.0735H171.995C171.922 87.067 171.848 87.067 171.775 87.0735C167.775 87.0735 163.955 87.1535 160.315 89.0135C156.694 91.0088 153.486 93.6764 150.865 96.8735C149.455 98.4735 148.095 100.113 146.595 101.633C145.095 103.153 143.535 104.633 142.055 106.153C138.956 109.361 136.478 113.114 134.745 117.223C131.123 126.004 128.116 135.026 125.745 144.223C125.022 146.53 124.471 148.886 124.095 151.273C123.86 153.559 123.78 155.857 123.855 158.153C123.809 160.384 124.044 162.612 124.555 164.783ZM126.055 156.383C126.006 154.196 126.174 152.008 126.555 149.853C126.995 147.633 127.725 145.443 128.325 143.263C128.925 141.083 129.525 138.873 130.145 136.683C131.395 132.323 132.825 128.043 134.495 123.823C136.075 119.823 137.545 115.743 139.955 112.163C142.235 108.793 145.355 106.163 148.185 103.233C153.435 97.9035 158.005 90.6134 166.085 89.5234C167.938 89.33 169.803 89.2665 171.665 89.3334C175.385 89.9934 177.795 94.3334 178.455 97.7134C178.866 99.7318 179.465 101.707 180.245 103.613C180.976 105.622 181.335 107.746 181.305 109.883C181.373 114.303 180.766 118.707 179.505 122.943C178.285 127.103 176.335 131.004 175.025 135.144C173.603 139.14 173.14 143.415 173.675 147.623C173.965 149.363 174.445 151.053 174.675 152.803C174.93 154.666 175.06 156.544 175.065 158.423C175.164 162.156 174.536 165.871 173.215 169.363C172.664 171.005 171.615 172.435 170.215 173.453C168.655 174.453 167.005 175.263 165.505 176.363C162.453 178.8 159.09 180.818 155.505 182.363C152.205 183.613 148.665 183.493 145.205 183.123C139.105 182.463 133.095 180.023 130.205 174.293C129.424 172.547 128.782 170.741 128.285 168.894C127.577 166.956 126.983 164.98 126.505 162.973C126.127 160.792 125.976 158.576 126.055 156.363V156.383Z" fill="#124635"/>
<path d="M159.175 166.004C161.082 164.214 162.542 162.001 163.435 159.544C164.285 156.914 163.875 154.054 163.805 151.344C163.675 145.013 164.664 138.71 166.725 132.724C167.915 129.194 168.305 125.484 169.225 121.894C170.005 118.794 170.965 115.614 170.505 112.384C169.755 107.064 165.655 102.594 160.135 102.434C157.825 102.524 156.585 104.374 155.475 106.174C153.915 108.714 151.985 111.044 150.285 113.504C146.627 118.677 143.492 124.201 140.925 129.994C138.382 135.725 136.652 141.783 135.785 147.994C135.435 150.774 135.365 153.624 135.225 156.424C134.952 158.872 135.321 161.35 136.295 163.614C140.495 172.064 152.915 172.024 159.175 166.004ZM137.765 151.204C137.955 145.484 139.625 139.664 141.605 134.314C143.831 128.51 146.684 122.967 150.115 117.784C151.915 115.004 153.855 112.314 155.805 109.634C156.515 108.634 157.165 107.694 157.805 106.684C158.345 105.834 159.025 104.684 160.135 104.684C164.665 104.814 167.935 108.764 168.345 113.114C168.595 115.824 167.765 118.504 167.105 121.114C166.395 123.874 166.015 126.704 165.335 129.464C164.655 132.224 163.545 134.974 162.905 137.814C162.295 140.522 161.894 143.274 161.705 146.044C161.56 148.675 161.56 151.312 161.705 153.944C161.964 156.407 161.454 158.891 160.245 161.054C159.15 162.984 157.606 164.622 155.743 165.828C153.88 167.035 151.754 167.774 149.545 167.984C145.795 168.344 141.775 167.274 139.365 164.214C136.415 160.484 137.625 155.554 137.765 151.204Z" fill="#124635"/>
</svg>
