<svg width="33" height="120" viewBox="0 0 33 120" fill="none" xmlns="http://www.w3.org/2000/svg">
<path d="M2.08336 78.2128C3.01124 74.9007 4.5534 71.7925 6.62953 69.0502C7.67515 67.6574 8.79924 66.3307 9.88619 64.9669C10.869 63.6473 11.9641 62.4152 13.1594 61.2845C14.3993 60.1934 15.7052 59.1933 16.879 58.0402C18.2718 56.6846 19.6273 55.2959 21.0119 53.9073C23.3635 51.5598 25.9135 49.2206 27.4509 46.2243C28.9883 43.228 28.8643 39.7563 30.0794 36.6567C31.3647 33.3504 33.7454 30.7053 36.5392 28.6017C37.8824 27.5891 39.4073 26.8494 40.7298 25.8161C41.3332 25.3491 41.8541 24.7912 42.4451 24.3118C43.1668 23.7496 43.9172 23.2254 44.6934 22.7413C46.0747 21.8905 47.3911 20.9387 48.6319 19.8937C49.9422 18.7495 51.3564 17.7298 52.8558 16.8478C55.7488 15.1161 58.8607 13.8019 61.9108 12.3843C63.5788 11.5912 65.2899 10.8916 67.0357 10.2889C68.7591 9.71445 70.5072 9.20611 72.2264 8.60684C73.9457 8.00757 75.4956 7.29257 77.1859 6.78836C78.8763 6.28415 80.5873 5.93701 82.2652 5.41213C83.985 4.83918 85.7329 4.35363 87.5018 3.95735C89.3753 3.57162 91.2515 3.2148 93.1306 2.88692C96.8708 2.23806 100.64 1.89505 104.393 1.35778C106.275 1.07771 108.176 0.939556 110.08 0.944492C111.96 0.944492 113.845 0.944492 115.725 0.944492C119.445 0.903163 123.164 0.684096 126.863 0.91967C128.699 1.05258 130.524 1.30384 132.327 1.67186C134.116 2.01489 135.914 2.32485 137.671 2.83319C138.91 3.19689 140.373 3.58951 141.357 4.48635C141.75 4.84591 142.337 4.26318 141.944 3.90362C140.956 2.99439 139.584 2.54802 138.324 2.15953C136.632 1.67526 134.916 1.28345 133.182 0.985811C131.355 0.613469 129.509 0.337562 127.653 0.159235C125.801 0.0104515 123.933 -0.0143438 122.086 0.00632061C118.263 0.0435165 114.444 0.15097 110.621 0.134439C106.798 0.117907 103.012 0.729568 99.2143 1.18832C95.4161 1.64707 91.5972 2.32487 87.8198 3.08532C85.9525 3.48168 84.1081 3.97833 82.2943 4.57314C80.575 5.11042 78.8184 5.48238 77.0909 5.99072C75.2724 6.51973 73.549 7.31324 71.7595 7.9249C70.0402 8.5159 68.292 9.02426 66.5686 9.61112C63.2623 10.7353 60.0594 12.3223 56.8936 13.8267C53.8188 15.2856 50.8142 16.9387 48.2146 19.1994C46.8351 20.3434 45.3797 21.3928 43.8585 22.3404C43.2345 22.7537 42.6187 23.167 42.0318 23.634C41.3003 24.2084 40.672 24.8738 39.9198 25.4442C38.5229 26.4567 36.9897 27.2378 35.6259 28.3083C34.2712 29.3537 33.0362 30.5457 31.9434 31.8625C30.8918 33.1626 30.0355 34.6092 29.4017 36.1566C28.8056 37.727 28.3774 39.3562 28.1245 41.0169C27.7939 42.7981 27.4302 44.5794 26.5499 46.1788C25.6615 47.7165 24.5842 49.1369 23.3429 50.4068C22.103 51.7293 20.8011 52.9898 19.52 54.2669C18.1685 55.6142 16.8625 57.0194 15.4408 58.284C14.1761 59.4082 12.8206 60.429 11.6221 61.6234C10.4235 62.8178 9.44391 64.2395 8.37349 65.5579C6.17893 68.2608 4.0795 70.9513 2.66193 74.1584C1.2429 77.4617 0.413361 80.9879 0.211057 84.5774C-0.0534467 88.3424 -0.152636 92.2521 0.417701 95.9924C0.694604 97.8026 1.10391 99.588 1.5048 101.365C1.86631 103.226 2.42741 105.043 3.17854 106.783C3.53396 107.552 3.94728 108.288 4.34817 109.036C4.74906 109.784 5.121 110.689 5.56321 111.491C6.38979 112.937 7.67095 113.995 8.62978 115.33C9.3241 116.301 9.86967 117.372 10.626 118.273C10.6067 118.322 10.5988 118.375 10.6032 118.428C10.6075 118.481 10.6241 118.532 10.6512 118.577C10.6783 118.623 10.7154 118.661 10.7598 118.69C10.8041 118.719 10.8546 118.737 10.9071 118.744C10.9766 118.744 11.045 118.76 11.1069 118.792C11.1687 118.823 11.2221 118.869 11.2625 118.926C11.3403 119.003 11.4456 119.046 11.5553 119.046C11.665 119.045 11.77 119.001 11.8473 118.924C11.9246 118.846 11.9677 118.741 11.9674 118.631C11.967 118.521 11.9231 118.416 11.8453 118.339C10.6426 117.293 10.0392 115.805 9.0804 114.561C8.12157 113.317 6.89812 112.276 6.1666 110.867C5.36069 109.313 4.51354 107.734 3.78616 106.134C3.07223 104.355 2.53642 102.51 2.18669 100.625C1.7734 98.7945 1.36008 96.9636 1.12037 95.1038C0.91722 93.2376 0.839874 91.3598 0.888906 89.4831C0.921969 85.6726 1.07494 81.8745 2.08336 78.2128Z" fill="#124635"/>
<path d="M19.2059 90.9173C19.5283 89.2642 19.8506 87.611 20.268 85.9579C20.6575 84.3885 21.2116 82.8647 21.9212 81.4117C22.599 80.0354 22.942 78.5187 23.6074 77.1466C24.3472 75.6133 25.1738 74.1213 25.959 72.6004C26.6474 71.1787 27.4188 69.7987 28.2692 68.4675C29.0958 67.2276 30.0132 66.0622 30.8977 64.8719C31.311 64.2933 31.7615 63.7064 32.1706 63.1072C32.5733 62.4425 33.015 61.8021 33.4932 61.1895C33.9313 60.6894 34.4397 60.2555 34.8943 59.7719C35.408 59.197 35.8895 58.594 36.3366 57.9659C37.3078 56.6888 38.3823 55.4614 39.4032 54.2215C40.2835 53.1469 41.3209 52.2212 42.2054 51.1549C42.6558 50.6135 43.0319 50.0142 43.4452 49.4604C43.9659 48.8353 44.5177 48.2366 45.0984 47.6668C45.5902 47.146 45.9744 46.5467 46.4291 46.0136C46.9707 45.406 47.5701 44.8523 48.2186 44.3604C49.3676 43.4223 50.376 42.3477 51.5001 41.3765C55.7942 37.6569 61.076 35.3714 66.3785 33.524C72.1645 31.5279 78.025 29.6681 83.9309 28.0852C90.4448 26.2874 97.099 25.0432 103.822 24.3656C110.624 23.7568 117.476 24.0612 124.197 25.2707C130.442 26.3891 136.349 28.9179 141.469 32.6644C142.709 33.5726 143.883 34.5684 144.982 35.6442C145.366 36.0162 145.949 35.4293 145.569 35.0573C140.989 30.598 135.117 27.4322 129.037 25.5517C125.824 24.6362 122.535 24.0151 119.209 23.6961C115.743 23.2975 112.253 23.1401 108.765 23.2249C95.2508 23.5721 82.2323 27.519 69.4658 31.6188C63.9732 33.3794 58.4351 35.3384 53.6533 38.6447C52.4475 39.4773 51.3 40.3915 50.2189 41.3806C49.694 41.8642 49.2064 42.3932 48.6733 42.8685C48.0575 43.4264 47.3879 43.9182 46.7638 44.4679C46.2552 44.9274 45.7941 45.437 45.3876 45.9888C44.8408 46.6692 44.2601 47.3217 43.6476 47.9436C42.6309 49.0265 41.887 50.3118 40.8579 51.3822C39.8289 52.4526 38.7915 53.6387 37.812 54.8538C37.2995 55.4985 36.7623 56.1226 36.225 56.7508C35.6877 57.379 35.2372 58.0692 34.7123 58.7015C33.8031 59.7926 32.7493 60.6522 31.9765 61.8632C31.1169 63.2064 30.1415 64.471 29.1868 65.744C28.2542 66.9497 27.3917 68.2082 26.6038 69.5131C25.7524 70.9638 25.0456 72.5095 24.2562 73.9973C23.4259 75.4498 22.6995 76.9594 22.0824 78.5145C21.8138 79.2626 21.6276 80.0354 21.2887 80.7546C20.9498 81.4737 20.6027 82.1391 20.3217 82.8623C19.7278 84.475 19.2675 86.1337 18.9454 87.8218C18.5629 89.4207 18.2663 91.039 18.0569 92.6696C17.8772 94.4132 17.8358 96.1683 17.933 97.9184C18.0255 99.3718 18.365 100.799 18.9371 102.138C19.5457 103.536 20.2789 104.876 21.1277 106.143C21.9047 107.406 22.8029 108.591 23.8098 109.681C24.8844 110.801 26.0085 111.875 27.0913 112.987C28.0761 113.917 29.138 114.762 30.2654 115.512C31.1788 116.19 32.2575 116.983 33.4601 116.847C33.9809 116.789 33.9891 115.963 33.4601 116.02C32.1872 116.165 31.0755 115.07 30.1167 114.367C29.5616 114.006 29.0262 113.616 28.513 113.198C27.9303 112.681 27.4054 112.102 26.8598 111.545C25.8266 110.47 24.7026 109.478 23.719 108.358C22.7579 107.195 21.8992 105.95 21.1525 104.638C20.3406 103.355 19.6935 101.975 19.2265 100.53C18.8305 99.0211 18.6675 97.4601 18.743 95.9016C18.7406 94.2293 18.8956 92.5605 19.2059 90.9173Z" fill="#124635"/>
</svg>
