<svg width="132" height="207" viewBox="0 0 132 207" fill="none" xmlns="http://www.w3.org/2000/svg">
<path d="M4.18696 135.372C5.79294 129.639 8.46213 124.259 12.0555 119.513C13.8653 117.102 15.8109 114.806 17.6922 112.445C19.3932 110.161 21.2887 108.029 23.3575 106.072C25.5035 104.183 27.7639 102.452 29.7954 100.457C32.206 98.1103 34.5523 95.7068 36.9486 93.3034C41.0188 89.2403 45.4324 85.1916 48.0934 80.0055C50.7544 74.8194 50.5397 68.8107 52.6428 63.4458C54.8674 57.7232 58.9879 53.1451 63.8235 49.5041C66.1483 47.7516 68.7876 46.4712 71.0767 44.6829C72.121 43.8746 73.0226 42.9089 74.0455 42.0791C75.2946 41.1061 76.5934 40.1988 77.9368 39.3609C80.3276 37.8884 82.606 36.241 84.7537 34.4323C87.0216 32.4518 89.4692 30.6869 92.0645 29.1604C97.0717 26.1631 102.458 23.8884 107.737 21.4349C110.624 20.0621 113.586 18.8514 116.607 17.8082C119.59 16.8139 122.616 15.934 125.591 14.8968C128.567 13.8596 131.25 12.6221 134.175 11.7494C137.101 10.8767 140.062 10.2758 142.967 9.36738C145.943 8.37571 148.968 7.53531 152.03 6.84943C155.273 6.18179 158.52 5.56421 161.772 4.99672C168.246 3.87366 174.77 3.27998 181.265 2.35006C184.523 1.86531 187.814 1.62619 191.108 1.63474C194.363 1.63474 197.624 1.63474 200.879 1.63474C207.317 1.5632 213.755 1.18404 220.157 1.59178C223.334 1.82182 226.493 2.25669 229.614 2.89367C232.711 3.48739 235.823 4.02388 238.863 4.90373C241.009 5.53321 243.541 6.21277 245.243 7.76502C245.923 8.38735 246.939 7.37876 246.26 6.75643C244.55 5.18272 242.175 4.41015 239.993 3.73774C237.066 2.89957 234.095 2.22141 231.095 1.70625C227.932 1.0618 224.737 0.584256 221.524 0.275606C218.319 0.0180895 215.086 -0.0248264 211.888 0.0109398C205.271 0.0753189 198.662 0.261301 192.045 0.232688C185.428 0.204075 178.876 1.26274 172.302 2.05675C165.728 2.85076 159.119 4.02391 152.581 5.34011C149.349 6.02612 146.156 6.88574 143.017 7.91525C140.041 8.84517 137.001 9.48896 134.011 10.3688C130.863 11.2844 127.881 12.6578 124.783 13.7165C121.807 14.7394 118.782 15.6193 115.799 16.635C110.076 18.5807 104.533 21.3276 99.0532 23.9313C93.7312 26.4564 88.5308 29.3177 84.0314 33.2305C81.6437 35.2106 79.1247 37.0269 76.4919 38.667C75.4117 39.3823 74.346 40.0976 73.3302 40.9059C72.0641 41.9002 70.9765 43.0519 69.6747 44.0391C67.2569 45.7916 64.6033 47.1436 62.2427 48.9963C59.898 50.8058 57.7604 52.8689 55.8691 55.1481C54.0489 57.3982 52.5669 59.902 51.4699 62.5802C50.4381 65.2984 49.697 68.1182 49.2593 70.9924C48.687 74.0755 48.0575 77.1585 46.5339 79.9268C44.9963 82.5882 43.1316 85.0466 40.9831 87.2446C38.8372 89.5336 36.5839 91.7153 34.3664 93.9257C32.0273 96.2576 29.7668 98.6898 27.3061 100.879C25.1172 102.824 22.7711 104.591 20.6967 106.658C18.6222 108.726 16.9267 111.186 15.074 113.468C11.2756 118.147 7.6419 122.803 5.18835 128.354C2.73228 134.071 1.2965 140.175 0.946355 146.387C0.488549 152.904 0.316871 159.671 1.30402 166.145C1.78328 169.278 2.49172 172.368 3.18558 175.444C3.81128 178.665 4.78245 181.809 6.0825 184.822C6.69768 186.152 7.41306 187.426 8.10692 188.72C8.80078 190.015 9.44453 191.582 10.2099 192.969C11.6406 195.473 13.858 197.304 15.5176 199.615C16.7193 201.296 17.6636 203.148 18.9726 204.708C18.9392 204.793 18.9256 204.885 18.9332 204.976C18.9407 205.068 18.9694 205.156 19.0163 205.235C19.0632 205.313 19.1274 205.38 19.2042 205.43C19.281 205.48 19.3682 205.512 19.4592 205.523C19.5794 205.523 19.6979 205.551 19.805 205.606C19.912 205.66 20.0044 205.74 20.0743 205.838C20.209 205.972 20.3912 206.046 20.5811 206.046C20.7709 206.045 20.9527 205.969 21.0865 205.834C21.2202 205.7 21.295 205.517 21.2943 205.328C21.2936 205.138 21.2177 204.956 21.083 204.822C19.0014 203.012 17.9571 200.437 16.2975 198.284C14.638 196.131 12.5204 194.328 11.2543 191.889C9.85939 189.2 8.39315 186.467 7.13418 183.699C5.8985 180.62 4.97111 177.426 4.36579 174.163C3.65047 170.995 2.93509 167.826 2.52021 164.607C2.16859 161.377 2.03472 158.126 2.11958 154.878C2.17681 148.283 2.44158 141.709 4.18696 135.372Z" fill="#124635"/>
<path d="M33.823 157.361C34.381 154.499 34.9388 151.638 35.6613 148.777C36.3354 146.061 37.2945 143.423 38.5226 140.908C39.6957 138.526 40.2895 135.901 41.4411 133.526C42.7216 130.872 44.1522 128.29 45.5113 125.658C46.7028 123.197 48.0379 120.808 49.5098 118.504C50.9405 116.358 52.5284 114.341 54.0592 112.281C54.7745 111.28 55.5543 110.264 56.2624 109.227C56.9594 108.076 57.7239 106.968 58.5516 105.908C59.3099 105.042 60.1898 104.291 60.9767 103.454C61.8658 102.459 62.6991 101.415 63.473 100.328C65.154 98.1177 67.0138 95.9932 68.7806 93.8472C70.3042 91.9874 72.0999 90.385 73.6307 88.5395C74.4104 87.6024 75.0613 86.5652 75.7767 85.6067C76.6779 84.5246 77.6329 83.4885 78.6379 82.5022C79.4892 81.6009 80.1542 80.5637 80.9411 79.6409C81.8786 78.5892 82.916 77.631 84.0385 76.7796C86.0271 75.1558 87.7724 73.296 89.7181 71.6149C97.1503 65.177 106.292 61.2213 115.47 58.0238C125.484 54.5688 135.628 51.3499 145.85 48.6102C157.124 45.4986 168.641 43.345 180.278 42.1723C192.05 41.1185 203.911 41.6454 215.543 43.7388C226.352 45.6747 236.576 50.0515 245.437 56.536C247.584 58.1079 249.616 59.8315 251.517 61.6934C252.182 62.3372 253.191 61.3215 252.533 60.6777C244.607 52.9593 234.443 47.48 223.92 44.2252C218.359 42.6406 212.665 41.5656 206.91 41.0134C200.91 40.3237 194.87 40.0512 188.833 40.198C165.442 40.7988 142.91 47.6302 120.813 54.7262C111.307 57.7735 101.721 61.1641 93.4449 66.8867C91.3579 68.3279 89.3718 69.91 87.5005 71.6221C86.5921 72.459 85.7482 73.3746 84.8254 74.1973C83.7596 75.1629 82.6007 76.0142 81.5205 76.9656C80.6402 77.7609 79.8422 78.6428 79.1385 79.598C78.1921 80.7756 77.187 81.9049 76.127 82.9814C74.3673 84.8556 73.0797 87.0802 71.2985 88.9329C69.5174 90.7856 67.7219 92.8386 66.0265 94.9416C65.1395 96.0575 64.2097 97.1377 63.2798 98.225C62.3499 99.3123 61.5701 100.507 60.6616 101.601C59.0879 103.49 57.2641 104.978 55.9264 107.074C54.4386 109.398 52.7504 111.587 51.098 113.79C49.4838 115.877 47.9911 118.056 46.6272 120.314C45.1537 122.825 43.9303 125.5 42.5641 128.075C41.1269 130.589 39.8697 133.202 38.8016 135.894C38.3367 137.189 38.0145 138.526 37.4279 139.771C36.8414 141.016 36.2406 142.167 35.7542 143.419C34.7263 146.21 33.9296 149.081 33.3721 152.003C32.7101 154.77 32.1967 157.571 31.8342 160.394C31.5231 163.411 31.4515 166.449 31.6198 169.478C31.7799 171.994 32.3675 174.464 33.3578 176.782C34.4111 179.201 35.6802 181.521 37.1492 183.713C38.4941 185.9 40.0487 187.951 41.7915 189.836C43.6513 191.775 45.597 193.635 47.4711 195.559C49.1756 197.168 51.0135 198.631 52.9649 199.93C54.5458 201.103 56.4127 202.476 58.4943 202.24C59.3956 202.14 59.41 200.709 58.4943 200.809C56.2911 201.06 54.367 199.164 52.7075 197.948C51.7467 197.324 50.82 196.648 49.9318 195.924C48.9232 195.03 48.0147 194.028 47.0705 193.063C45.2822 191.203 43.3368 189.486 41.6343 187.547C39.9707 185.533 38.4845 183.38 37.1922 181.109C35.7869 178.889 34.6668 176.5 33.8587 173.999C33.1732 171.387 32.891 168.685 33.0218 165.988C33.0176 163.093 33.2859 160.205 33.823 157.361Z" fill="#124635"/>
<path d="M242.397 140.629C241.545 140.958 241.917 142.346 242.776 142.01C243.943 141.597 244.903 140.745 245.451 139.635C245.524 139.497 245.554 139.34 245.534 139.185C245.515 139.03 245.449 138.885 245.344 138.769C244.149 137.281 241.638 137.153 239.9 136.924C237.081 136.51 234.296 135.891 231.567 135.071C225.185 133.386 219.206 130.438 213.984 126.401C211.709 124.577 209.742 122.388 207.303 120.779C206.173 120.064 204.892 119.52 203.798 118.733C202.703 117.946 201.566 116.895 200.4 116.036C197.793 114.23 195.039 112.646 192.167 111.301C189.396 109.839 186.468 108.696 183.44 107.896C180.3 107.076 177.114 106.45 173.897 106.022C170.538 105.7 167.163 105.578 163.79 105.657C160.416 105.544 157.039 105.748 153.704 106.265C150.306 106.873 146.894 107.338 143.489 107.882C140.198 108.418 136.929 109.141 133.696 109.956C132.101 110.357 130.535 110.836 128.961 111.315C127.321 111.713 125.641 111.927 123.954 111.952C122.409 112.122 120.879 112.405 119.375 112.796C117.794 113.146 116.221 113.511 114.654 113.919C111.654 114.737 108.713 115.755 105.849 116.966C103.168 118.025 100.611 119.373 98.2233 120.986C97.0059 121.835 95.8686 122.792 94.8255 123.848C93.7612 124.986 92.7582 126.18 91.821 127.424C90.1972 129.477 88.4019 131.194 87.3433 133.641C86.1272 136.445 84.9467 139.313 83.9381 142.224C83.3906 143.738 82.9765 145.296 82.7006 146.881C82.4909 148.453 82.3954 150.038 82.4146 151.624C82.3251 153.321 82.3539 155.023 82.5005 156.717C82.7075 158.329 83.0229 159.925 83.4446 161.495C84.0919 164.356 84.9626 167.161 86.0485 169.886C87.1534 172.408 88.5226 174.806 90.1329 177.039C93.4475 181.521 97.3885 185.503 101.836 188.863C104.071 190.696 106.479 192.308 109.025 193.678C111.757 194.969 114.589 196.036 117.494 196.868C120.448 197.784 123.331 198.864 126.257 199.865C129.018 200.809 131.836 200.852 134.733 200.709C138.11 200.545 141.472 200.137 144.82 199.643C148.296 199.128 151.787 198.792 155.277 198.341C158.639 197.912 161.937 197.111 165.256 196.453C168.575 195.795 172.059 195.23 175.464 194.693C178.95 194.056 182.475 193.657 186.015 193.499C189.398 193.413 192.789 193.57 196.173 193.585C202.966 193.717 209.723 194.597 216.323 196.21C222.761 197.64 229.041 199.364 234.764 202.691C236.796 203.864 238.663 205.809 241.202 205.452C242.11 205.33 241.724 203.95 240.823 204.078C239.528 204.257 238.248 203.292 237.246 202.648C236.149 201.893 235.007 201.205 233.827 200.588C231.142 199.195 228.345 198.032 225.465 197.111C222.332 196.117 219.099 195.394 215.894 194.679C212.689 193.964 209.542 193.37 206.337 192.934C203.089 192.488 199.816 192.25 196.537 192.218C193.204 192.218 189.863 192.068 186.523 192.118C183.267 192.222 180.021 192.544 176.809 193.084C173.447 193.592 170.077 194.135 166.737 194.751C163.396 195.366 160.249 196.181 156.98 196.703C153.711 197.226 150.184 197.419 146.801 197.941C143.418 198.463 140.148 198.928 136.786 199.186C133.825 199.407 130.721 199.665 127.816 198.878C126.421 198.506 125.105 197.919 123.753 197.447C122.401 196.975 120.82 196.453 119.347 196.017C116.46 195.212 113.629 194.22 110.87 193.048C108.241 191.779 105.76 190.222 103.474 188.406C101.3 186.769 99.2273 185.004 97.2649 183.119C93.2955 179.414 90.0477 175.005 87.6866 170.115C86.5468 167.442 85.649 164.672 85.0041 161.839C84.5504 160.234 84.1991 158.602 83.9525 156.953C83.7903 155.263 83.7571 153.562 83.8526 151.867C83.819 150.245 83.9147 148.624 84.1386 147.017C84.4325 145.487 84.8463 143.983 85.3761 142.518C86.3847 139.656 87.5221 136.795 88.7739 134.027C89.8469 131.673 91.7495 129.935 93.3233 127.918C95.1448 125.469 97.3763 123.354 99.9187 121.666C102.352 120.157 104.927 118.892 107.608 117.889C110.489 116.734 113.445 115.778 116.457 115.028C117.966 114.656 119.483 114.312 120.999 113.983C122.608 113.644 124.242 113.436 125.885 113.361C129.018 113.161 131.986 111.93 135.019 111.215C141.457 109.656 148.046 108.74 154.598 107.638C157.99 107.192 161.416 107.041 164.834 107.188C168.073 107.116 171.314 107.26 174.534 107.617C177.718 108.1 180.873 108.759 183.983 109.591C186.969 110.461 189.848 111.661 192.567 113.168C195.417 114.536 198.124 116.182 200.65 118.082C201.594 118.921 202.593 119.695 203.641 120.4C204.799 121.115 206.001 121.659 207.103 122.439C209.513 124.141 211.509 126.38 213.855 128.161C216.367 130.082 219.08 131.725 221.946 133.061C224.722 134.358 227.591 135.446 230.529 136.316C233.29 137.179 236.112 137.834 238.97 138.276C239.95 138.412 240.937 138.519 241.91 138.726C242.607 138.834 243.275 139.077 243.877 139.442C243.515 139.978 242.998 140.392 242.397 140.629Z" fill="#124635"/>
<path d="M253.498 185.845C252.311 186.038 251.066 185.173 250.029 184.708C248.772 184.216 247.465 183.866 246.131 183.663C243.15 182.99 240.137 182.47 237.103 182.104C231.009 181.524 224.85 181.946 218.741 181.732C215.784 181.555 212.817 181.622 209.871 181.932C208.44 182.125 207.009 182.49 205.543 182.647C203.955 182.791 202.36 182.805 200.779 182.948C199.198 183.091 197.753 183.434 196.237 183.663C194.72 183.892 193.282 184.057 191.816 184.314C188.747 184.851 185.843 186.017 182.753 186.46C179.663 186.904 176.215 186.646 173.017 186.589C169.847 186.571 166.68 186.371 163.532 185.988C160.814 185.63 158.253 184.507 155.535 184.286C153.961 184.157 152.352 184.286 150.778 184.286C149.204 184.286 147.545 184.286 145.928 184.286C142.738 184.286 139.547 184.479 136.35 184.472C134.833 184.472 133.295 184.472 131.786 184.307C130.314 184.094 128.872 183.702 127.494 183.141C124.683 182.118 121.772 181.489 118.91 180.459C117.48 179.951 116.121 179.464 114.704 179.028C113.331 178.496 112.062 177.726 110.956 176.753C108.688 175.001 106.357 173.463 104.346 171.395C102.391 169.285 100.622 167.009 99.0601 164.593C98.23 163.389 97.5525 162.086 97.043 160.716C96.5852 159.449 96.1989 158.155 95.7053 156.896C94.6109 154.163 93.5595 151.338 93.3162 148.376C93.0873 145.551 93.9172 142.875 94.8042 140.222C95.2176 138.915 95.7842 137.661 96.4922 136.488C97.3351 135.275 98.2933 134.147 99.3535 133.118C101.356 130.921 103.608 128.965 106.063 127.289C108.509 125.759 111.076 124.431 113.739 123.319C116.521 122.103 119.547 121.759 122.322 120.607C123.682 120.057 124.969 119.348 126.328 118.819C127.795 118.24 129.34 117.846 130.849 117.388C133.861 116.48 136.879 115.6 139.926 114.806C141.506 114.326 143.117 113.958 144.748 113.705C146.279 113.526 147.824 113.626 149.362 113.49C150.809 113.282 152.242 112.986 153.653 112.603C155.122 112.275 156.615 112.064 158.117 111.974C161.114 111.816 164.019 112.689 167.002 112.753C169.984 112.818 172.946 112.66 175.886 113.318C177.395 113.662 178.84 114.148 180.371 114.391C181.902 114.634 183.39 114.756 184.885 115.006C187.572 115.468 190.04 116.782 191.923 118.755C193.914 120.768 195.635 123.031 197.045 125.486C198.41 127.874 199.912 130.182 201.544 132.396C203.183 134.543 205.017 136.533 207.024 138.34C208.993 140.103 211.152 141.641 213.462 142.926C215.892 144.354 218.112 146.114 220.057 148.155C220.973 149.094 221.953 149.969 222.99 150.773C224.134 151.617 225.386 152.311 226.566 153.069C228.984 154.592 231.066 156.603 233.72 157.804C236.374 159.006 238.934 158.791 241.753 158.77C241.942 158.77 242.124 158.695 242.258 158.56C242.393 158.426 242.468 158.244 242.468 158.055C242.468 157.865 242.393 157.683 242.258 157.549C242.124 157.415 241.942 157.339 241.753 157.339C240.252 157.422 238.747 157.422 237.246 157.339C235.717 157.129 234.252 156.587 232.954 155.751C231.741 155.009 230.573 154.194 229.456 153.312C228.272 152.43 227.043 151.611 225.773 150.858C224.507 150.111 223.322 149.234 222.239 148.24C221.223 147.282 220.25 146.288 219.234 145.336C218.22 144.358 217.124 143.467 215.958 142.675C214.821 141.96 213.584 141.352 212.432 140.622C207.686 137.51 203.669 133.408 200.658 128.598C197.689 123.948 195.192 118.984 190.579 115.722C188.204 114.034 185.521 113.626 182.71 113.275C181.147 113.117 179.599 112.832 178.082 112.424C176.627 111.994 175.139 111.688 173.633 111.509C170.65 111.187 167.638 111.509 164.662 111.137C163.146 110.936 161.637 110.65 160.099 110.557C158.64 110.491 157.178 110.573 155.735 110.8C154.191 111.041 152.661 111.361 151.15 111.759C149.594 112.069 148.008 112.208 146.422 112.174C143.238 112.274 140.134 113.254 137.079 114.098C134.025 114.942 130.806 115.922 127.68 116.873C124.819 117.746 122.258 119.327 119.361 120.092C117.837 120.5 116.285 120.808 114.805 121.351C113.488 121.831 112.201 122.446 110.927 123.04C108.284 124.213 105.779 125.676 103.459 127.403C101.097 129.29 98.9093 131.384 96.9215 133.662C95.1632 135.69 93.8801 138.085 93.1661 140.672C92.3077 143.441 91.6135 146.087 91.9568 149.006C92.3939 151.904 93.2093 154.732 94.3819 157.418C95.4406 160.093 96.1201 162.769 97.7367 165.186C99.2864 167.579 101.018 169.848 102.916 171.975C104.904 174.027 107.108 175.86 109.49 177.44C110.677 178.262 111.714 179.314 113.066 179.922C114.418 180.53 115.677 180.773 116.965 181.267C118.438 181.832 119.912 182.368 121.428 182.826C122.945 183.284 124.461 183.613 125.942 184.135C127.293 184.66 128.671 185.114 130.069 185.494C131.521 185.782 132.997 185.923 134.476 185.916C137.731 186.002 140.978 185.845 144.233 185.773C147.487 185.702 150.799 185.773 154.083 185.773C157.023 185.773 159.684 186.954 162.567 187.376C165.688 187.8 168.831 188.039 171.98 188.091C175.244 188.27 178.516 188.27 181.78 188.091C184.928 187.805 187.839 186.71 190.901 186.038C192.41 185.709 193.941 185.516 195.472 185.323C197.131 185.087 198.769 184.708 200.436 184.529C202.103 184.35 203.612 184.343 205.2 184.221C206.788 184.1 208.233 183.742 209.756 183.506C212.739 183.166 215.746 183.094 218.741 183.291C221.831 183.406 224.914 183.406 228.04 183.384C231.241 183.315 234.444 183.425 237.633 183.713C240.818 184.126 243.979 184.703 247.103 185.444C248.368 185.745 249.596 186.181 250.766 186.746C251.73 187.262 252.827 187.474 253.913 187.354C254.786 187.061 254.4 185.702 253.498 185.845Z" fill="#124635"/>
<path d="M254.25 169.957C251.46 169.893 248.742 169.206 245.952 169.113C243.002 169.078 240.051 169.221 237.118 169.543C234.171 169.807 231.224 169.9 228.277 170.122C225.437 170.356 222.614 170.754 219.821 171.317C214.084 172.388 208.423 173.836 202.875 175.651C200.164 176.553 197.496 177.576 194.864 178.684C193.614 179.222 192.305 179.614 190.965 179.85C189.671 180.072 188.347 180.129 187.045 180.33C185.743 180.53 184.384 180.931 183.025 181.045C181.597 181.14 180.164 181.162 178.733 181.109C175.826 180.99 172.938 180.592 170.106 179.922C167.331 179.307 164.591 178.57 161.816 177.976C159.04 177.383 156.287 177.053 153.497 176.689C148.182 175.946 142.98 174.545 138.01 172.518C135.668 171.639 133.491 170.369 131.572 168.763C130.542 167.876 129.619 166.867 128.596 165.959C127.573 165.05 126.551 164.242 125.492 163.434C123.282 161.753 120.978 160.208 118.732 158.577C116.672 157.021 114.882 155.139 113.431 153.004C112.001 150.98 110.742 148.841 109.383 146.76C107.909 144.506 106.414 142.089 106.028 139.37C105.277 134.148 109.698 130.472 113.975 128.555C115.914 127.689 118.06 126.974 120.098 126.258C122.736 125.229 125.467 124.457 128.253 123.955C129.605 123.762 130.971 123.869 132.323 123.683C133.489 123.526 134.605 123.14 135.764 122.904C138.26 122.388 140.886 122.904 143.411 122.989C149.334 123.138 155.216 124.008 160.929 125.579C163.697 126.351 166.423 127.274 169.234 127.875C171.938 128.473 174.555 129.411 177.024 130.665C179.492 131.907 181.881 133.299 184.177 134.835C186.373 136.266 188.641 137.646 190.765 139.206C193.068 140.894 194.914 143.097 196.91 145.114C198.961 147.147 200.893 149.297 202.697 151.552C204.305 153.652 206.22 155.499 208.376 157.032C210.565 158.57 212.904 159.929 215.229 161.238C217.602 162.571 220.171 163.523 222.84 164.056C225.05 164.521 227.132 165.415 229.314 165.995C227.168 165.923 225.022 166.08 222.876 165.887L221.073 165.737C221.053 165.575 220.973 165.427 220.849 165.322C220.724 165.217 220.564 165.164 220.401 165.172C219.228 165.205 218.058 165.303 216.896 165.465L216.18 165.422C212.107 165.265 208.095 164.378 204.335 162.804C203.004 162.253 201.702 161.638 200.415 160.98C200.395 160.82 200.316 160.672 200.193 160.568C200.069 160.463 199.911 160.408 199.75 160.415H199.335C197.596 159.492 195.88 158.527 194.17 157.554C190.929 155.619 187.562 153.903 184.091 152.418C183.133 152.039 182.145 151.702 181.194 151.302C180.153 150.826 179.149 150.274 178.19 149.649C176.294 148.476 174.391 147.318 172.517 146.123C170.643 144.928 169.055 143.784 167.367 142.546C165.716 141.216 163.97 140.006 162.145 138.927C160.478 138.054 158.697 137.453 156.98 136.702C156.165 136.344 155.385 135.887 154.534 135.593C153.683 135.3 152.738 135.2 151.844 134.993C150.042 134.57 148.375 133.698 146.522 133.476C144.313 133.314 142.096 133.295 139.884 133.419C137.649 133.343 135.412 133.48 133.203 133.827C131.291 134.169 129.422 134.721 127.631 135.472C125.113 136.602 122.173 139.263 122.216 142.246C122.259 145.565 124.033 149.077 125.971 151.681C126.941 152.992 128.155 154.102 129.548 154.95C131.254 155.916 132.843 157.075 134.283 158.405C136.916 160.973 138.868 164.128 141.372 166.781C142.5 168.028 143.804 169.102 145.242 169.972C146.923 170.834 148.706 171.481 150.55 171.896C154.708 173.174 158.986 174.021 163.318 174.421C165.395 174.577 167.483 174.522 169.549 174.257C171.737 173.963 173.841 173.341 176.072 173.076C178.154 172.819 180.25 173.076 182.331 172.833C184.413 172.59 186.494 171.968 188.555 171.545C192.947 170.658 197.332 169.836 201.681 168.777C203.707 168.258 205.761 167.852 207.833 167.561C209.886 167.304 211.953 167.44 214.006 167.218C214.986 167.111 215.959 166.975 216.932 166.86H217.182C219.328 166.939 221.51 167.239 223.684 167.347C225.859 167.454 228.076 167.282 230.265 167.447C232.454 167.611 234.471 168.062 236.56 168.398C238.54 168.748 240.544 168.934 242.554 168.956C242.744 168.956 242.926 168.881 243.06 168.747C243.194 168.612 243.27 168.43 243.27 168.241C243.27 168.051 243.194 167.869 243.06 167.735C242.926 167.601 242.744 167.525 242.554 167.525C239.963 167.444 237.383 167.143 234.843 166.624C236.202 166.624 237.569 166.574 238.921 166.574C241.36 166.574 243.742 166.667 246.181 166.831C247.186 166.925 248.198 166.91 249.2 166.789C249.641 166.741 250.073 166.628 250.48 166.452C251.045 166.202 251.074 165.852 251.196 165.258C251.36 164.357 249.979 163.97 249.815 164.879L249.751 165.215C248.885 165.454 247.983 165.534 247.09 165.451C245.966 165.408 244.858 165.279 243.735 165.193C240.988 164.993 238.184 165.129 235.43 165.151C233.932 165.215 232.432 165.129 230.952 164.893C229.69 164.619 228.445 164.271 227.225 163.849C225.907 163.37 224.562 162.969 223.198 162.647C221.839 162.407 220.504 162.051 219.206 161.581C216.613 160.437 214.122 159.076 211.76 157.511C209.439 156.203 207.317 154.57 205.458 152.661C203.498 150.515 201.881 148.097 199.814 146.001C198.784 144.935 197.732 143.891 196.702 142.832C195.672 141.774 194.699 140.686 193.612 139.649C191.63 137.974 189.513 136.467 187.281 135.143C184.964 133.648 182.703 132.088 180.3 130.736C177.891 129.345 175.354 128.188 172.725 127.281C170.028 126.387 167.195 125.894 164.47 125.078C158.848 123.317 153.055 122.161 147.188 121.63C145.757 121.523 144.376 121.552 142.974 121.494C141.572 121.437 140.306 121.294 138.969 121.251C137.772 121.184 136.571 121.259 135.392 121.473C134.214 121.799 133.02 122.064 131.815 122.267C130.42 122.403 129.04 122.338 127.652 122.56C126.233 122.796 124.831 123.133 123.46 123.569C121.042 124.284 118.653 125.171 116.307 126.037C112.258 127.467 108.181 129.456 105.878 133.283C105.212 134.393 104.775 135.625 104.596 136.907C104.417 138.189 104.497 139.494 104.833 140.744C105.498 143.376 106.979 145.658 108.41 147.897C111.092 152.053 113.56 156.481 117.587 159.478C119.855 161.166 122.216 162.718 124.469 164.421C125.606 165.279 126.722 166.173 127.781 167.125C128.839 168.076 129.698 169.042 130.742 169.907C134.591 173.141 139.419 174.507 144.09 176.074C149.57 177.905 155.321 178.033 160.936 179.199C166.551 180.365 172.11 182.154 177.889 182.454C180.637 182.622 183.394 182.437 186.094 181.903C188.698 181.36 191.373 181.403 193.913 180.53C196.695 179.586 199.378 178.312 202.167 177.354C204.957 176.395 207.804 175.523 210.665 174.779C216.378 173.177 222.221 172.084 228.126 171.51C231.131 171.274 234.142 171.188 237.14 170.916C240.073 170.594 243.023 170.451 245.974 170.487C248.513 170.566 250.981 171.145 253.542 171.295C253.597 171.315 253.655 171.327 253.714 171.331H254.271C254.419 171.285 254.549 171.193 254.64 171.068C254.73 170.942 254.779 170.791 254.776 170.636C254.774 170.481 254.721 170.331 254.626 170.209C254.531 170.087 254.399 169.998 254.25 169.957ZM196.309 168.613C192.017 169.514 187.725 170.372 183.433 171.274C181.402 171.703 179.313 171.424 177.26 171.574C175.22 171.772 173.196 172.107 171.201 172.576C167.002 173.339 162.694 173.278 158.518 172.397C156.408 172.003 154.327 171.481 152.259 170.916C150.308 170.504 148.405 169.893 146.58 169.092C143.582 167.561 141.465 164.8 139.426 162.218C137.145 159.278 134.748 156.402 131.515 154.485C129.955 153.675 128.56 152.581 127.402 151.259C126.296 149.842 125.391 148.28 124.712 146.617C124.14 145.186 123.51 143.512 123.639 141.974C123.768 140.436 124.97 139.113 126.064 138.204C127.418 137.142 128.988 136.388 130.664 135.994C132.724 135.324 134.871 134.955 137.037 134.9C139.29 134.9 141.537 134.857 143.79 134.864C144.832 134.816 145.877 134.869 146.909 135.021C147.77 135.22 148.617 135.481 149.441 135.801C150.284 136.1 151.147 136.339 152.023 136.516C152.925 136.654 153.808 136.894 154.656 137.231C156.372 137.997 158.096 138.726 159.82 139.47C163.504 141.058 166.558 143.87 169.835 146.123C171.551 147.31 173.354 148.355 175.121 149.471C176.87 150.676 178.709 151.745 180.622 152.668C182.41 153.434 184.241 154.042 186.001 154.878C187.761 155.715 189.342 156.559 191.008 157.468C192.339 158.183 193.662 158.956 195 159.7C193.384 159.596 191.804 159.176 190.35 158.462C188.483 157.683 186.645 156.867 184.714 156.238C182.482 155.522 180.185 154.986 177.954 154.242C175.722 153.498 173.512 152.611 171.244 151.91C169.02 151.26 166.744 150.806 164.441 150.551C162.159 150.257 159.949 150.093 157.846 149.12C156.045 148.171 154.175 147.358 152.252 146.688C150.169 146.074 148.124 145.336 146.129 144.478C144.734 143.862 143.039 143.533 141.944 144.871C141.029 145.994 140.921 147.661 140.986 149.041C141.072 150.493 141.487 151.906 142.199 153.174C142.912 154.442 143.903 155.531 145.099 156.359C147.652 158.254 150.61 159.53 153.74 160.086C155.821 160.472 157.932 160.687 160.021 161.023C162.381 161.409 164.734 161.817 167.102 162.132C177.682 163.563 188.39 162.003 199.02 161.917C202.338 163.726 205.864 165.124 209.521 166.08C209.02 166.08 208.527 166.138 208.026 166.195C204.041 166.617 200.2 167.79 196.295 168.613H196.309ZM192.11 160.63L185.836 160.93C181.23 161.264 176.609 161.34 171.995 161.159C167.538 160.887 163.139 160.029 158.733 159.335C155.378 158.806 152.123 158.491 149.012 157.01C146.415 155.773 143.575 153.834 142.724 150.923C142.34 149.611 142.285 148.226 142.566 146.888C142.702 146.287 142.953 145.565 143.604 145.35C144.426 145.086 145.414 145.658 146.129 146.001C147.983 146.818 149.896 147.495 151.852 148.026C153.74 148.704 155.58 149.509 157.359 150.436C159.183 151.191 161.114 151.652 163.082 151.803C165.37 152.032 167.639 152.426 169.871 152.983C172.26 153.641 174.563 154.585 176.909 155.393C179.256 156.202 181.645 156.753 183.998 157.504C186.037 158.155 187.975 159.006 189.95 159.829C190.651 160.115 191.366 160.401 192.096 160.63H192.11Z" fill="#124635"/>
</svg>
