<svg width="20" height="20" viewBox="0 0 20 20" fill="none" xmlns="http://www.w3.org/2000/svg">
<circle cx="10" cy="10" r="10" fill="#114635"/>
<path d="M15.3507 7.99404L16.0489 8.70996L16.7648 8.01177L16.0667 7.29586L15.3507 7.99404ZM14.6348 8.69223L13.9366 7.97631L13.9366 7.97631L14.6348 8.69223ZM13.9544 6.56221L14.6703 5.86402L13.9721 5.14811L13.2562 5.84629L13.9544 6.56221ZM13.2385 7.2604L13.9366 7.97631L13.9366 7.97631L13.2385 7.2604ZM8.64626 11.7389L7.97623 12.4812L8.67273 13.1099L9.34445 12.4548L8.64626 11.7389ZM6.32951 9.64774L5.65947 10.3901L5.65947 10.3901L6.32951 9.64774ZM5.58718 8.97771L6.25721 8.23538L5.51488 7.56535L4.84485 8.30768L5.58718 8.97771ZM4.24711 10.4624L3.50478 9.79234L2.83475 10.5347L3.57708 11.2047L4.24711 10.4624ZM4.98944 11.1324L4.31941 11.8747L4.31941 11.8747L4.98944 11.1324ZM7.9299 13.7865L8.59993 13.0442L8.59993 13.0442L7.9299 13.7865ZM8.67223 14.4565L8.00219 15.1988L8.74452 15.8689L9.41456 15.1266L8.67223 14.4565ZM8.89457 14.2102L9.61048 13.512L8.86636 12.749L8.15224 13.5402L8.89457 14.2102ZM8.93463 14.2513L8.21871 14.9494L8.9169 15.6654L9.63281 14.9672L8.93463 14.2513ZM9.65054 13.5531L10.3487 14.269L9.65054 13.5531ZM14.6526 7.27813L13.9366 7.97631L15.333 9.40815L16.0489 8.70996L14.6526 7.27813ZM13.2385 7.2604L14.6348 8.69223L16.0667 7.29586L14.6703 5.86402L13.2385 7.2604ZM13.9366 7.97631L14.6526 7.27813L13.2562 5.84629L12.5403 6.54448L13.9366 7.97631ZM9.34445 12.4548L13.9366 7.97631L12.5403 6.54448L7.94807 11.0229L9.34445 12.4548ZM5.65947 10.3901L7.97623 12.4812L9.31629 10.9965L6.99954 8.90541L5.65947 10.3901ZM4.91714 9.72004L5.65947 10.3901L6.99954 8.90541L6.25721 8.23538L4.91714 9.72004ZM4.98944 11.1324L6.32951 9.64774L4.84485 8.30768L3.50478 9.79234L4.98944 11.1324ZM5.65948 10.3901L4.91714 9.72004L3.57708 11.2047L4.31941 11.8747L5.65948 10.3901ZM8.59993 13.0442L5.65947 10.3901L4.31941 11.8747L7.25986 14.5288L8.59993 13.0442ZM9.34226 13.7142L8.59993 13.0442L7.25986 14.5288L8.00219 15.1988L9.34226 13.7142ZM8.15224 13.5402L7.9299 13.7865L9.41456 15.1266L9.6369 14.8802L8.15224 13.5402ZM9.65054 13.5531L9.61048 13.512L8.17865 14.9084L8.21871 14.9494L9.65054 13.5531ZM8.95236 12.8372L8.23644 13.5353L9.63281 14.9672L10.3487 14.269L8.95236 12.8372ZM13.9366 7.97631L8.95236 12.8372L10.3487 14.269L15.333 9.40814L13.9366 7.97631Z" fill="#FFFEFB"/>
</svg>
